<svg width="500" height="500" viewBox="0 0 500 500" fill="none" xmlns="http://www.w3.org/2000/svg">
<g opacity="0.3">
<path d="M76.6098 143.44H29.0298V84.0898H69.5098L76.6098 90.0098V143.44Z" fill="white" stroke="black" stroke-linejoin="round"/>
<path d="M69.5098 84.0898V90.1098H76.6098L69.5098 84.0898Z" fill="white" stroke="black" stroke-linejoin="round"/>
<path d="M55.2998 89.0801H19.7798V102.05H55.2998V89.0801Z" fill="black"/>
<path d="M34.2896 105.76H72.5995" stroke="black" stroke-miterlimit="10"/>
<path d="M34.2896 112.869H72.5995" stroke="black" stroke-miterlimit="10"/>
<path d="M34.2896 119.971H72.5995" stroke="black" stroke-miterlimit="10"/>
<path d="M34.2896 127.08H72.5995" stroke="black" stroke-miterlimit="10"/>
<path d="M34.2896 134.18H72.5995" stroke="black" stroke-miterlimit="10"/>
<path d="M30.6199 100.199V91.7891H28.8999V90.7891H33.3699V91.7891H31.6499V100.199H30.6199Z" fill="white"/>
<path d="M36.4098 96.1698L34.8398 100.17H33.8398L35.7298 95.3498L33.9998 90.8398H35.0898L36.5298 94.5898L37.9998 90.8398H38.9998L37.2498 95.3798L39.1198 100.2H37.9998L36.4098 96.1698Z" fill="white"/>
<path d="M41.25 100.199V91.7891H39.52V90.7891H44V91.7891H42.27V100.199H41.25Z" fill="white"/>
</g>
<g opacity="0.3">
<path d="M463.85 274.001H416.27V214.641H456.74L463.85 220.561V274.001Z" fill="white" stroke="black" stroke-linejoin="round"/>
<path d="M456.74 214.641V220.661H463.85L456.74 214.641Z" fill="white" stroke="black" stroke-linejoin="round"/>
<path d="M442.53 219.641H407.01V232.611H442.53V219.641Z" fill="black"/>
<path d="M421.53 236.32H459.83" stroke="black" stroke-miterlimit="10"/>
<path d="M421.53 243.42H459.83" stroke="black" stroke-miterlimit="10"/>
<path d="M421.53 250.521H459.83" stroke="black" stroke-miterlimit="10"/>
<path d="M421.53 257.631H459.83" stroke="black" stroke-miterlimit="10"/>
<path d="M421.53 264.73H459.83" stroke="black" stroke-miterlimit="10"/>
<path d="M417.86 230.76V222.35H416.13V221.4H420.61V222.35H418.89V230.76H417.86Z" fill="white"/>
<path d="M423.65 226.721L422.08 230.721H421.08L422.97 225.891L421.2 221.361H422.28L423.73 225.101L425.19 221.361H426.19L424.44 225.891L426.31 230.721H425.2L423.65 226.721Z" fill="white"/>
<path d="M428.48 230.76V222.35H426.76V221.4H431.24V222.35H429.51V230.76H428.48Z" fill="white"/>
</g>
<g opacity="0.3">
<path d="M308.31 375.389H260.73V316.029H301.21L308.31 321.949V375.389Z" fill="white" stroke="black" stroke-linejoin="round"/>
<path d="M301.21 316.029V322.059H308.31L301.21 316.029Z" fill="white" stroke="black" stroke-linejoin="round"/>
<path d="M287 321.029H251.48V333.999H287V321.029Z" fill="black"/>
<path d="M266 337.709H304.3" stroke="black" stroke-miterlimit="10"/>
<path d="M266 344.809H304.3" stroke="black" stroke-miterlimit="10"/>
<path d="M266 351.91H304.3" stroke="black" stroke-miterlimit="10"/>
<path d="M266 359.02H304.3" stroke="black" stroke-miterlimit="10"/>
<path d="M266 366.119H304.3" stroke="black" stroke-miterlimit="10"/>
<path d="M262.32 332.149V323.739H260.6V322.789H265.08V323.739H263.35V332.149H262.32Z" fill="white"/>
<path d="M268.11 328.11L266.54 332.11H265.54L267.42 327.28L265.66 322.75H266.74L268.18 326.49L269.64 322.75H270.64L268.88 327.28L270.76 332.11H269.66L268.11 328.11Z" fill="white"/>
<path d="M273 332.149V323.739H271.27V322.789H275.75V323.739H274V332.149H273Z" fill="white"/>
</g>
<g opacity="0.3">
<path d="M96.3197 287.45H32.2397V207.51H86.7597L96.3197 215.48V287.45Z" fill="white" stroke="black" stroke-linejoin="round"/>
<path d="M86.7598 207.51V215.62H96.3198L86.7598 207.51Z" fill="white" stroke="black" stroke-linejoin="round"/>
<path d="M67.6198 214.24H19.7798V231.71H67.6198V214.24Z" fill="black"/>
<path d="M39.3296 236.699H90.9196" stroke="black" stroke-miterlimit="10"/>
<path d="M39.3296 246.27H90.9196" stroke="black" stroke-miterlimit="10"/>
<path d="M39.3296 255.83H90.9196" stroke="black" stroke-miterlimit="10"/>
<path d="M39.3296 265.4H90.9196" stroke="black" stroke-miterlimit="10"/>
<path d="M39.3296 274.971H90.9196" stroke="black" stroke-miterlimit="10"/>
<path d="M35.3196 216.61C37.3196 216.61 38.1496 217.78 38.1496 219.69V221.2C38.1496 223.2 37.2096 224.2 35.2096 224.2H33.9996V229.2H32.5996V216.6L35.3196 216.61ZM35.2096 223C36.2096 223 36.7596 222.51 36.7596 221.31V219.63C36.7596 218.48 36.3496 217.9 35.3196 217.9H33.9996V223H35.2096Z" fill="white"/>
<path d="M42.25 216.609C44.25 216.609 45.11 217.789 45.11 219.739V226.089C45.11 228.019 44.21 229.209 42.25 229.209H39.25V216.609H42.25ZM42.25 227.929C43.25 227.929 43.75 227.299 43.75 226.149V219.669C43.75 218.509 43.26 217.879 42.24 217.879H40.7V227.929H42.25Z" fill="white"/>
<path d="M50.7297 222.479V223.749H47.8297V229.209H46.4297V216.609H51.4297V217.879H47.8297V222.479H50.7297Z" fill="white"/>
</g>
<g opacity="0.3">
<path d="M69.9999 396.8H38.4199V357.41H65.2799L69.9999 361.34V396.8Z" fill="white" stroke="black" stroke-linejoin="round"/>
<path d="M65.2798 357.41V361.41H69.9998L65.2798 357.41Z" fill="white" stroke="black" stroke-linejoin="round"/>
<path d="M55.8498 360.721H32.2798V369.331H55.8498V360.721Z" fill="black"/>
<path d="M41.9199 371.791H67.3399" stroke="black" stroke-miterlimit="10"/>
<path d="M41.9199 376.51H67.3399" stroke="black" stroke-miterlimit="10"/>
<path d="M41.9199 381.221H67.3399" stroke="black" stroke-miterlimit="10"/>
<path d="M41.9199 385.939H67.3399" stroke="black" stroke-miterlimit="10"/>
<path d="M41.9199 390.65H67.3399" stroke="black" stroke-miterlimit="10"/>
<path d="M39.9396 361.891C40.9396 361.891 41.3296 362.471 41.3296 363.411V364.151C41.3296 365.151 40.8696 365.651 39.8796 365.651H39.2696V368.101H38.5796V361.891H39.9396ZM39.8796 365.001C40.3996 365.001 40.6496 364.761 40.6496 364.171V363.341C40.6496 362.781 40.4396 362.491 39.9396 362.491H39.2696V365.001H39.8796Z" fill="white"/>
<path d="M43.3499 361.891C44.3499 361.891 44.7599 362.481 44.7599 363.441V366.571C44.7599 367.521 44.3199 368.101 43.3499 368.101H41.8999V361.891H43.3499ZM43.3499 367.471C43.8499 367.471 44.0899 367.161 44.0899 366.591V363.401C44.0899 362.831 43.8499 362.521 43.3399 362.521H42.5999V367.521L43.3499 367.471Z" fill="white"/>
<path d="M47.5297 364.781V365.411H46.0997V368.101H45.4097V361.891H47.8797V362.521H46.0997V364.781H47.5297Z" fill="white"/>
</g>
<g opacity="0.3">
<path d="M471.47 104.39H439.89V64.9902H466.75L471.47 68.9202V104.39Z" fill="white" stroke="black" stroke-linejoin="round"/>
<path d="M466.75 64.9902V68.9902H471.47L466.75 64.9902Z" fill="white" stroke="black" stroke-linejoin="round"/>
<path d="M457.32 68.3105H433.75V76.9205H457.32V68.3105Z" fill="black"/>
<path d="M443.38 79.3809H468.8" stroke="black" stroke-miterlimit="10"/>
<path d="M443.38 84.0898H468.8" stroke="black" stroke-miterlimit="10"/>
<path d="M443.38 88.8105H468.8" stroke="black" stroke-miterlimit="10"/>
<path d="M443.38 93.5195H468.8" stroke="black" stroke-miterlimit="10"/>
<path d="M443.38 98.2402H468.8" stroke="black" stroke-miterlimit="10"/>
<path d="M441.41 69.4805C442.41 69.4805 442.8 70.0505 442.8 71.0005V71.7405C442.8 72.7405 442.34 73.2405 441.35 73.2405H440.74V75.6905H440.05V69.4805H441.41ZM441.35 72.6205C441.87 72.6205 442.12 72.3805 442.12 71.7805V71.0005C442.12 70.4305 441.91 70.1505 441.41 70.1505H440.74V72.6605L441.35 72.6205Z" fill="white"/>
<path d="M444.82 69.4805C445.82 69.4805 446.23 70.0605 446.23 71.0205V74.1505C446.23 75.1005 445.79 75.6905 444.82 75.6905H443.37V69.4805H444.82ZM444.82 75.0605C445.32 75.0605 445.56 74.7505 445.56 74.1805V71.0005C445.56 70.4305 445.32 70.1205 444.81 70.1205H444.07V75.1205L444.82 75.0605Z" fill="white"/>
<path d="M449 72.3705V73.0005H447.57V75.6905H446.88V69.4805H449.35V70.1105H447.57V72.3705H449Z" fill="white"/>
</g>
<path d="M415.48 49.5898H81.02V311H415.48V49.5898Z" fill="#263238" stroke="#263238" stroke-miterlimit="10"/>
<path d="M427.34 39.3594H91.8701V301.389H427.34V39.3594Z" fill="#485563"/>
<path d="M427.34 39.3594H91.8701V301.389H427.34V39.3594Z" fill="white" stroke="#263238" stroke-linecap="round" stroke-linejoin="round"/>
<path d="M172 76.4902H101V121.49H172V76.4902Z" fill="white" stroke="#263238" stroke-linecap="round" stroke-linejoin="round"/>
<path d="M120.5 96H150.5" stroke="#263238" stroke-miterlimit="10"/>
<path d="M113 103.5H162.5" stroke="#263238" stroke-miterlimit="10"/>
<path d="M172 129.99H101V174.99H172V129.99Z" fill="white" stroke="#263238" stroke-linecap="round" stroke-linejoin="round"/>
<path d="M108.39 140.67H133.29" stroke="#263238" stroke-miterlimit="10"/>
<path d="M108.39 146.629H133.29" stroke="#263238" stroke-miterlimit="10"/>
<path d="M108.39 152.59H133.29" stroke="#263238" stroke-miterlimit="10"/>
<path d="M108.39 158.549H133.29" stroke="#263238" stroke-miterlimit="10"/>
<path d="M108.39 164.51H133.29" stroke="#263238" stroke-miterlimit="10"/>
<path d="M139.22 140.67H164.12" stroke="#263238" stroke-miterlimit="10"/>
<path d="M139.22 146.629H164.12" stroke="#263238" stroke-miterlimit="10"/>
<path d="M139.22 152.59H164.12" stroke="#263238" stroke-miterlimit="10"/>
<path d="M139.22 158.549H164.12" stroke="#263238" stroke-miterlimit="10"/>
<path d="M139.22 164.51H164.12" stroke="#263238" stroke-miterlimit="10"/>
<path d="M172 183.49H101V228.49H172V183.49Z" fill="white" stroke="#263238" stroke-linecap="round" stroke-linejoin="round"/>
<path d="M108.39 194.17H133.29" stroke="#263238" stroke-miterlimit="10"/>
<path d="M108.39 200.129H133.29" stroke="#263238" stroke-miterlimit="10"/>
<path d="M108.39 206.09H133.29" stroke="#263238" stroke-miterlimit="10"/>
<path d="M108.39 212.049H133.29" stroke="#263238" stroke-miterlimit="10"/>
<path d="M108.39 218.01H133.29" stroke="#263238" stroke-miterlimit="10"/>
<path d="M139.22 194.17H164.12" stroke="#263238" stroke-miterlimit="10"/>
<path d="M139.22 200.129H164.12" stroke="#263238" stroke-miterlimit="10"/>
<path d="M139.22 206.09H164.12" stroke="#263238" stroke-miterlimit="10"/>
<path d="M139.22 212.049H164.12" stroke="#263238" stroke-miterlimit="10"/>
<path d="M139.22 218.01H164.12" stroke="#263238" stroke-miterlimit="10"/>
<path d="M172 236.99H101V281.99H172V236.99Z" fill="white" stroke="#263238" stroke-linecap="round" stroke-linejoin="round"/>
<path d="M108.39 247.67H133.29" stroke="#263238" stroke-miterlimit="10"/>
<path d="M108.39 253.629H133.29" stroke="#263238" stroke-miterlimit="10"/>
<path d="M108.39 259.59H133.29" stroke="#263238" stroke-miterlimit="10"/>
<path d="M108.39 265.549H133.29" stroke="#263238" stroke-miterlimit="10"/>
<path d="M108.39 271.51H133.29" stroke="#263238" stroke-miterlimit="10"/>
<path d="M139.22 247.67H164.12" stroke="#263238" stroke-miterlimit="10"/>
<path d="M139.22 253.629H164.12" stroke="#263238" stroke-miterlimit="10"/>
<path d="M139.22 259.59H164.12" stroke="#263238" stroke-miterlimit="10"/>
<path d="M139.22 265.549H164.12" stroke="#263238" stroke-miterlimit="10"/>
<path d="M139.22 271.51H164.12" stroke="#263238" stroke-miterlimit="10"/>
<path d="M427.33 39.3594H182V301.389H427.33V39.3594Z" fill="#B8B8B8" stroke="#263238" stroke-linecap="round" stroke-linejoin="round"/>
<path d="M411 89H189V240H411V89Z" fill="white" stroke="#263238" stroke-linecap="round" stroke-linejoin="round"/>
<path d="M427.33 39.3594H418.66V301.389H427.33V39.3594Z" fill="#DBDBDB" stroke="#263238" stroke-miterlimit="10"/>
<path d="M427.33 120.539H418.66V191.339H427.33V120.539Z" fill="#878787"/>
<path d="M427.34 39.3594H91.8701V56.3794H427.34V39.3594Z" fill="#485563" stroke="#263238" stroke-linecap="round" stroke-linejoin="round"/>
<path d="M329.61 42.2598H113.93V51.8598H329.61V42.2598Z" fill="white"/>
<path d="M410.99 62.3984H394.34" stroke="#263238" stroke-miterlimit="10"/>
<path d="M410.99 67.5293H394.34" stroke="#263238" stroke-miterlimit="10"/>
<path d="M410.99 72.6484H394.34" stroke="#263238" stroke-miterlimit="10"/>
<path d="M431 408.439L435.05 396.859" stroke="#263238" stroke-linecap="round" stroke-linejoin="round"/>
<path d="M431.29 377.17V420.31" stroke="#263238" stroke-linecap="round" stroke-linejoin="round"/>
<path d="M424.65 399.549C424.65 399.549 418.65 392.999 412.65 394.089C406.65 395.179 403.91 402.289 403.91 406.659C403.91 411.029 409.91 425.229 409.91 425.229C409.91 425.229 414.28 420.319 424.12 413.229C433.96 406.139 434.49 398.999 424.65 399.549Z" fill="#485563" stroke="#263238" stroke-linecap="round" stroke-linejoin="round"/>
<path d="M424.65 399.549C419.5 402.466 415.326 406.839 412.65 412.119" stroke="#263238" stroke-linecap="round" stroke-linejoin="round"/>
<path d="M434.45 391.859C434.45 391.859 439.45 386.469 444.36 387.379C449.27 388.289 451.55 394.149 451.54 397.749C451.53 401.349 446.54 413.049 446.54 413.049C442.984 409.363 439.075 406.034 434.87 403.109C426.78 397.239 426.34 391.389 434.45 391.859Z" fill="#485563" stroke="#263238" stroke-linecap="round" stroke-linejoin="round"/>
<path d="M434.45 391.859C438.694 394.267 442.129 397.879 444.32 402.239" stroke="#263238" stroke-linecap="round" stroke-linejoin="round"/>
<path d="M430.42 384.699L437.95 373.689" stroke="#263238" stroke-linecap="round" stroke-linejoin="round"/>
<path d="M429.16 381.51C429.16 381.51 429.04 374.19 424.73 371.58C420.42 368.97 414.87 371.85 412.48 374.58C410.09 377.31 406 389.29 406 389.29C406 389.29 411.38 388.64 421.33 389.64C431.28 390.64 435.52 386.55 429.16 381.51Z" fill="#485563" stroke="#263238" stroke-linecap="round" stroke-linejoin="round"/>
<path d="M429.16 381.509C424.388 380.486 419.42 380.897 414.88 382.689" stroke="#263238" stroke-linecap="round" stroke-linejoin="round"/>
<path d="M435.63 371.689C435.63 371.689 435.72 366.299 438.89 364.379C442.06 362.459 446.16 364.579 447.89 366.559C449.62 368.539 452.64 377.409 452.64 377.409C448.881 377.128 445.103 377.215 441.36 377.669C434.06 378.399 431 375.399 435.63 371.689Z" fill="#485563" stroke="#263238" stroke-linecap="round" stroke-linejoin="round"/>
<path d="M435.63 371.69C439.143 370.937 442.8 371.239 446.14 372.56" stroke="#263238" stroke-linecap="round" stroke-linejoin="round"/>
<path d="M449.69 416.609H410.88L414.81 457.009H445.76L449.69 416.609Z" fill="white" stroke="#263238" stroke-linecap="round" stroke-linejoin="round"/>
<path d="M439.4 434.209C439.4 434.553 439.502 434.889 439.693 435.175C439.884 435.462 440.156 435.685 440.474 435.816C440.792 435.948 441.142 435.982 441.479 435.915C441.817 435.848 442.127 435.682 442.37 435.439C442.614 435.196 442.779 434.886 442.846 434.548C442.914 434.211 442.879 433.861 442.747 433.543C442.616 433.225 442.393 432.953 442.107 432.762C441.82 432.571 441.484 432.469 441.14 432.469C440.911 432.467 440.684 432.512 440.473 432.599C440.261 432.686 440.068 432.814 439.907 432.975C439.745 433.137 439.617 433.33 439.53 433.541C439.443 433.753 439.399 433.98 439.4 434.209Z" fill="#263238" stroke="#263238" stroke-linecap="round" stroke-linejoin="round"/>
<path d="M433 434.209C433 434.553 433.102 434.889 433.293 435.175C433.484 435.462 433.756 435.685 434.074 435.816C434.392 435.948 434.742 435.982 435.079 435.915C435.417 435.848 435.727 435.682 435.97 435.439C436.214 435.196 436.379 434.886 436.447 434.548C436.514 434.211 436.479 433.861 436.348 433.543C436.216 433.225 435.993 432.953 435.707 432.762C435.421 432.571 435.084 432.469 434.74 432.469C434.511 432.467 434.284 432.512 434.073 432.599C433.861 432.686 433.669 432.814 433.507 432.975C433.345 433.137 433.217 433.33 433.13 433.541C433.043 433.753 432.999 433.98 433 434.209Z" fill="#263238" stroke="#263238" stroke-linecap="round" stroke-linejoin="round"/>
<path d="M412.17 429.859H448.4L448.57 428.129H412L412.17 429.859Z" fill="#263238" stroke="#263238" stroke-linecap="round" stroke-linejoin="round"/>
<path d="M446.85 445.79L447.58 438.26H412.99L413.72 445.79H446.85Z" fill="#263238" stroke="#263238" stroke-linecap="round" stroke-linejoin="round"/>
<path d="M445.77 434.21C445.77 434.438 445.815 434.664 445.903 434.874C445.99 435.085 446.119 435.276 446.28 435.437C446.442 435.598 446.634 435.725 446.845 435.811C447.056 435.898 447.282 435.941 447.51 435.94H447.81L448.13 432.62C447.932 432.544 447.722 432.503 447.51 432.5C447.054 432.5 446.616 432.679 446.29 432.999C445.965 433.319 445.778 433.754 445.77 434.21Z" fill="#263238" stroke="#263238" stroke-linecap="round" stroke-linejoin="round"/>
<path d="M426.66 434.209C426.66 434.553 426.762 434.889 426.953 435.175C427.145 435.462 427.416 435.685 427.734 435.816C428.052 435.948 428.402 435.982 428.74 435.915C429.077 435.848 429.387 435.682 429.631 435.439C429.874 435.196 430.04 434.886 430.107 434.548C430.174 434.211 430.139 433.861 430.008 433.543C429.876 433.225 429.653 432.953 429.367 432.762C429.081 432.571 428.744 432.469 428.4 432.469C428.171 432.467 427.944 432.512 427.733 432.599C427.521 432.686 427.329 432.814 427.167 432.975C427.005 433.137 426.877 433.33 426.79 433.541C426.703 433.753 426.659 433.98 426.66 434.209Z" fill="#263238" stroke="#263238" stroke-linecap="round" stroke-linejoin="round"/>
<path d="M413.92 434.209C413.92 434.553 414.022 434.889 414.213 435.175C414.404 435.462 414.676 435.685 414.994 435.816C415.312 435.948 415.662 435.982 415.999 435.915C416.337 435.848 416.647 435.682 416.89 435.439C417.134 435.196 417.299 434.886 417.367 434.548C417.434 434.211 417.399 433.861 417.267 433.543C417.136 433.225 416.913 432.953 416.627 432.762C416.34 432.571 416.004 432.469 415.66 432.469C415.431 432.467 415.204 432.512 414.992 432.599C414.781 432.686 414.588 432.814 414.427 432.975C414.265 433.137 414.137 433.33 414.05 433.541C413.963 433.753 413.919 433.98 413.92 434.209Z" fill="#263238" stroke="#263238" stroke-linecap="round" stroke-linejoin="round"/>
<path d="M420.29 434.209C420.29 434.553 420.392 434.889 420.583 435.175C420.775 435.462 421.046 435.685 421.364 435.816C421.682 435.948 422.032 435.982 422.37 435.915C422.707 435.848 423.017 435.682 423.26 435.439C423.504 435.196 423.669 434.886 423.737 434.548C423.804 434.211 423.769 433.861 423.638 433.543C423.506 433.225 423.283 432.953 422.997 432.762C422.711 432.571 422.374 432.469 422.03 432.469C421.801 432.467 421.574 432.512 421.363 432.599C421.151 432.686 420.959 432.814 420.797 432.975C420.635 433.137 420.507 433.33 420.42 433.541C420.333 433.753 420.289 433.98 420.29 434.209Z" fill="#263238" stroke="#263238" stroke-linecap="round" stroke-linejoin="round"/>
<path d="M166.27 457.11C171.07 451.19 179.64 440.75 182.59 438.01C185.427 435.293 188.099 432.407 190.59 429.37C190.59 429.37 185.52 439.2 194.16 446.95C202.8 454.7 228.44 448.74 234.1 444.57C239.76 440.4 240.36 429.67 235.3 413.87C230.24 398.07 223.07 368.87 223.37 358.73C223.67 348.59 217.11 319.98 214.13 312.23C211.15 304.48 198.93 298.82 186.41 296.14C173.89 293.46 140.21 307.46 140.21 307.46L133.36 310.14C133.36 310.14 105.36 325.64 97.8902 331.9C90.4202 338.16 94.0102 355.45 92.2302 372.14C90.4502 388.83 90.4402 408.21 90.4402 408.21C90.4402 408.21 73.1502 423.41 60.6302 440.69C54.6302 449.01 51.1402 454.08 49.1602 457.11H166.27Z" fill="#485563" stroke="#263238" stroke-miterlimit="10"/>
<path d="M227.74 424.819C227.74 424.819 217.74 422.469 207.26 429.499C196.78 436.529 199.64 447.059 209.01 449.399C218.38 451.739 230.67 451.739 237.11 441.789C243.55 431.839 232.43 424.229 227.74 424.819Z" fill="white" stroke="#263238" stroke-miterlimit="10"/>
<path d="M230.23 424.729C224.625 423.839 218.892 425.151 214.23 428.389C206.01 433.869 208.29 442.099 215.6 443.929C222.91 445.759 232.51 445.759 237.54 437.989C242.57 430.219 233.88 424.279 230.23 424.729Z" fill="white" stroke="#263238" stroke-miterlimit="10"/>
<path d="M207.09 358.07C207.42 352.63 207.63 348.92 207.63 348.59" stroke="#263238" stroke-miterlimit="10"/>
<path d="M190.64 429.369C190.64 429.369 201.37 418.939 203.15 407.009C204.26 399.659 205.7 379.629 206.64 365.059" stroke="#263238" stroke-miterlimit="10"/>
<path d="M219.77 378.27C217.07 386.95 212.07 399.98 204.35 408.8" stroke="#263238" stroke-miterlimit="10"/>
<path d="M222.23 369.16C222.23 369.16 221.81 371.16 220.92 374.36" stroke="#263238" stroke-miterlimit="10"/>
<path d="M221.29 403.15C216.02 409.188 209.794 414.32 202.86 418.34" stroke="#263238" stroke-miterlimit="10"/>
<path d="M226.4 396.58C225.308 398.226 224.123 399.809 222.85 401.32" stroke="#263238" stroke-miterlimit="10"/>
<path d="M236.84 421.919C226.895 418.905 216.251 419.112 206.43 422.509C189.74 428.179 191.53 440.989 193.02 443.079" stroke="#263238" stroke-miterlimit="10"/>
<path d="M191.6 214.21C191.6 214.21 191.6 210.7 186.77 203.21C181.94 195.72 157.35 198.82 149.01 207.16C140.67 215.5 152.52 226.04 147.25 232.16C141.98 238.28 124.42 235.23 118.71 246.21C113 257.19 127.49 262.45 130.57 266.4C133.65 270.35 125.3 271.67 126.18 275.62C127.06 279.57 140.66 280.01 140.66 280.01C140.66 280.01 131.88 282.65 136.27 286.16C142.32 290.735 149.772 293.064 157.35 292.75C166.13 292.31 163.93 275.18 163.06 262.45C162.19 249.72 173.59 235.67 186.77 236.98C199.95 238.29 213.99 253.23 211.77 259.82C209.55 266.41 215.28 258.5 227.14 251.03C239 243.56 233.73 228.2 231.14 225.13C228.55 222.06 219.73 221.18 217.97 215.47C216.21 209.76 212.26 204.06 204.8 204.06C197.34 204.06 199.06 213.77 191.6 214.21Z" fill="#263238" stroke="#263238" stroke-miterlimit="10"/>
<path d="M154 293.149C154 293.149 148.34 294.639 146 297.629C143.66 300.619 134 305.999 133.41 310.139C132.82 314.279 136.41 335.779 143.54 344.419C150.67 353.059 154.27 353.659 154.27 353.659C154.27 353.659 156.36 345.319 157.85 344.719C159.34 344.119 173.05 352.719 173.05 352.719C173.05 352.719 175.43 338.719 176.93 338.719C178.43 338.719 183.18 343.489 183.18 343.489C183.18 343.489 184.97 331.559 183.78 322.319C182.59 313.079 174.84 301.759 169.18 297.879C163.52 293.999 159 290.469 154 293.149Z" fill="white" stroke="#263238" stroke-miterlimit="10"/>
<path d="M156.91 281.83L145.91 308.17C145.91 308.17 148.74 320.44 152.46 328.33C157.53 339.06 170.06 344.17 170.06 344.17C169.98 337.947 171.331 331.788 174.01 326.17C176.513 321.096 179.45 316.247 182.79 311.68C182.79 311.68 163.06 292.37 156.91 281.83Z" fill="white" stroke="#263238" stroke-miterlimit="10"/>
<path d="M159.75 291.819C159.75 291.819 164.8 320.689 172.02 329.709L178.87 316.709L160.87 288.559L159.75 291.819Z" fill="#263238" stroke="#263238" stroke-miterlimit="10"/>
<path d="M155.46 377.51C155.46 377.51 173.05 331.6 175.46 328.92C177.87 326.24 183.21 321.47 185.6 318.19C187.99 314.91 194.54 306.57 196.93 306.57C199.32 306.57 204.93 308.65 207.66 309.25C210.39 309.85 212.13 310.74 212.42 315.25C212.71 319.76 208.85 320.02 208.85 320.02L207.36 318.23C207.36 318.23 196.63 334.33 193.36 336.41C191.407 337.667 189.304 338.675 187.1 339.41L172.79 392.77L155.46 377.51Z" fill="white" stroke="#263238" stroke-miterlimit="10"/>
<path d="M217.5 244.389C217.5 244.389 221.67 247.869 218.89 259.669C216.11 271.469 215.42 277.379 215.42 284.329C215.42 291.279 213.34 300.999 207.42 307.249C201.5 313.499 194.23 322.529 185.55 322.179C171.8 321.629 165.06 302.729 160.55 294.049C156.04 285.369 155 273.559 155 268.699C155 263.839 155.69 252.379 161.94 243.699C168.19 235.019 185.21 231.549 192.5 232.589C199.79 233.629 208.82 234.669 217.5 244.389Z" fill="white" stroke="#263238" stroke-miterlimit="10"/>
<path d="M158.12 275.649C158.12 275.649 159.51 270.789 165.76 268.009C172.01 265.229 175.83 260.369 173.76 255.849C171.69 251.329 172.76 246.849 181.76 244.389C190.76 241.929 193.22 250.989 201.9 249.599C210.58 248.209 213.01 244.739 217.52 246.819C222.03 248.899 219.95 254.819 219.95 254.819C219.95 254.819 225.51 244.749 214.75 233.289C203.99 221.829 177.94 217.659 159.88 230.859C141.82 244.059 152.24 274.959 152.24 274.959C152.24 274.959 153.26 276.339 158.12 275.649Z" fill="#263238" stroke="#263238" stroke-miterlimit="10"/>
<path d="M201.53 281.549L200.49 301.689L193.19 298.909" stroke="#263238" stroke-miterlimit="10"/>
<path d="M196 309C196 309 189.06 310 185.93 305.18" stroke="#263238" stroke-miterlimit="10"/>
<path d="M188.31 281.339C187.99 283.339 186.88 284.799 185.84 284.629C184.8 284.459 184.22 282.709 184.54 280.719C184.86 278.729 185.97 277.259 187.01 277.429C188.05 277.599 188.63 279.349 188.31 281.339Z" fill="#263238"/>
<path d="M210.56 281.9C210.24 283.9 209.13 285.36 208.09 285.19C207.05 285.02 206.46 283.27 206.79 281.29C207.12 279.31 208.22 277.82 209.26 277.99C210.3 278.16 210.88 279.91 210.56 281.9Z" fill="#263238"/>
<path d="M179.44 272.269C179.44 272.269 186.91 265.759 192.93 270.819" stroke="#263238" stroke-width="2" stroke-miterlimit="10" stroke-linecap="round"/>
<path d="M205.7 270.82C205.7 270.82 210.76 266.49 215.1 270.58" stroke="#263238" stroke-width="2" stroke-miterlimit="10" stroke-linecap="round"/>
<path d="M197.75 276.61C197.75 276.61 187.15 274.92 170.75 277.61C170.75 277.61 169.31 288.69 177.02 293.51C184.73 298.33 192.2 293.75 194.12 291.1C198 285.82 197.75 276.61 197.75 276.61Z" stroke="#263238" stroke-width="2" stroke-miterlimit="10"/>
<path d="M222.08 275.089C222.08 275.089 214.5 273.479 202.78 276.009C202.78 276.009 201.78 286.609 207.26 291.209C212.74 295.809 218.12 291.439 219.5 288.909C222.22 283.899 222.08 275.089 222.08 275.089Z" stroke="#263238" stroke-width="2" stroke-miterlimit="10"/>
<path d="M197.75 276.61C197.75 276.61 198.89 273.49 202.75 276.01" stroke="#263238" stroke-width="2" stroke-miterlimit="10"/>
<path d="M154.62 271.059L170.76 277.569" stroke="#263238" stroke-width="2" stroke-miterlimit="10"/>
<path d="M159.51 277.379C159.51 277.379 157.08 263.149 150.51 270.089C143.94 277.029 149.82 283.979 152.94 287.089C156.06 290.199 159.94 287.089 159.94 287.089" fill="white"/>
<path d="M159.51 277.379C159.51 277.379 157.08 263.149 150.51 270.089C143.94 277.029 149.82 283.979 152.94 287.089C156.06 290.199 159.94 287.089 159.94 287.089" stroke="#263238" stroke-miterlimit="10"/>
<path d="M133.49 347.539C137.769 355.478 140.664 364.088 142.05 372.999C144.14 387.309 143.84 389.999 143.84 389.999L154.27 377.489C154.27 377.489 171.27 389.409 173.94 393.279C176.61 397.149 176.94 398.349 176.94 398.349C176.94 398.349 176.94 421.599 167.1 435.609C157.26 449.619 152.49 449.609 142.96 449.609C133.43 449.609 121.2 440.659 114.64 425.759C108.08 410.859 102.71 389.129 101.52 386.999C100.33 384.869 96.4502 372.999 96.4502 372.999" fill="#485563"/>
<path d="M133.49 347.539C137.769 355.478 140.664 364.088 142.05 372.999C144.14 387.309 143.84 389.999 143.84 389.999L154.27 377.489C154.27 377.489 171.27 389.409 173.94 393.279C176.61 397.149 176.94 398.349 176.94 398.349C176.94 398.349 176.94 421.599 167.1 435.609C157.26 449.619 152.49 449.609 142.96 449.609C133.43 449.609 121.2 440.659 114.64 425.759C108.08 410.859 102.71 389.129 101.52 386.999C100.33 384.869 96.4502 372.999 96.4502 372.999" stroke="#263238" stroke-miterlimit="10"/>
<path d="M129.58 407.49C128.49 408.77 127.58 409.84 126.85 410.59" stroke="#263238" stroke-miterlimit="10"/>
<path d="M143.84 390C143.84 390 138.27 397 133.27 403.05" stroke="#263238" stroke-miterlimit="10"/>
<path d="M145.33 388.529C151.813 390.4 158.025 393.106 163.81 396.579C173.94 402.579 174.81 409.099 177.81 406.719C180.81 404.339 183.17 396.879 180.19 392.719C177.21 388.559 167.97 378.719 161.42 375.719C154.87 372.719 152.18 374.519 150.09 378.999C148 383.479 143.24 385.849 145.33 388.529Z" fill="white" stroke="#263238" stroke-miterlimit="10"/>
<path d="M145 412.93C145.078 415.769 145.508 418.587 146.28 421.32" stroke="#263238" stroke-miterlimit="10"/>
<path d="M145.33 388.529C145.33 388.529 144.62 398.529 144.77 407.839" stroke="#263238" stroke-miterlimit="10"/>
<path d="M155.46 393.6C155.46 393.6 157.55 405.23 159.94 410.29" stroke="#263238" stroke-miterlimit="10"/>
<path d="M226.11 422.51C226.11 422.51 215.97 440.4 217.46 442.51C218.95 444.62 252.04 442.51 252.04 442.51L253.82 435.36C253.82 435.36 260.68 438.04 266.05 438.04C271.42 438.04 267.24 436.55 265.45 434.76C263.66 432.97 253.23 426.42 252.33 425.82C251.43 425.22 234.15 420.72 226.11 422.51Z" fill="white" stroke="#263238" stroke-miterlimit="10"/>
<path d="M247.7 420.45C247.7 420.45 252.49 419.01 253.77 422.05C255.05 425.09 254.41 438.05 253.93 441.37C253.45 444.69 251.22 444.56 250.26 441.37C249.3 438.18 247.06 420.93 247.06 420.93L247.7 420.45Z" fill="white" stroke="#263238" stroke-miterlimit="10"/>
<path d="M237.64 421.89C237.64 421.89 244.83 416.94 246.91 419.49C248.99 422.04 250.91 442.17 251.54 443.61C252.17 445.05 248.82 446.16 247.54 444.72C246.26 443.28 242.59 435.94 241.48 433.23C240.37 430.52 237.64 421.89 237.64 421.89Z" fill="white" stroke="#263238" stroke-miterlimit="10"/>
<path d="M223.43 427.32C223.43 427.32 227.43 419.97 230.78 417.9C234.13 415.83 237.78 419.65 239.56 422.53C241.34 425.41 242.75 432.91 243.56 436.58C244.37 440.25 246.56 444.4 245.32 444.88C244.08 445.36 239.09 441.21 237.65 438.98C236.21 436.75 232.7 428.12 232.7 428.12" fill="white"/>
<path d="M223.43 427.32C223.43 427.32 227.43 419.97 230.78 417.9C234.13 415.83 237.78 419.65 239.56 422.53C241.34 425.41 242.75 432.91 243.56 436.58C244.37 440.25 246.56 444.4 245.32 444.88C244.08 445.36 239.09 441.21 237.65 438.98C236.21 436.75 232.7 428.12 232.7 428.12" stroke="#263238" stroke-miterlimit="10"/>
<path d="M230 441.209C230 441.209 224.25 435.619 222.33 433.859C220.41 432.099 217.7 431.309 215.79 433.389C213.88 435.469 212.91 438.019 215.79 440.729C218.67 443.439 225.51 446.999 230 446.999C234.49 446.999 233.67 444.759 232.55 443.489C231.793 442.631 230.937 441.866 230 441.209Z" fill="white" stroke="#263238" stroke-miterlimit="10"/>
<path d="M173.09 457.01H382.64V451.02H173.09V457.01Z" fill="#B8B8B8" stroke="#263238" stroke-linecap="round" stroke-linejoin="round"/>
<path d="M173.09 457.01H246.65V451.02H173.09V457.01Z" fill="#263238" stroke="#263238" stroke-linecap="round" stroke-linejoin="round"/>
<path d="M240.72 451H376.78L384.64 360.51C384.748 359.516 384.643 358.51 384.332 357.559C384.021 356.608 383.512 355.735 382.838 354.996C382.163 354.257 381.339 353.67 380.421 353.275C379.502 352.879 378.51 352.683 377.51 352.7H257.06C254.936 352.741 252.901 353.558 251.338 354.997C249.776 356.436 248.794 358.397 248.58 360.51L240.72 451Z" fill="#263238" stroke="#263238" stroke-linecap="round" stroke-linejoin="round"/>
<path d="M243.33 451H379.39L387.25 360.51C387.358 359.516 387.253 358.51 386.942 357.559C386.632 356.608 386.122 355.735 385.448 354.996C384.774 354.257 383.95 353.67 383.031 353.275C382.112 352.879 381.12 352.683 380.12 352.7H259.67C257.546 352.741 255.511 353.558 253.949 354.997C252.386 356.436 251.405 358.397 251.19 360.51L243.33 451Z" fill="#B8B8B8" stroke="#263238" stroke-linecap="round" stroke-linejoin="round"/>
<path d="M312.27 399C312.504 396.69 313.577 394.547 315.285 392.975C316.993 391.403 319.219 390.512 321.54 390.47C322.632 390.451 323.716 390.664 324.72 391.096C325.723 391.529 326.624 392.169 327.36 392.976C328.097 393.783 328.654 394.738 328.993 395.776C329.333 396.815 329.448 397.914 329.33 399C329.095 401.309 328.022 403.453 326.314 405.025C324.606 406.597 322.381 407.488 320.06 407.53C318.967 407.549 317.883 407.336 316.879 406.903C315.876 406.471 314.976 405.83 314.239 405.024C313.502 404.217 312.945 403.262 312.606 402.224C312.266 401.185 312.152 400.086 312.27 399Z" fill="#263238" stroke="#263238" stroke-linecap="round" stroke-linejoin="round"/>
<path d="M486.03 457.01H17.4199" stroke="#263238" stroke-miterlimit="10"/>
<path d="M280.255 231.557C272.42 231.557 265.693 230.451 260.075 228.238C254.605 226.025 250.392 222.115 247.435 216.509C244.478 210.903 243 203.01 243 192.83V185.085C247.583 185.085 252.092 185.085 256.527 185.085C260.962 185.085 265.397 185.085 269.832 185.085V195.043C269.832 200.502 270.276 204.707 271.163 207.657C272.05 210.46 273.307 212.452 274.933 213.632C276.559 214.665 278.481 215.181 280.699 215.181C284.099 215.181 286.76 214.001 288.682 211.641C290.751 209.133 291.786 204.338 291.786 197.256C291.786 191.798 290.899 187.74 289.125 185.085C287.499 182.282 284.838 180.069 281.142 178.446C277.446 176.676 272.715 174.536 266.95 172.028C261.775 169.815 257.488 167.16 254.088 164.062C250.688 160.963 248.174 157.054 246.548 152.333C244.922 147.612 244.109 141.858 244.109 135.072C244.109 126.515 245.218 119.581 247.435 114.27C249.801 108.958 253.644 105.123 258.966 102.762C264.436 100.254 271.754 99 280.92 99C292.747 99 301.765 101.582 307.975 106.745C314.332 111.762 317.51 119.359 317.51 129.539V145.251C313.223 145.251 308.936 145.251 304.648 145.251C300.509 145.251 296.221 145.251 291.786 145.251V137.285C291.786 130.646 290.973 125.998 289.347 123.343C287.869 120.687 285.134 119.359 281.142 119.359C277.298 119.359 274.563 120.54 272.937 122.9C271.311 125.261 270.498 129.097 270.498 134.408C270.498 139.276 271.459 143.112 273.381 145.915C275.45 148.571 278.037 150.636 281.142 152.111C284.247 153.439 287.573 154.767 291.121 156.095C297.626 158.603 302.948 161.185 307.088 163.84C311.227 166.348 314.258 169.889 316.18 174.463C318.101 178.889 319.062 185.306 319.062 193.715C319.062 203.158 317.436 210.682 314.184 216.288C311.079 221.747 306.57 225.656 300.657 228.017C294.891 230.377 288.09 231.557 280.255 231.557ZM348.473 232C344.925 232 341.82 230.82 339.159 228.459C336.646 225.951 335.389 222.927 335.389 219.386C335.389 215.845 336.646 212.895 339.159 210.534C341.82 208.026 344.925 206.772 348.473 206.772C352.169 206.772 355.347 208.026 358.008 210.534C360.669 212.895 362 215.845 362 219.386C362 222.927 360.669 225.951 358.008 228.459C355.347 230.82 352.169 232 348.473 232Z" fill="url(#paint0_linear_2323_61)"/>
<defs>
<linearGradient id="paint0_linear_2323_61" x1="237.678" y1="204.718" x2="372.256" y2="170.258" gradientUnits="userSpaceOnUse">
<stop stop-color="#485563"/>
<stop offset="1" stop-color="#29323C"/>
</linearGradient>
</defs>
</svg>
