<svg width="500" height="500" viewBox="0 0 500 500" fill="none" xmlns="http://www.w3.org/2000/svg">
<path d="M78.1898 215.18H72.7698C66.9536 215.18 61.3757 217.49 57.263 221.603C53.1503 225.716 50.8398 231.293 50.8398 237.11V357.45C50.8398 363.266 53.1503 368.844 57.263 372.957C61.3757 377.069 66.9536 379.38 72.7698 379.38H147.13C152.946 379.38 158.524 377.069 162.637 372.957C166.749 368.844 169.06 363.266 169.06 357.45" stroke="#263238" stroke-width="1.10311" stroke-linecap="round" stroke-linejoin="round" stroke-dasharray="4.41 4.41"/>
<path d="M163 101.63V77.8597C163 74.303 164.411 70.8916 166.923 68.3738C169.435 65.8561 172.843 64.4376 176.4 64.4297H273.1C276.662 64.4297 280.078 65.8446 282.596 68.3632C285.115 70.8819 286.53 74.2978 286.53 77.8597" stroke="#263238" stroke-width="1.10311" stroke-linecap="round" stroke-linejoin="round" stroke-dasharray="4.41 4.41"/>
<path d="M250 472.161C355.774 472.161 441.52 460.18 441.52 445.401C441.52 430.621 355.774 418.641 250 418.641C144.226 418.641 58.48 430.621 58.48 445.401C58.48 460.18 144.226 472.161 250 472.161Z" fill="#263238"/>
<path opacity="0.5" d="M250 472.161C355.774 472.161 441.52 460.18 441.52 445.401C441.52 430.621 355.774 418.641 250 418.641C144.226 418.641 58.48 430.621 58.48 445.401C58.48 460.18 144.226 472.161 250 472.161Z" fill="white"/>
<path d="M430.54 133.52V313.58C430.54 319.466 428.202 325.112 424.041 329.275C419.88 333.438 414.236 335.778 408.35 335.78H91.65C85.7639 335.778 80.1198 333.438 75.9587 329.275C71.7975 325.112 69.46 319.466 69.46 313.58V133.52C69.46 132.99 69.46 132.52 69.53 131.96C69.9198 126.359 72.4195 121.114 76.5247 117.284C80.6299 113.453 86.0352 111.322 91.65 111.32H408.35C413.971 111.323 419.382 113.459 423.488 117.298C427.594 121.137 430.09 126.392 430.47 132C430.52 132.48 430.54 133 430.54 133.52Z" fill="white" stroke="#263238" stroke-width="1.10311" stroke-linecap="round" stroke-linejoin="round"/>
<path d="M80.2598 140.281H420.87V306.611C420.87 312.128 418.678 317.418 414.778 321.319C410.877 325.22 405.586 327.411 400.07 327.411H101.07C95.5533 327.411 90.2627 325.22 86.3619 321.319C82.4612 317.418 80.2698 312.128 80.2698 306.611V140.281H80.2598Z" fill="#263238"/>
<path opacity="0.2" d="M420.88 140.281V306.611C420.909 312.097 418.759 317.37 414.901 321.27C411.044 325.171 405.796 327.38 400.31 327.411H100.83C95.3444 327.38 90.096 325.171 86.2386 321.27C82.3813 317.37 80.2308 312.097 80.2601 306.611V140.281H420.88Z" fill="white"/>
<path d="M430.47 131.999H69.5298C69.9196 126.398 72.4193 121.153 76.5245 117.323C80.6298 113.492 86.035 111.361 91.6498 111.359H408.35C413.965 111.361 419.37 113.492 423.475 117.323C427.58 121.153 430.08 126.398 430.47 131.999Z" fill="#263238" stroke="#263238" stroke-width="1.10311" stroke-miterlimit="10"/>
<path d="M113.88 121.641C113.88 122.418 113.65 123.178 113.218 123.824C112.786 124.471 112.172 124.974 111.454 125.272C110.736 125.569 109.946 125.647 109.183 125.495C108.421 125.344 107.721 124.969 107.171 124.42C106.621 123.87 106.247 123.17 106.096 122.408C105.944 121.645 106.022 120.855 106.319 120.137C106.617 119.419 107.12 118.805 107.767 118.373C108.413 117.941 109.173 117.711 109.95 117.711C110.992 117.711 111.992 118.125 112.729 118.862C113.466 119.599 113.88 120.599 113.88 121.641Z" fill="#263238"/>
<path d="M130.5 121.641C130.5 122.418 130.27 123.178 129.838 123.824C129.406 124.471 128.792 124.974 128.074 125.272C127.356 125.569 126.566 125.647 125.803 125.495C125.041 125.344 124.341 124.969 123.791 124.42C123.242 123.87 122.867 123.17 122.716 122.408C122.564 121.645 122.642 120.855 122.939 120.137C123.237 119.419 123.74 118.805 124.387 118.373C125.033 117.941 125.793 117.711 126.57 117.711C127.612 117.711 128.612 118.125 129.349 118.862C130.086 119.599 130.5 120.599 130.5 121.641Z" fill="#263238"/>
<path d="M143.19 125.571C145.36 125.571 147.12 123.811 147.12 121.641C147.12 119.47 145.36 117.711 143.19 117.711C141.019 117.711 139.26 119.47 139.26 121.641C139.26 123.811 141.019 125.571 143.19 125.571Z" fill="#263238"/>
<path d="M420.87 140.281V306.611C420.87 312.128 418.679 317.418 414.778 321.319C410.877 325.22 405.587 327.411 400.07 327.411H101.07C96.2554 327.41 91.5902 325.739 87.87 322.683C84.1499 319.627 81.6052 315.374 80.67 310.651V310.591C80.4158 309.273 80.2886 307.934 80.2901 306.591V140.281H420.87Z" stroke="#263238" stroke-width="1.10311" stroke-miterlimit="10"/>
<path d="M420.55 166C419.092 165.181 417.541 164.54 415.93 164.09L414.06 155.74H406.12L404.27 164.09C402.65 164.532 401.092 165.174 399.63 166L392.46 161.41L386.85 167L391.36 174.17C390.534 175.632 389.893 177.191 389.45 178.81L381.1 180.66V188.6L389.45 190.47C389.888 192.098 390.53 193.664 391.36 195.13L386.77 202.35L392.39 207.96L399.6 203.37C401.059 204.198 402.614 204.843 404.23 205.29L406.09 213.63H414L415.86 205.29C417.472 204.839 419.023 204.194 420.48 203.37L420.85 203.61V165.8L420.55 166ZM410.11 195C408.08 195 406.096 194.398 404.409 193.27C402.721 192.143 401.406 190.54 400.63 188.664C399.854 186.789 399.651 184.725 400.048 182.735C400.445 180.744 401.423 178.916 402.859 177.482C404.295 176.047 406.124 175.071 408.115 174.676C410.105 174.281 412.169 174.486 414.043 175.264C415.918 176.042 417.52 177.359 418.646 179.047C419.772 180.736 420.372 182.721 420.37 184.75C420.37 186.097 420.105 187.431 419.589 188.675C419.073 189.919 418.317 191.05 417.364 192.002C416.412 192.954 415.28 193.708 414.036 194.223C412.791 194.737 411.457 195.002 410.11 195Z" fill="#263238"/>
<path d="M277.45 174.051V157.311L259.85 153.401C258.9 150 257.558 146.722 255.85 143.631L257.98 140.281H174.88L176.93 143.541C175.201 146.618 173.858 149.896 172.93 153.301L155.32 157.221V174.001L172.93 177.931C173.858 181.362 175.201 184.666 176.93 187.771L167.26 202.981L179.11 214.821L194.31 205.141C197.393 206.876 200.673 208.236 204.08 209.191L208 226.741H224.7L228.64 209.151C232.035 208.191 235.305 206.831 238.38 205.101L253.59 214.781L265.43 202.941L255.82 187.731C257.523 184.646 258.866 181.374 259.82 177.981L277.45 174.051ZM216.45 187.311C212.172 187.311 207.99 186.043 204.433 183.666C200.876 181.289 198.103 177.911 196.466 173.959C194.829 170.006 194.401 165.657 195.235 161.461C196.07 157.266 198.13 153.412 201.155 150.387C204.18 147.362 208.034 145.301 212.23 144.467C216.426 143.632 220.775 144.061 224.727 145.698C228.68 147.335 232.058 150.107 234.435 153.664C236.811 157.221 238.08 161.403 238.08 165.681C238.081 168.522 237.523 171.335 236.436 173.96C235.349 176.585 233.756 178.97 231.747 180.979C229.739 182.988 227.354 184.581 224.729 185.667C222.104 186.754 219.291 187.313 216.45 187.311Z" fill="#263238"/>
<path d="M166.38 289L167.09 275.71L153.32 271.83C152.681 269.099 151.735 266.449 150.5 263.93L158.82 252.25L149.9 242.36L137.44 249.36C135.058 247.862 132.511 246.643 129.85 245.73L127.47 231.61L114.19 231L110.35 244.81C107.614 245.424 104.961 246.364 102.45 247.61L90.7798 239.3L80.8698 248.21L87.9298 260.68C86.4162 263.051 85.1941 265.596 84.2898 268.26L80.2898 268.92V286.92L83.2098 287.74C83.8156 290.48 84.7524 293.136 85.9998 295.65L80.2598 303.7L80.6398 310.59V310.65L86.5698 317.22L99.0498 310.17C101.427 311.699 103.983 312.932 106.66 313.84L109 327.4L109.11 327.97L122.39 328.67L122.74 327.4L126.23 314.87C128.978 314.255 131.643 313.315 134.17 312.07L145.82 320.37L155.72 311.47L148.72 298.99C150.219 296.622 151.425 294.08 152.31 291.42L166.38 289ZM131.11 268.25C128.835 265.72 125.861 263.921 122.564 263.081C119.266 262.242 115.794 262.399 112.586 263.533C109.378 264.667 106.579 266.727 104.542 269.452C102.505 272.178 101.322 275.446 101.143 278.844C100.964 282.242 101.796 285.616 103.535 288.541C105.275 291.465 107.842 293.808 110.913 295.273C113.984 296.738 117.42 297.26 120.787 296.771C124.155 296.283 127.302 294.807 129.83 292.53C133.205 289.48 135.235 285.217 135.475 280.674C135.715 276.131 134.145 271.678 131.11 268.29V268.25Z" fill="#263238"/>
<path d="M272.6 269.19C273.114 267.132 273.386 265.021 273.41 262.9L282.96 257.9L280.32 248.21L269.54 248.71C268.448 246.899 267.149 245.221 265.67 243.71L268.86 233.4L260.16 228.4L252.88 236.34C250.825 235.844 248.723 235.576 246.61 235.54L241.61 225.99L231.93 228.62L232.44 239.41C230.629 240.502 228.951 241.801 227.44 243.28L217.12 240.09L212.12 248.78L220.12 256.05C219.602 258.1 219.337 260.206 219.33 262.32L209.76 267.32L212.4 277L223.2 276.49C224.27 278.311 225.564 279.99 227.05 281.49L223.84 291.75L232.55 296.75L239.79 288.87C241.847 289.388 243.959 289.653 246.08 289.66L251.08 299.22L260.76 296.59L260.33 287.37L260.26 285.79C262.096 284.709 263.795 283.41 265.32 281.92L275.63 285.12L279.89 277.68L280.61 276.42L272.6 269.19ZM249.73 275.07C247.247 275.755 244.618 275.687 242.174 274.875C239.73 274.063 237.583 272.543 236.004 270.509C234.425 268.475 233.486 266.017 233.306 263.449C233.125 260.88 233.712 258.316 234.991 256.081C236.27 253.846 238.184 252.041 240.49 250.895C242.796 249.75 245.391 249.315 247.944 249.646C250.498 249.977 252.896 251.059 254.834 252.754C256.772 254.45 258.163 256.683 258.83 259.17C259.719 262.485 259.261 266.017 257.556 268.996C255.852 271.974 253.038 274.158 249.73 275.07Z" fill="#263238"/>
<path d="M383.32 286.23L385.52 272.93L372.06 267.52C371.754 264.685 371.106 261.898 370.13 259.22L379.82 248.43L371.98 237.43L358.62 243.1C356.402 241.322 353.978 239.818 351.4 238.62L350.62 224.13L337.32 221.93L331.87 235.33C329.048 235.661 326.273 236.316 323.6 237.28L312.78 227.59L301.83 235.43L307.51 248.78C305.946 250.731 304.589 252.839 303.46 255.07C303.31 255.38 303.15 255.69 303.01 256L288.53 256.8L286.32 270.08L288.5 270.96L299.78 275.51C300.088 278.331 300.736 281.104 301.71 283.77L292 294.63L299.85 305.63L313.2 299.93C315.411 301.724 317.832 303.241 320.41 304.45L321.16 318.87L334.45 321.07L339.89 307.77C342.718 307.461 345.499 306.809 348.17 305.83L358.97 315.52L369.97 307.67L364.29 294.31C366.099 292.09 367.627 289.654 368.84 287.06L383.32 286.23ZM346.02 285.63C343.222 287.637 339.891 288.77 336.45 288.884C333.008 288.999 329.61 288.09 326.684 286.273C323.759 284.456 321.438 281.812 320.016 278.676C318.593 275.54 318.132 272.053 318.692 268.655C319.251 265.257 320.806 262.102 323.159 259.587C325.512 257.073 328.558 255.313 331.912 254.53C335.265 253.747 338.775 253.976 341.999 255.188C345.222 256.4 348.013 258.541 350.02 261.34C352.708 265.094 353.794 269.762 353.04 274.317C352.286 278.872 349.754 282.942 346 285.63H346.02Z" fill="#263238"/>
<path d="M203.08 187.77H98.5001C91.2597 187.77 85.3901 193.639 85.3901 200.88V345.67C85.3901 352.91 91.2597 358.78 98.5001 358.78H203.08C210.321 358.78 216.19 352.91 216.19 345.67V200.88C216.19 193.639 210.321 187.77 203.08 187.77Z" fill="#263238" stroke="#263238" stroke-width="1.10311" stroke-miterlimit="10"/>
<path opacity="0.2" d="M203.08 187.77H98.5001C91.2597 187.77 85.3901 193.639 85.3901 200.88V345.67C85.3901 352.91 91.2597 358.78 98.5001 358.78H203.08C210.321 358.78 216.19 352.91 216.19 345.67V200.88C216.19 193.639 210.321 187.77 203.08 187.77Z" fill="black"/>
<path d="M228.36 213.799V358.589C228.362 360.312 228.024 362.018 227.365 363.609C226.707 365.201 225.742 366.648 224.524 367.866C223.307 369.085 221.861 370.051 220.27 370.711C218.678 371.37 216.973 371.709 215.25 371.709H110.67C108.949 371.708 107.244 371.368 105.654 370.708C104.064 370.048 102.62 369.081 101.403 367.863C100.187 366.644 99.2221 365.198 98.5644 363.607C97.9068 362.016 97.569 360.311 97.5703 358.589V213.799C97.5703 210.324 98.9502 206.991 101.407 204.533C103.863 202.075 107.195 200.692 110.67 200.689H215.25C218.727 200.689 222.062 202.071 224.52 204.529C226.979 206.988 228.36 210.322 228.36 213.799Z" fill="white" stroke="#263238" stroke-width="1.10311" stroke-linecap="round" stroke-linejoin="round"/>
<path d="M228.36 213.799V221.549H97.5703V213.799C97.5703 210.324 98.9502 206.991 101.407 204.533C103.863 202.075 107.195 200.692 110.67 200.689H215.25C218.727 200.689 222.062 202.071 224.52 204.529C226.979 206.988 228.36 210.322 228.36 213.799Z" fill="#263238" stroke="#263238" stroke-width="1.10311" stroke-miterlimit="10"/>
<path d="M142.05 230.531H109.87V235.931H142.05V230.531Z" fill="#263238"/>
<path d="M142.05 278.92H109.87V284.32H142.05V278.92Z" fill="#263238"/>
<path d="M142.05 322.801H109.87V328.201H142.05V322.801Z" fill="#263238"/>
<path d="M201.26 243.9H109.87V247.86H201.26V243.9Z" fill="#263238"/>
<path d="M184.78 251.471H109.87V255.331H184.78V251.471Z" fill="#263238"/>
<path d="M194.59 258.92H109.87V262.78H194.59V258.92Z" fill="#263238"/>
<path d="M194.59 266.361H109.87V270.221H194.59V266.361Z" fill="#263238"/>
<path d="M201.26 287.781H109.87V291.741H201.26V287.781Z" fill="#263238"/>
<path d="M184.78 295.35H109.87V299.21H184.78V295.35Z" fill="#263238"/>
<path d="M194.59 302.801H109.87V306.661H194.59V302.801Z" fill="#263238"/>
<path d="M201.26 335.961H109.87V339.921H201.26V335.961Z" fill="#263238"/>
<path d="M184.78 343.541H109.87V347.401H184.78V343.541Z" fill="#263238"/>
<path d="M194.59 350.99H109.87V354.85H194.59V350.99Z" fill="#263238"/>
<path d="M375.77 100.29V158.81C375.77 160.864 375.365 162.897 374.579 164.794C373.793 166.691 372.641 168.414 371.188 169.866C369.736 171.318 368.012 172.469 366.114 173.254C364.217 174.038 362.183 174.442 360.13 174.44H225.35C223.297 174.442 221.263 174.038 219.366 173.254C217.468 172.469 215.744 171.318 214.291 169.866C212.839 168.414 211.687 166.691 210.901 164.794C210.115 162.897 209.71 160.864 209.71 158.81V100.29C209.713 96.1432 211.361 92.1667 214.294 89.2342C217.226 86.3017 221.203 84.653 225.35 84.6504H360.13C364.278 84.6504 368.256 86.2982 371.189 89.2312C374.122 92.1643 375.77 96.1424 375.77 100.29Z" fill="white" stroke="#222221" stroke-width="1.10311" stroke-miterlimit="10"/>
<path d="M375.77 100.29V101.63H209.71V100.29C209.713 96.1432 211.361 92.1667 214.294 89.2342C217.226 86.3017 221.203 84.653 225.35 84.6504H360.13C364.278 84.6504 368.256 86.2982 371.189 89.2312C374.122 92.1643 375.77 96.1424 375.77 100.29Z" fill="#263238" stroke="#263238" stroke-width="1.10311" stroke-miterlimit="10"/>
<path d="M234.11 95.9407C233.775 96.2769 233.347 96.5061 232.882 96.5992C232.416 96.6922 231.933 96.6451 231.494 96.4636C231.055 96.2821 230.68 95.9745 230.416 95.5797C230.152 95.1849 230.011 94.7206 230.011 94.2457C230.011 93.7708 230.152 93.3065 230.416 92.9117C230.68 92.5169 231.055 92.2093 231.494 92.0278C231.933 91.8464 232.416 91.7992 232.882 91.8922C233.347 91.9853 233.775 92.2145 234.11 92.5507C234.557 93.0019 234.807 93.611 234.807 94.2457C234.807 94.8804 234.557 95.4895 234.11 95.9407Z" fill="#263238"/>
<path d="M245.23 95.9407C244.895 96.2769 244.467 96.5061 244.001 96.5992C243.536 96.6922 243.053 96.6451 242.614 96.4636C242.175 96.2821 241.8 95.9745 241.536 95.5797C241.272 95.1849 241.131 94.7206 241.131 94.2457C241.131 93.7708 241.272 93.3065 241.536 92.9117C241.8 92.5169 242.175 92.2093 242.614 92.0278C243.053 91.8464 243.536 91.7992 244.001 91.8922C244.467 91.9853 244.895 92.2145 245.23 92.5507C245.676 93.0019 245.927 93.611 245.927 94.2457C245.927 94.8804 245.676 95.4895 245.23 95.9407Z" fill="#263238"/>
<path d="M256.35 95.9407C256.015 96.2769 255.587 96.5061 255.121 96.5992C254.656 96.6922 254.173 96.6451 253.734 96.4636C253.295 96.2821 252.92 95.9745 252.656 95.5797C252.392 95.1849 252.251 94.7206 252.251 94.2457C252.251 93.7708 252.392 93.3065 252.656 92.9117C252.92 92.5169 253.295 92.2093 253.734 92.0278C254.173 91.8464 254.656 91.7992 255.121 91.8922C255.587 91.9853 256.015 92.2145 256.35 92.5507C256.797 93.0019 257.047 93.611 257.047 94.2457C257.047 94.8804 256.797 95.4895 256.35 95.9407Z" fill="#263238"/>
<path d="M345.43 112.391H282.96V115.691H345.43V112.391Z" fill="#263238"/>
<path d="M330.88 119.221H282.96V122.511H330.88V119.221Z" fill="#263238"/>
<path d="M354.31 126.02H282.96V129.35H354.31V126.02Z" fill="#263238"/>
<path d="M343.72 132.65H282.96V135.98H343.72V132.65Z" fill="#263238"/>
<path d="M380.31 245.531H349.76C346.154 245.531 343.23 248.455 343.23 252.061V269.991C343.23 273.598 346.154 276.521 349.76 276.521H380.31C383.916 276.521 386.84 273.598 386.84 269.991V252.061C386.84 248.455 383.916 245.531 380.31 245.531Z" fill="white" stroke="#263238" stroke-width="1.10311" stroke-linecap="round" stroke-linejoin="round"/>
<path d="M357.3 254.85L348.91 260.11L356.7 267.01" stroke="#263238" stroke-width="1.10311" stroke-linecap="round" stroke-linejoin="round"/>
<path d="M372.58 267.511L380.12 261.091L371.42 255.391" stroke="#263238" stroke-width="1.10311" stroke-linecap="round" stroke-linejoin="round"/>
<path d="M361.38 271.471L367.57 252.051" stroke="#263238" stroke-width="1.10311" stroke-linecap="round" stroke-linejoin="round"/>
<path d="M296.86 440.471C296.86 440.471 267.86 448.781 263.81 450.221C260.13 451.521 250.15 455.021 242.66 453.931C241.937 453.827 241.222 453.674 240.52 453.471C232.93 451.211 229.52 449.101 228.52 444.331C227.52 439.561 231.3 436.041 234.94 433.791C238.58 431.541 258.32 429.191 258.32 429.191L263.09 430.591L296.86 440.471Z" fill="#263238"/>
<path d="M242.66 453.931C241.937 453.827 241.222 453.674 240.52 453.471C232.93 451.211 229.52 449.101 228.52 444.331C227.52 439.561 231.3 436.041 234.94 433.791C238.58 431.541 258.32 429.191 258.32 429.191L263.09 430.591C258.77 432.591 242.69 433.681 239.18 435.701C235.67 437.721 233.98 441.521 236.05 446.701C237.16 449.401 240.12 452.051 242.66 453.931Z" fill="white"/>
<path d="M292.5 441.651C292.5 441.651 270.72 447.291 262.08 450.901C253.44 454.511 236.97 456.091 231.08 448.651C225.19 441.211 230.4 434.791 236.27 433.361C242.14 431.931 254.01 429.681 260.49 430.591" stroke="#263238" stroke-width="1.10311" stroke-linecap="round" stroke-linejoin="round"/>
<path d="M243.09 453.54C243.09 453.54 232.01 447.46 235.69 438.94C238.41 432.66 253.19 434.02 260.51 430.59" stroke="#263238" stroke-width="1.10311" stroke-linecap="round" stroke-linejoin="round"/>
<path d="M385.19 455.28C384.89 458.28 383.84 461.09 380.84 462.86C378.84 464.04 376 464.74 371.93 464.7C361.76 464.57 342.64 457.3 342.64 457.3L324.74 447.4L334.05 432.67L336.6 428.67L343.18 430.15C343.18 430.15 348.63 433.24 354.11 435.7C359.59 438.16 372.9 438.7 377.59 442.47C382.28 446.24 385.7 450.34 385.19 455.28Z" fill="#263238"/>
<path d="M385.19 455.28C384.89 458.28 383.84 461.09 380.84 462.86C381.704 459.911 381.527 456.754 380.34 453.92C378.34 449.43 371.83 445.47 363.27 444.81C354.71 444.15 348.16 440.15 344.73 438.36C342.05 436.97 336.4 433.93 334.05 432.67L336.6 428.67L343.18 430.15C343.18 430.15 348.63 433.24 354.11 435.7C359.59 438.16 372.9 438.7 377.59 442.47C382.28 446.24 385.7 450.34 385.19 455.28Z" fill="white"/>
<path d="M328.71 450.18C341.595 457.67 355.836 462.534 370.61 464.49C373.87 464.88 377.66 464.94 379.84 462.49C380.42 461.783 380.852 460.966 381.109 460.088C381.367 459.21 381.446 458.289 381.34 457.38C380.95 452.78 377.08 449.14 372.84 447.31C368.6 445.48 363.93 445.06 359.42 444.05C354.935 443.039 350.599 441.453 346.52 439.33C343.28 437.64 340.15 435.59 336.58 434.83C333.01 434.07 328.76 434.99 326.85 438.11" stroke="#263238" stroke-width="1.10311" stroke-linecap="round" stroke-linejoin="round"/>
<path d="M378.64 463.74C380.316 462.938 381.78 461.755 382.918 460.286C384.055 458.817 384.833 457.103 385.19 455.28C385.84 450.95 383.37 446.59 379.9 443.93C376.43 441.27 372.08 440.01 367.79 439.12C363.5 438.23 359.11 437.63 355 436C348.73 433.54 342.54 428.7 336 430.43" stroke="#263238" stroke-width="1.10311" stroke-linecap="round" stroke-linejoin="round"/>
<path d="M348.91 295.261L318.62 283.741L318.24 283.591C318.24 283.591 318.35 282.791 318.44 281.591C318.63 279.171 318.73 275.231 317.59 273.901C315.9 271.901 311.12 273.581 306.45 271.441C301.78 269.301 293.15 273.131 293.15 273.131C293.15 273.131 286.91 271.981 284.15 276.481C282.75 280.111 283.23 285.481 283.23 285.481L282.66 285.681C279.05 287.031 259.41 294.421 255.26 297.391C250.67 300.641 245.59 334.011 243.96 343.811C242.33 353.611 239.43 362.441 240.9 365.811C242.37 369.181 263.47 385.431 275.61 389.621C287.75 393.811 330.8 392.621 330.8 392.621C330.8 392.621 331.5 392.431 332.75 392.031C340.03 389.691 365.86 380.031 379.57 357.351C379.59 357.391 366.31 313.861 348.91 295.261ZM267.07 351.391C264.84 352.971 266.07 359.091 266.07 359.091L262.28 355.751L271.8 332.341L275.86 350.341C275.86 350.341 269.3 349.821 267.07 351.391ZM343.23 366.261C342.18 366.801 346.23 355.551 344.31 353.001C342.39 350.451 336.6 350.691 336.6 350.691L337.09 347.621L340.52 330.021L341.66 328.671C341.66 328.671 353.44 348.861 355.55 355.981C355.55 356.001 342.71 366.261 343.23 366.261Z" fill="#263238"/>
<path d="M291.72 222.25L276.08 238.85C276.08 238.85 273.93 240.76 274.78 245.57C275.63 250.38 277.63 254.57 279.14 254.85C280.335 255.059 281.546 255.166 282.76 255.17C282.76 255.17 286.11 262.43 288.49 265.28C288.49 265.28 289.31 276.49 288.87 279.6C288.87 279.6 294.49 284.51 299.78 285.13C305.07 285.75 313.24 277.65 313.24 277.65L315.24 267.73C315.24 267.73 320.04 260.45 320.36 258.51C320.68 256.57 322.88 257.07 323.96 256.11C325.04 255.15 327.53 250.88 327.96 246.84C328.39 242.8 328.4 238.16 323.71 239.52C319.64 238.43 322.19 229.83 322.19 229.83L315.04 223.53L291.72 222.25Z" fill="white"/>
<path opacity="0.5" d="M318.62 283.741C318.384 284.359 318.114 284.964 317.81 285.551C315.23 290.411 303.99 299.681 303.99 299.681L300.59 289.231L298.73 299.681C294.98 298.041 283.54 288.131 283.54 288.131C283.54 288.131 283.15 287.201 282.68 285.751L283.25 285.551C283.25 285.551 282.77 280.141 284.17 276.551C286.91 272.051 293.17 273.201 293.17 273.201C293.17 273.201 301.8 269.371 306.47 271.511C311.14 273.651 315.92 271.991 317.61 273.971C319.3 275.951 318.26 283.631 318.26 283.631L318.62 283.741Z" fill="white"/>
<path opacity="0.2" d="M348.91 295.26L318.62 283.74L318.24 283.59C318.24 283.59 318.35 282.79 318.44 281.59L317.81 285.52L313.33 291.6C318.119 293.363 322.795 295.42 327.33 297.76C329.501 298.923 331.273 300.712 332.414 302.895C333.555 305.078 334.014 307.553 333.73 310L328.15 357.75L325.86 384.86L332.77 392.03C340.05 389.69 365.88 380.03 379.59 357.35C379.59 357.39 366.31 313.86 348.91 295.26ZM343.23 366.26C342.18 366.8 346.23 355.55 344.31 353C342.39 350.45 336.6 350.69 336.6 350.69L337.09 347.62L340.52 330.02L341.66 328.67C341.66 328.67 353.44 348.86 355.55 355.98C355.55 356 342.71 366.26 343.23 366.26Z" fill="black"/>
<path opacity="0.2" d="M277.87 353L273.16 337.26C273.16 337.26 264.71 308.45 258.92 301.35L260.44 321.61C260.44 321.61 255.44 345.81 250.87 353C246.3 360.19 245.28 362 250.87 362C256.46 362 270.07 372.84 270.07 372.84L269.02 363.84L277.87 353ZM266 359.09L262.21 355.75L271.73 332.34L275.79 350.34C275.79 350.34 269.27 349.85 267.04 351.42C264.81 352.99 266 359.09 266 359.09Z" fill="black"/>
<path d="M288.49 265.281C288.49 265.281 289.35 273.771 288.49 277.651" stroke="#263238" stroke-width="1.10311" stroke-linecap="round" stroke-linejoin="round"/>
<path d="M314.11 276.51C314.119 273.78 314.434 271.06 315.05 268.4" stroke="#263238" stroke-width="1.10311" stroke-linecap="round" stroke-linejoin="round"/>
<path d="M316.38 228.58C316.38 228.58 321.52 235.03 321.25 239.91C320.98 244.79 320.6 250.57 320.73 256.23C320.86 261.89 311.64 273.75 306.9 274.8C302.16 275.85 298.08 276.12 295.05 273.09C292.02 270.06 288.99 265.85 285.05 260.45C281.11 255.05 282.05 243.2 282.05 243.2" stroke="#263238" stroke-width="1.10311" stroke-linecap="round" stroke-linejoin="round"/>
<path d="M304 247.711C303.687 249.483 303.553 251.282 303.6 253.081C303.497 254.597 303.968 256.096 304.92 257.281C305.49 257.861 306.31 258.331 306.42 259.131C306.417 259.491 306.317 259.844 306.13 260.152C305.944 260.46 305.678 260.712 305.36 260.881C304.718 261.204 304.1 261.572 303.51 261.981" stroke="#263238" stroke-width="1.10311" stroke-linecap="round" stroke-linejoin="round"/>
<path d="M295.87 262.6C295.87 262.6 296.46 266.43 301.59 267.23" stroke="#263238" stroke-width="1.10311" stroke-linecap="round" stroke-linejoin="round"/>
<path d="M296.4 250.631C296.4 251.741 295.92 252.631 295.33 252.631C294.74 252.631 294.26 251.741 294.26 250.631C294.26 249.521 294.74 248.631 295.33 248.631C295.92 248.631 296.4 249.531 296.4 250.631Z" fill="#263238"/>
<path d="M311.71 251.111C311.71 252.221 311.23 253.111 310.64 253.111C310.05 253.111 309.57 252.211 309.57 251.111C309.57 250.011 310.05 249.111 310.64 249.111C311.23 249.111 311.71 250.001 311.71 251.111Z" fill="#263238"/>
<path d="M308.62 246.261C308.62 246.261 313.62 241.261 317.81 246.841" stroke="#263238" stroke-width="2.20621" stroke-linecap="round" stroke-linejoin="round"/>
<path d="M298.09 246.36C298.09 246.36 294.93 242.82 289.95 246.36" stroke="#263238" stroke-width="2.20621" stroke-linecap="round" stroke-linejoin="round"/>
<path d="M288.87 270C288.87 270 291.92 278.4 298.73 280.79C305.54 283.18 314.58 270.79 314.58 270.79L314.11 269.18C314.11 269.18 308.18 276.88 301.59 275.57C295 274.26 288.49 265.32 288.49 265.32L288.87 270Z" fill="#263238"/>
<path d="M282.76 254.85C282.76 254.85 278.7 256.28 277.62 253.12C276.54 249.96 272.84 241.63 276.08 238.85C279.32 236.07 281.92 242.52 281.92 242.52" stroke="#263238" stroke-width="1.10311" stroke-linecap="round" stroke-linejoin="round"/>
<path d="M320.72 256.571C320.72 256.571 324.49 257.331 325.57 254.171C326.65 251.011 330.35 242.681 327.11 239.901C323.87 237.121 321.27 243.571 321.27 243.571" stroke="#263238" stroke-width="1.10311" stroke-linecap="round" stroke-linejoin="round"/>
<path d="M281.92 250.631C283.33 250.408 284.603 249.657 285.48 248.531C286.016 247.541 286.355 246.458 286.48 245.341C286.851 243.214 287.039 241.059 287.04 238.901C286.996 238.057 287.074 237.212 287.27 236.391C287.57 235.564 288.033 234.806 288.63 234.161C290.04 232.501 291.75 231.101 293.1 229.381C293.824 228.569 294.374 227.618 294.718 226.587C295.062 225.555 295.192 224.464 295.1 223.381C298.194 225.931 301.809 227.773 305.691 228.777C309.573 229.781 313.628 229.922 317.57 229.191C324.72 227.791 331.57 221.521 330.74 213.641C330.583 212.319 330.017 211.08 329.12 210.098C328.223 209.115 327.041 208.437 325.74 208.161C322.21 207.281 319.04 209.161 315.84 210.371C310.01 212.571 304.3 208.791 298.41 208.161C293.41 207.611 287.18 208.241 284.56 213.251C284.56 213.251 275.56 214.311 271.56 221.751C267.56 229.191 275.13 239.481 275.13 239.481C275.13 239.481 278.13 235.801 282.06 243.241L281.92 250.631Z" fill="#263238"/>
<path d="M317 226.681C317 226.681 314.66 238.881 320.77 244.791C320.77 244.791 322.11 241.121 323.46 240.221C324.433 238.056 324.845 235.68 324.658 233.314C324.471 230.947 323.691 228.666 322.39 226.681C317.87 219.581 317 226.681 317 226.681Z" fill="#263238"/>
<path opacity="0.2" d="M328.14 212.801C327.603 214.465 326.694 215.986 325.481 217.245C324.268 218.505 322.783 219.472 321.14 220.071C312.66 223.531 304.43 219.701 295.93 218.951C289 218.331 281.35 224.591 280.86 231.711" stroke="white" stroke-width="1.10311" stroke-linecap="round" stroke-linejoin="round"/>
<path opacity="0.2" d="M275.63 229.83C275.734 227.02 276.635 224.298 278.229 221.982C279.823 219.666 282.043 217.851 284.63 216.75" stroke="white" stroke-width="1.10311" stroke-linecap="round" stroke-linejoin="round"/>
<path d="M286.53 276.51C290.259 280.396 294.758 283.461 299.74 285.51C299.74 285.51 309.89 282.56 315.05 275.51" stroke="#263238" stroke-width="1.10311" stroke-linecap="round" stroke-linejoin="round"/>
<path d="M296.903 258.772C301.41 256.704 303.389 251.374 301.321 246.866C299.253 242.358 293.923 240.38 289.415 242.448C284.907 244.515 282.929 249.846 284.996 254.354C287.064 258.862 292.395 260.84 296.903 258.772Z" stroke="#263238" stroke-width="1.10311" stroke-linecap="round" stroke-linejoin="round"/>
<path d="M314.304 259.564C319.227 258.959 322.727 254.479 322.123 249.556C321.518 244.634 317.038 241.133 312.115 241.738C307.193 242.342 303.692 246.823 304.297 251.745C304.901 256.668 309.381 260.168 314.304 259.564Z" stroke="#263238" stroke-width="1.10311" stroke-linecap="round" stroke-linejoin="round"/>
<path d="M288.49 273.16C287.58 273.399 286.728 273.819 285.984 274.394C285.24 274.97 284.62 275.689 284.16 276.51C282.57 279.31 283.53 288.12 283.53 288.12C283.53 288.12 291.74 296.24 298.73 299.67L300.79 288.08L303.99 299.67C303.99 299.67 314.81 292.02 317.81 285.55C317.81 285.55 318.81 278 317.81 275.55C317.583 274.87 317.15 274.276 316.571 273.852C315.993 273.427 315.297 273.193 314.58 273.18" stroke="#263238" stroke-width="1.10311" stroke-linecap="round" stroke-linejoin="round"/>
<path d="M275.63 350.7C275.63 350.7 272.42 329.2 268.15 320.43" stroke="#263238" stroke-width="1.10311" stroke-linecap="round" stroke-linejoin="round"/>
<path d="M258.92 301.35C261.406 304.883 263.625 308.597 265.56 312.46" stroke="#263238" stroke-width="1.10311" stroke-linecap="round" stroke-linejoin="round"/>
<path d="M343.23 317.4C344.092 313.805 345.273 310.295 346.76 306.91" stroke="#263238" stroke-width="1.10311" stroke-linecap="round" stroke-linejoin="round"/>
<path d="M336.6 350.7C336.6 350.7 338.91 335.96 341.67 323.82" stroke="#263238" stroke-width="1.10311" stroke-linecap="round" stroke-linejoin="round"/>
<path d="M340.52 330.001C342.753 327.04 345.892 324.891 349.46 323.881" stroke="#263238" stroke-width="1.10311" stroke-linecap="round" stroke-linejoin="round"/>
<path d="M318.25 283.59C318.25 283.59 336.88 291.04 348.91 295.27C348.91 295.27 363.71 309.18 379.58 357.39C379.58 357.39 365.04 381.85 337.38 389.69" stroke="#263238" stroke-width="1.10311" stroke-linecap="round" stroke-linejoin="round"/>
<path d="M342.18 367.131L355.55 356.001C355.55 356.001 362.62 350.631 369.97 354.301" stroke="#263238" stroke-width="1.10311" stroke-linecap="round" stroke-linejoin="round"/>
<path d="M341.67 328.67C341.67 328.67 352.72 345 355.55 356" stroke="#263238" stroke-width="1.10311" stroke-linecap="round" stroke-linejoin="round"/>
<path d="M266.15 359.71L262.24 356C262.24 356 256.44 355 249.86 359.39" stroke="#263238" stroke-width="1.10311" stroke-linecap="round" stroke-linejoin="round"/>
<path d="M262.24 356.001C262.24 356.001 267.1 340.001 271.89 331.811" stroke="#263238" stroke-width="1.10311" stroke-linecap="round" stroke-linejoin="round"/>
<path d="M283.25 285.551C283.25 285.551 256.44 295.611 253.81 298.551C251.18 301.491 241.19 357.741 240.92 364.181C240.69 369.941 261.57 382.871 271.92 388.321" stroke="#263238" stroke-width="1.10311" stroke-linecap="round" stroke-linejoin="round"/>
<path d="M303.3 304.561C303.3 304.911 303.196 305.253 303.001 305.544C302.807 305.835 302.531 306.062 302.207 306.196C301.884 306.33 301.528 306.365 301.184 306.297C300.841 306.229 300.526 306.06 300.278 305.813C300.031 305.565 299.862 305.25 299.794 304.906C299.725 304.563 299.761 304.207 299.895 303.884C300.028 303.56 300.255 303.284 300.546 303.089C300.837 302.895 301.18 302.791 301.53 302.791C301.763 302.79 301.993 302.835 302.209 302.923C302.424 303.012 302.62 303.142 302.784 303.306C302.949 303.471 303.079 303.667 303.168 303.882C303.256 304.097 303.301 304.328 303.3 304.561Z" fill="#263238"/>
<path d="M334.32 398.78H273.32C272.941 398.78 272.577 398.629 272.309 398.361C272.041 398.093 271.89 397.729 271.89 397.35C271.89 396.971 272.041 396.607 272.309 396.339C272.577 396.071 272.941 395.92 273.32 395.92H334.32C334.699 395.92 335.063 396.071 335.331 396.339C335.599 396.607 335.75 396.971 335.75 397.35C335.75 397.729 335.599 398.093 335.331 398.361C335.063 398.629 334.699 398.78 334.32 398.78Z" fill="#263238"/>
<path d="M336.46 394L344.63 355.6C344.757 355.005 344.749 354.388 344.607 353.796C344.464 353.205 344.192 352.652 343.808 352.179C343.424 351.707 342.94 351.326 342.39 351.064C341.84 350.803 341.239 350.669 340.63 350.67H269.33C268.727 350.67 268.131 350.804 267.585 351.062C267.04 351.321 266.558 351.697 266.176 352.163C265.793 352.63 265.519 353.176 265.372 353.762C265.226 354.347 265.212 354.958 265.33 355.55L272.66 392.67C272.84 393.582 273.325 394.405 274.036 395.003C274.747 395.601 275.641 395.939 276.57 395.96L332.36 397.24C333.314 397.261 334.245 396.949 334.993 396.358C335.742 395.766 336.26 394.933 336.46 394Z" fill="white" stroke="#263238" stroke-width="1.10311" stroke-linecap="round" stroke-linejoin="round"/>
<path d="M310.44 372.831C310.438 373.956 310.103 375.055 309.476 375.989C308.85 376.924 307.961 377.651 306.921 378.081C305.881 378.51 304.737 378.621 303.634 378.4C302.531 378.18 301.518 377.637 300.723 376.841C299.928 376.045 299.387 375.031 299.169 373.927C298.95 372.824 299.063 371.68 299.494 370.641C299.925 369.602 300.654 368.714 301.59 368.089C302.525 367.464 303.625 367.131 304.75 367.131C305.498 367.131 306.239 367.278 306.93 367.565C307.621 367.852 308.249 368.272 308.777 368.801C309.306 369.33 309.724 369.959 310.01 370.65C310.295 371.342 310.441 372.083 310.44 372.831Z" fill="#263238"/>
<path d="M321.63 354.34H330.1" stroke="#263238" stroke-width="1.10311" stroke-linecap="round" stroke-linejoin="round"/>
<path d="M281.18 354.34H313.33" stroke="#263238" stroke-width="1.10311" stroke-linecap="round" stroke-linejoin="round"/>
<path d="M336.6 434.771L330.1 451.831C330.1 451.831 313.52 447.651 292.29 443.301C270.08 438.751 246.89 432.861 234.86 411.751C233.4 409.181 232.42 406.141 233.11 403.261C234.84 395.971 244.33 393.991 250.58 393.261C254.509 392.836 258.458 392.616 262.41 392.601C264.41 392.601 271.06 391.511 272.67 392.701C275.089 394.466 277.671 395.996 280.38 397.271C283.93 398.781 335.75 395.921 335.75 395.921C336.652 393.955 337.203 391.847 337.38 389.691C345.53 385.551 364.38 382.051 372.38 383.601C384.91 386.031 392.22 393.341 390.83 401.001C389.44 408.661 361.76 429.201 336.6 434.771Z" fill="#263238"/>
<path d="M336.6 434.77C336.6 434.77 320.83 430.59 307.95 421.89C295.07 413.19 285.01 403.09 267.06 405.18" stroke="white" stroke-width="1.10311" stroke-linecap="round" stroke-linejoin="round"/>
<path d="M305 419.84C313.14 417.5 319.11 412.23 325.64 407.18C332.528 401.652 339.924 396.791 347.73 392.66" stroke="white" stroke-width="1.10311" stroke-linecap="round" stroke-linejoin="round"/>
<path d="M302.13 252.051H304.52" stroke="#263238" stroke-width="1.10311" stroke-linecap="round" stroke-linejoin="round"/>
<path d="M241.219 167.794C237.597 167.794 234.488 167.278 231.892 166.246C229.364 165.215 227.416 163.392 226.05 160.779C224.683 158.165 224 154.486 224 149.74V146.13C226.118 146.13 228.202 146.13 230.252 146.13C232.302 146.13 234.352 146.13 236.402 146.13V150.772C236.402 153.317 236.607 155.277 237.017 156.652C237.426 157.959 238.007 158.887 238.759 159.438C239.511 159.919 240.399 160.16 241.424 160.16C242.995 160.16 244.225 159.61 245.113 158.509C246.07 157.34 246.548 155.105 246.548 151.804C246.548 149.259 246.138 147.368 245.318 146.13C244.567 144.823 243.337 143.791 241.629 143.035C239.92 142.21 237.734 141.212 235.069 140.043C232.678 139.012 230.696 137.774 229.125 136.329C227.553 134.885 226.391 133.063 225.64 130.862C224.888 128.661 224.512 125.979 224.512 122.815C224.512 118.826 225.025 115.594 226.05 113.118C227.143 110.642 228.92 108.854 231.379 107.754C233.908 106.585 237.29 106 241.526 106C246.992 106 251.16 107.204 254.03 109.611C256.968 111.949 258.437 115.491 258.437 120.236V127.561C256.456 127.561 254.474 127.561 252.493 127.561C250.58 127.561 248.598 127.561 246.548 127.561V123.847C246.548 120.752 246.173 118.586 245.421 117.348C244.738 116.11 243.474 115.491 241.629 115.491C239.852 115.491 238.588 116.041 237.836 117.141C237.085 118.242 236.709 120.03 236.709 122.506C236.709 124.775 237.153 126.564 238.041 127.87C238.998 129.108 240.194 130.071 241.629 130.759C243.064 131.378 244.601 131.997 246.241 132.616C249.247 133.785 251.707 134.988 253.62 136.226C255.533 137.395 256.934 139.046 257.822 141.178C258.711 143.241 259.155 146.233 259.155 150.153C259.155 154.555 258.403 158.062 256.9 160.676C255.465 163.22 253.381 165.043 250.648 166.143C247.983 167.243 244.84 167.794 241.219 167.794ZM272.748 168C271.108 168 269.673 167.45 268.443 166.349C267.282 165.18 266.701 163.77 266.701 162.12C266.701 160.469 267.282 159.094 268.443 157.993C269.673 156.824 271.108 156.24 272.748 156.24C274.456 156.24 275.925 156.824 277.155 157.993C278.385 159.094 279 160.469 279 162.12C279 163.77 278.385 165.18 277.155 166.349C275.925 167.45 274.456 168 272.748 168Z" fill="url(#paint0_linear_2323_258)"/>
<defs>
<linearGradient id="paint0_linear_2323_258" x1="221.54" y1="155.282" x2="283.806" y2="139.475" gradientUnits="userSpaceOnUse">
<stop stop-color="#485563"/>
<stop offset="1" stop-color="#29323C"/>
</linearGradient>
</defs>
</svg>
