<svg width="500" height="500" viewBox="0 0 500 500" fill="none" xmlns="http://www.w3.org/2000/svg">
<path d="M450.95 398.381H60.9502V414.381H450.95V398.381Z" fill="#263238"/>
<path opacity="0.5" d="M450.95 398.381H60.9502V414.381H450.95V398.381Z" fill="white"/>
<path d="M152.92 226.29C151.012 226.912 149.14 227.636 147.31 228.46C148.31 227.73 149.31 226.97 150.31 226.2C154.762 222.619 158.999 218.779 163 214.7C158.306 219.26 153.293 223.481 148 227.33C148.73 226.062 149.371 224.746 149.92 223.39C150.92 220.9 151.1 218.39 148.73 217.06C145.8 215.42 142.26 217.87 143.19 222.06C143.758 224.399 144.864 226.573 146.42 228.41C142.966 230.801 139.358 232.962 135.62 234.88L135.27 235.06C136.06 233.691 136.758 232.271 137.36 230.81C138.3 228.33 138.54 225.81 136.16 224.49C133.23 222.84 129.69 225.3 130.63 229.49C131.188 231.798 132.269 233.946 133.79 235.77C129.3 237.98 124.66 239.86 120.04 241.9L119.37 242.2C120.272 241.231 121.11 240.206 121.88 239.13C123.38 236.93 124.19 234.55 122.19 232.7C119.73 230.42 115.7 231.98 115.64 236.3C115.643 238.684 116.197 241.035 117.26 243.17C112.937 245.19 108.829 247.642 105 250.49L104.88 250.59C105.398 249.769 105.872 248.921 106.3 248.05C107.43 245.64 107.85 243.16 105.57 241.65C105.107 241.331 104.577 241.122 104.021 241.037C103.465 240.953 102.898 240.995 102.36 241.162C101.823 241.328 101.331 241.614 100.92 241.999C100.51 242.383 100.192 242.855 99.9899 243.38C99.6893 242.911 99.2814 242.52 98.7999 242.24C96.5099 240.92 94.2599 242.35 92.3299 244.37C91.8299 244.9 91.3299 245.47 90.8999 246.03C92.3887 241.898 94.2602 237.914 96.4899 234.13C98.6133 235.057 100.903 235.544 103.22 235.56C107.78 235.56 109.7 231.76 107.46 229.4C105.64 227.49 103.08 228.22 100.66 229.62C99.8631 230.084 99.0919 230.592 98.3499 231.14C100.668 227.648 103.299 224.375 106.21 221.36C108.117 222.903 110.334 224.018 112.71 224.63C117.14 225.72 119.92 222.51 118.32 219.68C117.02 217.38 114.32 217.47 111.67 218.24C110.401 218.619 109.159 219.08 107.95 219.62C109.16 218.44 110.41 217.31 111.68 216.19C113.34 214.77 115.06 213.4 116.81 212.06C118.691 213.561 120.869 214.648 123.2 215.25C127.63 216.34 130.41 213.13 128.81 210.3C127.51 208 124.81 208.09 122.15 208.86C121.53 209.04 120.9 209.26 120.29 209.49C122.6 207.84 124.94 206.23 127.29 204.63L129.46 203.14C131.415 204.778 133.711 205.96 136.18 206.6C140.61 207.69 143.4 204.48 141.8 201.65C140.49 199.35 137.8 199.44 135.14 200.21C134.093 200.53 133.063 200.9 132.05 201.32L133.39 200.32C134.21 199.73 135.03 199.13 135.83 198.5C136.83 197.75 137.78 196.92 138.75 196.12C139.31 195.68 139.84 195.21 140.37 194.73C142.333 196.385 144.643 197.578 147.13 198.22C151.56 199.31 154.34 196.1 152.74 193.27C151.44 190.97 148.74 191.06 146.09 191.83C144.604 192.289 143.148 192.84 141.73 193.48C143.54 191.8 145.29 190.05 146.95 188.23C147.06 188.1 147.16 187.97 147.28 187.85C147.99 187.06 148.69 186.26 149.37 185.43C150.05 184.6 150.93 183.51 151.67 182.51C154.709 178.521 157.21 174.15 159.11 169.51C157.119 174.095 154.533 178.399 151.42 182.31C148.34 186.237 144.902 189.869 141.15 193.16L140.74 193.51C141.592 192.058 142.347 190.552 143 189C143.95 186.52 144.18 184 141.8 182.68C138.88 181.03 135.33 183.49 136.27 187.68C136.874 190.161 138.079 192.455 139.78 194.36L138.9 195.12L137.9 195.98C137.32 196.45 136.72 196.9 136.12 197.35C135.8 197.59 135.49 197.84 135.12 198.08C134.27 198.71 133.41 199.32 132.54 199.92L131.29 200.77L129.87 201.77C130.7 200.353 131.428 198.879 132.05 197.36C133 194.87 133.23 192.36 130.86 191.04C127.93 189.39 124.38 191.85 125.32 196.04C125.9 198.447 127.048 200.679 128.67 202.55L127.67 203.23L123.78 205.78L123.01 206.28L120.84 207.73L119.9 208.36C118.9 209.05 117.9 209.75 116.9 210.47C117.703 209.031 118.405 207.537 119 206C120 203.52 120.18 201 117.81 199.68C114.88 198.03 111.34 200.49 112.28 204.68C112.867 207.119 114.041 209.378 115.7 211.26C114 212.51 112.32 213.79 110.7 215.13C109.51 216.13 108.34 217.13 107.19 218.21C107.691 217.283 108.138 216.328 108.53 215.35C109.47 212.86 109.71 210.35 107.33 209.03C104.4 207.38 100.86 209.84 101.8 214.03C102.358 216.338 103.439 218.486 104.96 220.31C101.721 223.528 98.804 227.055 96.2499 230.84C96.5399 229.748 96.7603 228.639 96.9099 227.52C97.2299 224.88 96.8499 222.4 94.2199 221.68C90.9799 220.79 88.1399 224.03 90.0699 227.89C91.1802 230.015 92.7685 231.853 94.7099 233.26C92.1909 237.374 90.0872 241.729 88.4299 246.26C88.3867 245.312 88.2932 244.367 88.1499 243.43C87.6999 240.8 86.6399 238.53 83.9099 238.58C80.5499 238.65 78.7399 242.58 81.6899 245.72C83.2632 247.36 85.1834 248.628 87.3099 249.43C86.1726 252.927 85.2476 256.491 84.5399 260.1C84.4199 260.67 84.3299 261.24 84.2199 261.81C84.0999 261.92 83.9799 262.03 83.8699 262.15C83.7499 261.66 83.6099 261.15 83.4499 260.68C82.6099 258.16 81.2099 256.07 78.5199 256.55C75.2199 257.13 74.0299 261.27 77.4299 263.94C79.1579 265.259 81.1497 266.19 83.2699 266.67C83.2699 266.77 83.3499 266.86 83.3999 266.96C83.0299 269.67 82.7499 272.4 82.5799 275.14C82.4499 277.14 82.3799 279.23 82.3399 281.28C79.4799 281.28 77.4599 284.42 79.4299 287.82C80.2612 289.23 81.3264 290.488 82.5799 291.54C82.8199 295.39 83.1999 299.24 83.7099 303.06C83.3055 302.686 82.8106 302.424 82.2741 302.299C81.7375 302.175 81.1777 302.192 80.6499 302.35C78.8499 302.84 78.0399 304.29 77.7499 306.07C77.1094 306.733 76.7509 307.618 76.7499 308.54C75.4099 306.54 74.1399 304.54 72.9099 302.43C74.7875 300.99 76.3441 299.175 77.4799 297.1C79.6299 293.1 77.1999 289.59 74.0699 290.44C71.5099 291.14 70.9499 293.74 71.0699 296.53C71.1099 297.588 71.2101 298.643 71.3699 299.69L70.0499 297.37C68.9499 295.37 68.0499 293.37 66.9699 291.37C66.7099 290.88 66.4799 290.37 66.2699 289.87C68.3767 288.808 70.2395 287.32 71.7399 285.5C74.6099 281.96 72.8799 278.07 69.6399 278.32C66.9999 278.53 65.9499 280.98 65.5099 283.74C65.3384 284.943 65.2316 286.155 65.1899 287.37L64.2499 285.2C62.2479 280.277 60.6003 275.217 59.3199 270.06C61.7046 269.215 63.8706 267.848 65.6599 266.06C68.8699 262.81 67.5399 258.78 64.2899 258.7C61.6499 258.64 60.3599 260.97 59.6399 263.7C59.287 265.149 59.0232 266.618 58.8499 268.1C58.1499 265.14 57.5499 262.14 57.0499 259.1C56.7099 257.24 56.4899 255.35 56.2599 253.47C58.8231 252.962 61.2372 251.878 63.3199 250.3C66.9199 247.5 66.1299 243.3 62.9099 242.83C60.2999 242.42 58.7199 244.57 57.6599 247.16C57.0393 248.793 56.5184 250.463 56.0999 252.16C55.8999 249.98 55.6699 247.79 55.5699 245.6C55.2699 241.078 55.2699 236.541 55.5699 232.02C55.1134 236.538 54.9564 241.081 55.0999 245.62C55.0999 247.71 55.2799 249.79 55.4099 251.88C54.8386 250.459 54.1704 249.079 53.4099 247.75C52.0499 245.46 50.2299 243.75 47.7099 244.75C44.5999 246.03 44.3299 250.33 48.2299 252.21C50.5173 253.261 53.0265 253.738 55.5399 253.6C55.7199 255.47 55.8799 257.33 56.1599 259.18C56.5499 262.18 57.0499 265.06 57.6399 267.97C57 266.855 56.2885 265.783 55.5099 264.76C53.8599 262.67 51.8399 261.19 49.5099 262.54C46.5999 264.21 46.8799 268.54 50.9899 269.87C53.3156 270.592 55.7788 270.757 58.1799 270.35C59.3208 275.564 60.8211 280.693 62.6699 285.7L63.2599 287.2C62.7308 286.499 62.1598 285.831 61.5499 285.2C59.6999 283.28 57.5499 282.01 55.3199 283.6C52.5899 285.6 53.3199 289.8 57.5199 290.74C59.8379 291.209 62.2325 291.141 64.5199 290.54C64.7299 291.05 64.9399 291.54 65.1899 292.06C66.1899 294.12 67.0799 296.23 68.1299 298.25L68.9999 300C68.4799 299.55 67.9399 299.12 67.3799 298.72C65.1999 297.19 62.8399 296.35 60.9599 298.32C58.6399 300.75 60.1399 304.79 64.4599 304.92C66.709 304.972 68.9419 304.528 70.9999 303.62C72.2399 305.86 73.5099 308.07 74.8899 310.24C75.3999 311.07 75.8899 311.89 76.4699 312.71C75.6854 311.992 74.8572 311.324 73.9899 310.71C71.8099 309.18 69.4499 308.34 67.5599 310.31C65.2499 312.74 66.7499 316.78 71.0699 316.91C73.539 316.939 75.9797 316.381 78.1899 315.28C78.9099 316.28 79.6499 317.28 80.4099 318.28C78.7999 320.15 79.3299 323.28 82.5999 324.71C84.1881 325.372 85.8808 325.747 87.5999 325.82C87.7999 325.98 87.9999 326.14 88.2199 326.29L88.3199 326.37C90.3866 334.09 92.8366 341.696 95.6699 349.19C96.8699 352.38 98.1599 355.54 99.4899 358.68H87.4899V406H124.16V358.64H104.64C102.97 354.99 101.36 351.3 99.8599 347.57C97.4099 341.45 95.1899 335.23 93.2599 328.92C93.5883 329.016 93.9223 329.093 94.2599 329.15C94.7041 329.24 95.1595 329.26 95.6099 329.21L95.0899 325.92H94.7399C94.5313 325.89 94.3244 325.85 94.1199 325.8C93.658 325.667 93.2067 325.5 92.7699 325.3L92.2499 325.06C94.1799 324.387 95.9721 323.371 97.5399 322.06C101.01 319.06 100.03 314.96 96.7899 314.61C94.1699 314.32 92.6899 316.54 91.7899 319.17C91.5199 319.92 91.2999 320.7 91.1099 321.46C90.9199 320.76 90.7299 320.06 90.5499 319.36C90.0199 317.29 89.5499 315.2 89.0699 313.11C91.1644 312.456 93.1109 311.4 94.7999 310C98.2699 307 97.2799 302.91 94.0499 302.56C91.4199 302.27 89.9499 304.49 89.0499 307.12C88.7799 307.88 88.5499 308.67 88.3499 309.45C88.0499 307.93 87.7599 306.4 87.4899 304.87C87.2999 303.74 87.1199 302.6 86.9499 301.46C86.8899 299.84 86.8599 298.22 86.8799 296.59C86.8799 295.7 86.8799 294.81 86.9599 293.92C88.9205 294.539 90.9767 294.8 93.0299 294.69C97.5899 294.39 99.2699 290.49 96.8899 288.28C94.9499 286.47 92.4399 287.37 90.1099 288.91C89.0651 289.62 88.0633 290.391 87.1099 291.22C87.3907 287.414 87.9692 283.636 88.8399 279.92C89.3502 277.731 89.988 275.574 90.7499 273.46C92.8408 274.181 95.0515 274.49 97.2599 274.37C101.82 274.08 103.5 270.18 101.12 267.96C99.1899 266.16 96.6699 267.05 94.3399 268.6C93.5266 269.159 92.7453 269.763 91.9999 270.41C92.8792 268.341 93.9017 266.336 95.0599 264.41C97.3568 260.523 100.237 257.012 103.6 254C105.343 255.607 107.404 256.83 109.65 257.59C113.99 259.01 117 256.01 115.65 253.07C114.52 250.68 111.86 250.57 109.12 251.14C108.064 251.365 107.022 251.652 106 252L106.07 251.94C109.801 249.028 113.823 246.508 118.07 244.42C119.568 246.382 121.471 247.998 123.65 249.16C127.71 251.25 131.16 248.77 130.26 245.65C129.53 243.11 126.92 242.58 124.13 242.65C123.034 242.709 121.942 242.829 120.86 243.01C125.37 240.88 129.97 238.87 134.41 236.52H134.51C136.498 238.236 138.856 239.468 141.4 240.12C145.83 241.22 148.61 238 147.01 235.12C145.71 232.82 143.01 232.92 140.36 233.68C139.61 233.9 138.86 234.17 138.13 234.45C141.095 232.726 143.969 230.851 146.74 228.83L146.97 229.08V228.95C148.977 230.681 151.355 231.93 153.92 232.6C158.34 233.69 161.13 230.48 159.53 227.6C158.27 225.43 155.61 225.52 152.92 226.29ZM82.9999 316.9C82.0899 315.84 81.2299 314.73 80.3899 313.61C80.5899 313.43 80.8099 313.23 81.0299 313.01C82.2795 313.399 83.5729 313.631 84.8799 313.7V313.91L85.4899 313.78C85.8099 315.36 86.1399 316.93 86.4899 318.5C86.0835 317.968 85.5528 317.544 84.9443 317.265C84.3358 316.986 83.6682 316.86 82.9999 316.9ZM86.2599 279.25C85.9499 280.43 85.6899 281.61 85.4399 282.8L85.2899 282.59C85.2899 280.15 85.3266 277.716 85.3999 275.29C85.4699 273.59 85.5899 271.9 85.7399 270.2C86.5627 271.038 87.4672 271.792 88.4399 272.45C87.5935 274.675 86.8691 276.945 86.2699 279.25H86.2599ZM90.3599 268.05C90.4199 267.61 90.4699 267.16 90.4899 266.72V266.05C90.8499 265.94 91.2199 265.81 91.5799 265.66C91.1799 266.45 90.7599 267.25 90.3699 268.05H90.3599ZM95.5699 259.6C95.3971 259.204 95.1459 258.848 94.8313 258.552C94.5167 258.256 94.1455 258.028 93.7399 257.88C91.2699 256.88 89.2699 258.68 87.6799 260.98L87.5999 261.09H87.4399C87.2722 261.052 87.1016 261.028 86.9299 261.02C86.9181 260.879 86.9422 260.738 86.9999 260.61C87.633 256.997 88.488 253.427 89.5599 249.92C91.8555 250.211 94.1865 250.031 96.4099 249.39C97.7837 249.029 98.9784 248.179 99.7699 247C100.21 249.016 101.05 250.924 102.24 252.61C99.7798 254.702 97.5474 257.049 95.5799 259.61L95.5699 259.6Z" fill="#263238"/>
<path opacity="0.3" d="M152.92 226.29C151.012 226.912 149.14 227.636 147.31 228.46C148.31 227.73 149.31 226.97 150.31 226.2C154.762 222.619 158.999 218.779 163 214.7C158.306 219.26 153.293 223.481 148 227.33C148.73 226.062 149.371 224.746 149.92 223.39C150.92 220.9 151.1 218.39 148.73 217.06C145.8 215.42 142.26 217.87 143.19 222.06C143.758 224.399 144.864 226.573 146.42 228.41C142.966 230.801 139.358 232.962 135.62 234.88L135.27 235.06C136.06 233.691 136.758 232.271 137.36 230.81C138.3 228.33 138.54 225.81 136.16 224.49C133.23 222.84 129.69 225.3 130.63 229.49C131.188 231.798 132.269 233.946 133.79 235.77C129.3 237.98 124.66 239.86 120.04 241.9L119.37 242.2C120.272 241.231 121.11 240.206 121.88 239.13C123.38 236.93 124.19 234.55 122.19 232.7C119.73 230.42 115.7 231.98 115.64 236.3C115.643 238.684 116.197 241.035 117.26 243.17C112.937 245.19 108.829 247.642 105 250.49L104.88 250.59C105.398 249.769 105.872 248.921 106.3 248.05C107.43 245.64 107.85 243.16 105.57 241.65C105.107 241.331 104.577 241.122 104.021 241.037C103.465 240.953 102.898 240.995 102.36 241.162C101.823 241.328 101.331 241.614 100.92 241.999C100.51 242.383 100.192 242.855 99.9899 243.38C99.6893 242.911 99.2814 242.52 98.7999 242.24C96.5099 240.92 94.2599 242.35 92.3299 244.37C91.8299 244.9 91.3299 245.47 90.8999 246.03C92.3887 241.898 94.2602 237.914 96.4899 234.13C98.6133 235.057 100.903 235.544 103.22 235.56C107.78 235.56 109.7 231.76 107.46 229.4C105.64 227.49 103.08 228.22 100.66 229.62C99.8631 230.084 99.0919 230.592 98.3499 231.14C100.668 227.648 103.299 224.375 106.21 221.36C108.117 222.903 110.334 224.018 112.71 224.63C117.14 225.72 119.92 222.51 118.32 219.68C117.02 217.38 114.32 217.47 111.67 218.24C110.401 218.619 109.159 219.08 107.95 219.62C109.16 218.44 110.41 217.31 111.68 216.19C113.34 214.77 115.06 213.4 116.81 212.06C118.691 213.561 120.869 214.648 123.2 215.25C127.63 216.34 130.41 213.13 128.81 210.3C127.51 208 124.81 208.09 122.15 208.86C121.53 209.04 120.9 209.26 120.29 209.49C122.6 207.84 124.94 206.23 127.29 204.63L129.46 203.14C131.415 204.778 133.711 205.96 136.18 206.6C140.61 207.69 143.4 204.48 141.8 201.65C140.49 199.35 137.8 199.44 135.14 200.21C134.093 200.53 133.063 200.9 132.05 201.32L133.39 200.32C134.21 199.73 135.03 199.13 135.83 198.5C136.83 197.75 137.78 196.92 138.75 196.12C139.31 195.68 139.84 195.21 140.37 194.73C142.333 196.385 144.643 197.578 147.13 198.22C151.56 199.31 154.34 196.1 152.74 193.27C151.44 190.97 148.74 191.06 146.09 191.83C144.604 192.289 143.148 192.84 141.73 193.48C143.54 191.8 145.29 190.05 146.95 188.23C147.06 188.1 147.16 187.97 147.28 187.85C147.99 187.06 148.69 186.26 149.37 185.43C150.05 184.6 150.93 183.51 151.67 182.51C154.709 178.521 157.21 174.15 159.11 169.51C157.119 174.095 154.533 178.399 151.42 182.31C148.34 186.237 144.902 189.869 141.15 193.16L140.74 193.51C141.592 192.058 142.347 190.552 143 189C143.95 186.52 144.18 184 141.8 182.68C138.88 181.03 135.33 183.49 136.27 187.68C136.874 190.161 138.079 192.455 139.78 194.36L138.9 195.12L137.9 195.98C137.32 196.45 136.72 196.9 136.12 197.35C135.8 197.59 135.49 197.84 135.12 198.08C134.27 198.71 133.41 199.32 132.54 199.92L131.29 200.77L129.87 201.77C130.7 200.353 131.428 198.879 132.05 197.36C133 194.87 133.23 192.36 130.86 191.04C127.93 189.39 124.38 191.85 125.32 196.04C125.9 198.447 127.048 200.679 128.67 202.55L127.67 203.23L123.78 205.78L123.01 206.28L120.84 207.73L119.9 208.36C118.9 209.05 117.9 209.75 116.9 210.47C117.703 209.031 118.405 207.537 119 206C120 203.52 120.18 201 117.81 199.68C114.88 198.03 111.34 200.49 112.28 204.68C112.867 207.119 114.041 209.378 115.7 211.26C114 212.51 112.32 213.79 110.7 215.13C109.51 216.13 108.34 217.13 107.19 218.21C107.691 217.283 108.138 216.328 108.53 215.35C109.47 212.86 109.71 210.35 107.33 209.03C104.4 207.38 100.86 209.84 101.8 214.03C102.358 216.338 103.439 218.486 104.96 220.31C101.721 223.528 98.804 227.055 96.2499 230.84C96.5399 229.748 96.7603 228.639 96.9099 227.52C97.2299 224.88 96.8499 222.4 94.2199 221.68C90.9799 220.79 88.1399 224.03 90.0699 227.89C91.1802 230.015 92.7685 231.853 94.7099 233.26C92.1909 237.374 90.0872 241.729 88.4299 246.26C88.3867 245.312 88.2932 244.367 88.1499 243.43C87.6999 240.8 86.6399 238.53 83.9099 238.58C80.5499 238.65 78.7399 242.58 81.6899 245.72C83.2632 247.36 85.1834 248.628 87.3099 249.43C86.1726 252.927 85.2476 256.491 84.5399 260.1C84.4199 260.67 84.3299 261.24 84.2199 261.81C84.0999 261.92 83.9799 262.03 83.8699 262.15C83.7499 261.66 83.6099 261.15 83.4499 260.68C82.6099 258.16 81.2099 256.07 78.5199 256.55C75.2199 257.13 74.0299 261.27 77.4299 263.94C79.1579 265.259 81.1497 266.19 83.2699 266.67C83.2699 266.77 83.3499 266.86 83.3999 266.96C83.0299 269.67 82.7499 272.4 82.5799 275.14C82.4499 277.14 82.3799 279.23 82.3399 281.28C79.4799 281.28 77.4599 284.42 79.4299 287.82C80.2612 289.23 81.3264 290.488 82.5799 291.54C82.8199 295.39 83.1999 299.24 83.7099 303.06C83.3055 302.686 82.8106 302.424 82.2741 302.299C81.7375 302.175 81.1777 302.192 80.6499 302.35C78.8499 302.84 78.0399 304.29 77.7499 306.07C77.1094 306.733 76.7509 307.618 76.7499 308.54C75.4099 306.54 74.1399 304.54 72.9099 302.43C74.7875 300.99 76.3441 299.175 77.4799 297.1C79.6299 293.1 77.1999 289.59 74.0699 290.44C71.5099 291.14 70.9499 293.74 71.0699 296.53C71.1099 297.588 71.2101 298.643 71.3699 299.69L70.0499 297.37C68.9499 295.37 68.0499 293.37 66.9699 291.37C66.7099 290.88 66.4799 290.37 66.2699 289.87C68.3767 288.808 70.2395 287.32 71.7399 285.5C74.6099 281.96 72.8799 278.07 69.6399 278.32C66.9999 278.53 65.9499 280.98 65.5099 283.74C65.3384 284.943 65.2316 286.155 65.1899 287.37L64.2499 285.2C62.2479 280.277 60.6003 275.217 59.3199 270.06C61.7046 269.215 63.8706 267.848 65.6599 266.06C68.8699 262.81 67.5399 258.78 64.2899 258.7C61.6499 258.64 60.3599 260.97 59.6399 263.7C59.287 265.149 59.0232 266.618 58.8499 268.1C58.1499 265.14 57.5499 262.14 57.0499 259.1C56.7099 257.24 56.4899 255.35 56.2599 253.47C58.8231 252.962 61.2372 251.878 63.3199 250.3C66.9199 247.5 66.1299 243.3 62.9099 242.83C60.2999 242.42 58.7199 244.57 57.6599 247.16C57.0393 248.793 56.5184 250.463 56.0999 252.16C55.8999 249.98 55.6699 247.79 55.5699 245.6C55.2699 241.078 55.2699 236.541 55.5699 232.02C55.1134 236.538 54.9564 241.081 55.0999 245.62C55.0999 247.71 55.2799 249.79 55.4099 251.88C54.8386 250.459 54.1704 249.079 53.4099 247.75C52.0499 245.46 50.2299 243.75 47.7099 244.75C44.5999 246.03 44.3299 250.33 48.2299 252.21C50.5173 253.261 53.0265 253.738 55.5399 253.6C55.7199 255.47 55.8799 257.33 56.1599 259.18C56.5499 262.18 57.0499 265.06 57.6399 267.97C57 266.855 56.2885 265.783 55.5099 264.76C53.8599 262.67 51.8399 261.19 49.5099 262.54C46.5999 264.21 46.8799 268.54 50.9899 269.87C53.3156 270.592 55.7788 270.757 58.1799 270.35C59.3208 275.564 60.8211 280.693 62.6699 285.7L63.2599 287.2C62.7308 286.499 62.1598 285.831 61.5499 285.2C59.6999 283.28 57.5499 282.01 55.3199 283.6C52.5899 285.6 53.3199 289.8 57.5199 290.74C59.8379 291.209 62.2325 291.141 64.5199 290.54C64.7299 291.05 64.9399 291.54 65.1899 292.06C66.1899 294.12 67.0799 296.23 68.1299 298.25L68.9999 300C68.4799 299.55 67.9399 299.12 67.3799 298.72C65.1999 297.19 62.8399 296.35 60.9599 298.32C58.6399 300.75 60.1399 304.79 64.4599 304.92C66.709 304.972 68.9419 304.528 70.9999 303.62C72.2399 305.86 73.5099 308.07 74.8899 310.24C75.3999 311.07 75.8899 311.89 76.4699 312.71C75.6854 311.992 74.8572 311.324 73.9899 310.71C71.8099 309.18 69.4499 308.34 67.5599 310.31C65.2499 312.74 66.7499 316.78 71.0699 316.91C73.539 316.939 75.9797 316.381 78.1899 315.28C78.9099 316.28 79.6499 317.28 80.4099 318.28C78.7999 320.15 79.3299 323.28 82.5999 324.71C84.1881 325.372 85.8808 325.747 87.5999 325.82C87.7999 325.98 87.9999 326.14 88.2199 326.29L88.3199 326.37C90.3866 334.09 92.8366 341.696 95.6699 349.19C96.8699 352.38 98.1599 355.54 99.4899 358.68H87.4899V406H124.16V358.64H104.64C102.97 354.99 101.36 351.3 99.8599 347.57C97.4099 341.45 95.1899 335.23 93.2599 328.92C93.5883 329.016 93.9223 329.093 94.2599 329.15C94.7041 329.24 95.1595 329.26 95.6099 329.21L95.0899 325.92H94.7399C94.5313 325.89 94.3244 325.85 94.1199 325.8C93.658 325.667 93.2067 325.5 92.7699 325.3L92.2499 325.06C94.1799 324.387 95.9721 323.371 97.5399 322.06C101.01 319.06 100.03 314.96 96.7899 314.61C94.1699 314.32 92.6899 316.54 91.7899 319.17C91.5199 319.92 91.2999 320.7 91.1099 321.46C90.9199 320.76 90.7299 320.06 90.5499 319.36C90.0199 317.29 89.5499 315.2 89.0699 313.11C91.1644 312.456 93.1109 311.4 94.7999 310C98.2699 307 97.2799 302.91 94.0499 302.56C91.4199 302.27 89.9499 304.49 89.0499 307.12C88.7799 307.88 88.5499 308.67 88.3499 309.45C88.0499 307.93 87.7599 306.4 87.4899 304.87C87.2999 303.74 87.1199 302.6 86.9499 301.46C86.8899 299.84 86.8599 298.22 86.8799 296.59C86.8799 295.7 86.8799 294.81 86.9599 293.92C88.9205 294.539 90.9767 294.8 93.0299 294.69C97.5899 294.39 99.2699 290.49 96.8899 288.28C94.9499 286.47 92.4399 287.37 90.1099 288.91C89.0651 289.62 88.0633 290.391 87.1099 291.22C87.3907 287.414 87.9692 283.636 88.8399 279.92C89.3502 277.731 89.988 275.574 90.7499 273.46C92.8408 274.181 95.0515 274.49 97.2599 274.37C101.82 274.08 103.5 270.18 101.12 267.96C99.1899 266.16 96.6699 267.05 94.3399 268.6C93.5266 269.159 92.7453 269.763 91.9999 270.41C92.8792 268.341 93.9017 266.336 95.0599 264.41C97.3568 260.523 100.237 257.012 103.6 254C105.343 255.607 107.404 256.83 109.65 257.59C113.99 259.01 117 256.01 115.65 253.07C114.52 250.68 111.86 250.57 109.12 251.14C108.064 251.365 107.022 251.652 106 252L106.07 251.94C109.801 249.028 113.823 246.508 118.07 244.42C119.568 246.382 121.471 247.998 123.65 249.16C127.71 251.25 131.16 248.77 130.26 245.65C129.53 243.11 126.92 242.58 124.13 242.65C123.034 242.709 121.942 242.829 120.86 243.01C125.37 240.88 129.97 238.87 134.41 236.52H134.51C136.498 238.236 138.856 239.468 141.4 240.12C145.83 241.22 148.61 238 147.01 235.12C145.71 232.82 143.01 232.92 140.36 233.68C139.61 233.9 138.86 234.17 138.13 234.45C141.095 232.726 143.969 230.851 146.74 228.83L146.97 229.08V228.95C148.977 230.681 151.355 231.93 153.92 232.6C158.34 233.69 161.13 230.48 159.53 227.6C158.27 225.43 155.61 225.52 152.92 226.29ZM82.9999 316.9C82.0899 315.84 81.2299 314.73 80.3899 313.61C80.5899 313.43 80.8099 313.23 81.0299 313.01C82.2795 313.399 83.5729 313.631 84.8799 313.7V313.91L85.4899 313.78C85.8099 315.36 86.1399 316.93 86.4899 318.5C86.0835 317.968 85.5528 317.544 84.9443 317.265C84.3358 316.986 83.6682 316.86 82.9999 316.9ZM86.2599 279.25C85.9499 280.43 85.6899 281.61 85.4399 282.8L85.2899 282.59C85.2899 280.15 85.3266 277.716 85.3999 275.29C85.4699 273.59 85.5899 271.9 85.7399 270.2C86.5627 271.038 87.4672 271.792 88.4399 272.45C87.5935 274.675 86.8691 276.945 86.2699 279.25H86.2599ZM90.3599 268.05C90.4199 267.61 90.4699 267.16 90.4899 266.72V266.05C90.8499 265.94 91.2199 265.81 91.5799 265.66C91.1799 266.45 90.7599 267.25 90.3699 268.05H90.3599ZM95.5699 259.6C95.3971 259.204 95.1459 258.848 94.8313 258.552C94.5167 258.256 94.1455 258.028 93.7399 257.88C91.2699 256.88 89.2699 258.68 87.6799 260.98L87.5999 261.09H87.4399C87.2722 261.052 87.1016 261.028 86.9299 261.02C86.9181 260.879 86.9422 260.738 86.9999 260.61C87.633 256.997 88.488 253.427 89.5599 249.92C91.8555 250.211 94.1865 250.031 96.4099 249.39C97.7837 249.029 98.9784 248.179 99.7699 247C100.21 249.016 101.05 250.924 102.24 252.61C99.7798 254.702 97.5474 257.049 95.5799 259.61L95.5699 259.6Z" fill="white"/>
<path d="M399.49 362.369C399.49 362.369 394.65 351.559 393.49 350.449C392.33 349.339 383.06 345.979 380.49 337.449C377.92 328.919 373.04 306.149 385.34 307.639C397.64 309.129 394.65 332.979 399.12 332.229C403.59 331.479 395.4 293.489 403.22 288.229C411.04 282.969 423.71 287.859 422.22 307.979C420.73 328.099 417.75 339.639 420.36 338.529C422.97 337.419 430.42 333.309 430.42 341.879C430.42 350.449 423.34 356.409 419.24 356.779C415.14 357.149 413.24 357.529 413.24 357.529V363.109L399.49 362.369Z" fill="#2E353A" stroke="#2E353A" stroke-linecap="round" stroke-linejoin="round"/>
<path d="M395.55 341.421C392.74 338.761 390.16 336.181 388.97 333.811C386.61 329.081 384.83 315.811 384.83 315.811" stroke="white" stroke-width="0.5" stroke-linecap="round" stroke-linejoin="round"/>
<path d="M380.64 322.289C382.5 330.039 382.76 335.879 388.38 342.679C391.38 346.359 399.32 349.479 400.21 352.729C401.006 356.64 401.604 360.588 402 364.559L406.44 364.859C406.44 364.859 407.34 357.159 404.8 351.669" stroke="white" stroke-width="0.5" stroke-linecap="round" stroke-linejoin="round"/>
<path d="M381.88 309.859C381.88 309.859 378.56 312.409 379.74 318.689" stroke="white" stroke-width="0.5" stroke-linecap="round" stroke-linejoin="round"/>
<path d="M403.15 332.73L401.39 335.58" stroke="white" stroke-width="0.5" stroke-linecap="round" stroke-linejoin="round"/>
<path d="M403.76 331.74L403.15 332.73" stroke="white" stroke-width="0.5" stroke-linecap="round" stroke-linejoin="round"/>
<path d="M409.67 289.16C409.67 289.16 402.87 288.87 402.87 295.37C402.87 300.86 404.55 319.6 404.19 328.17" stroke="white" stroke-width="0.5" stroke-linecap="round" stroke-linejoin="round"/>
<path d="M415 342.409C414.84 344.639 414.74 346.219 414.74 346.819C414.74 350.069 423.01 337.649 426.86 337.359C426.86 337.359 430.7 337.059 429.22 344.159C428.682 346.795 427.434 349.234 425.612 351.213C423.79 353.191 421.462 354.636 418.88 355.389C415.62 356.279 412.96 354.799 412.37 356.279C411.899 358.019 411.601 359.801 411.48 361.599" stroke="white" stroke-width="0.5" stroke-linecap="round" stroke-linejoin="round"/>
<path d="M416.93 295.33C417.444 297.475 417.686 299.675 417.65 301.88C417.65 308.8 416.33 325.12 415.45 336.14" stroke="white" stroke-width="0.5" stroke-linecap="round" stroke-linejoin="round"/>
<path d="M413.51 289.76C414.398 290.269 415.117 291.027 415.58 291.94" stroke="white" stroke-width="0.5" stroke-linecap="round" stroke-linejoin="round"/>
<path d="M408.7 340.609L408.49 344.749" stroke="white" stroke-width="0.5" stroke-linecap="round" stroke-linejoin="round"/>
<path d="M410.26 293.299C410.26 293.299 408.49 293.889 409.08 300.099C409.57 305.229 409.08 328.519 408.85 336.469" stroke="white" stroke-width="0.5" stroke-linecap="round" stroke-linejoin="round"/>
<path d="M428.89 339.129C426.354 343.875 422.292 347.627 417.36 349.779C409.36 353.029 409.08 351.549 409.08 354.779C409.08 358.009 408.78 363.949 408.78 363.949" stroke="white" stroke-width="0.5" stroke-linecap="round" stroke-linejoin="round"/>
<path d="M417.8 405.969H391.96L386.43 368.539H423.33L417.8 405.969Z" fill="#263238" stroke="#2E353A" stroke-linecap="round" stroke-linejoin="round"/>
<path d="M426.5 362.641H383.26V372.661H426.5V362.641Z" fill="#263238" stroke="#2E353A" stroke-linecap="round" stroke-linejoin="round"/>
<path d="M275.92 380.771V360.451H216.08V380.771C216.07 387.39 213.83 393.813 209.72 399.001L207.1 402.301H284.9L282.28 399.001C278.17 393.813 275.93 387.39 275.92 380.771Z" fill="white" stroke="#2E353A" stroke-linecap="round" stroke-linejoin="round"/>
<path d="M212.4 395.001H279.6C277.188 390.646 275.922 385.75 275.92 380.771V360.451H216.08V380.771C216.079 385.75 214.813 390.646 212.4 395.001Z" fill="#263238"/>
<path d="M357.77 186.471H134.22C129.537 186.471 125.74 190.267 125.74 194.951V358.381C125.74 363.064 129.537 366.861 134.22 366.861H357.77C362.454 366.861 366.25 363.064 366.25 358.381V194.951C366.25 190.267 362.454 186.471 357.77 186.471Z" fill="#2E353A" stroke="#2E353A" stroke-linecap="round" stroke-linejoin="round"/>
<path d="M125.74 338.82H366.26V358.37C366.26 360.619 365.367 362.776 363.777 364.367C362.186 365.957 360.029 366.85 357.78 366.85H134.23C131.981 366.85 129.824 365.957 128.234 364.367C126.644 362.776 125.75 360.619 125.75 358.37V338.82H125.74Z" fill="white" stroke="#2E353A" stroke-linecap="round" stroke-linejoin="round"/>
<path d="M354.16 197.701H137.84V325.141H354.16V197.701Z" fill="white" stroke="#2E353A" stroke-linecap="round" stroke-linejoin="round"/>
<path d="M250.44 352.84C250.44 351.962 250.18 351.104 249.692 350.374C249.204 349.643 248.51 349.074 247.699 348.738C246.888 348.402 245.995 348.314 245.134 348.486C244.273 348.657 243.481 349.08 242.861 349.701C242.24 350.322 241.817 351.113 241.645 351.974C241.474 352.835 241.562 353.728 241.898 354.54C242.234 355.351 242.803 356.044 243.533 356.532C244.263 357.02 245.122 357.28 246 357.28C247.178 357.28 248.307 356.813 249.14 355.98C249.972 355.147 250.44 354.018 250.44 352.84Z" fill="#2E353A" stroke="#2E353A" stroke-linecap="round" stroke-linejoin="round"/>
<path d="M284.91 402.34H207.1V405.97H284.91V402.34Z" fill="white" stroke="#2E353A" stroke-linecap="round" stroke-linejoin="round"/>
<path d="M352.13 206.682H139.54V217.852H352.13V206.682Z" fill="white" stroke="#2E353A" stroke-linecap="round" stroke-linejoin="round"/>
<path d="M174.62 217.851L172.07 210.951H139.54V217.851V227.001V319.711H352.13V217.851H174.62Z" fill="white"/>
<path d="M196.76 281.961H296.44" stroke="#2E353A" stroke-width="2" stroke-linecap="round" stroke-linejoin="round"/>
<path d="M196.76 271.961H296.44" stroke="#2E353A" stroke-width="2" stroke-linecap="round" stroke-linejoin="round"/>
<path d="M196.76 262.961H296.44" stroke="#2E353A" stroke-width="2" stroke-linecap="round" stroke-linejoin="round"/>
<path d="M196.76 253.961H296.44" stroke="#2E353A" stroke-width="2" stroke-linecap="round" stroke-linejoin="round"/>
<path d="M196.76 291.771H296.44" stroke="#2E353A" stroke-width="2" stroke-linecap="round" stroke-linejoin="round"/>
<path d="M317.3 285C317.592 285.725 318.027 286.383 318.578 286.936C319.13 287.489 319.787 287.926 320.51 288.22C321.64 288.68 323.15 288.58 324.89 289.56C328.82 291.77 338.63 289.8 345.74 290.56C352.85 291.32 362.43 283.45 362.43 283.45L390.64 285V257C390.64 257 361.2 258.23 354.82 255.77C348.44 253.31 341.33 248.17 338.14 248.41C334.95 248.65 308.7 251.6 308.7 251.6L317.29 285H317.3Z" fill="white" stroke="#2E353A" stroke-linecap="round" stroke-linejoin="round"/>
<path d="M310 172.1C304.175 172.745 298.673 175.102 294.188 178.874C289.703 182.646 286.437 187.664 284.804 193.292C283.171 198.92 283.243 204.906 285.012 210.493C286.78 216.08 290.166 221.017 294.741 224.68C299.315 228.342 304.873 230.566 310.712 231.07C316.55 231.574 322.407 230.336 327.542 227.511C332.676 224.686 336.858 220.402 339.558 215.201C342.258 210 343.355 204.115 342.71 198.29C342.284 194.421 341.1 190.675 339.226 187.264C337.351 183.854 334.822 180.846 331.784 178.414C328.746 175.982 325.259 174.172 321.521 173.088C317.783 172.005 313.868 171.669 310 172.1ZM315.88 225.18C311.207 225.699 306.486 224.821 302.313 222.657C298.139 220.492 294.701 217.139 292.434 213.021C290.166 208.903 289.17 204.205 289.573 199.521C289.975 194.837 291.757 190.377 294.694 186.706C297.631 183.035 301.59 180.317 306.072 178.897C310.553 177.476 315.355 177.416 319.871 178.724C324.386 180.033 328.412 182.651 331.44 186.247C334.468 189.844 336.361 194.257 336.88 198.93C337.225 202.032 336.955 205.172 336.086 208.171C335.218 211.169 333.767 213.967 331.817 216.404C329.867 218.842 327.456 220.871 324.721 222.377C321.987 223.883 318.982 224.835 315.88 225.18Z" fill="white" stroke="#2E353A" stroke-linecap="round" stroke-linejoin="round"/>
<path d="M309.84 170.409C304.016 171.054 298.513 173.412 294.028 177.184C289.543 180.956 286.278 185.973 284.644 191.601C283.011 197.229 283.083 203.215 284.852 208.802C286.621 214.389 290.006 219.326 294.581 222.989C299.156 226.652 304.714 228.876 310.552 229.38C316.391 229.884 322.248 228.645 327.382 225.82C332.517 222.996 336.698 218.712 339.398 213.51C342.098 208.309 343.195 202.424 342.55 196.599C341.683 188.79 337.75 181.644 331.617 176.733C325.483 171.822 317.65 169.548 309.84 170.409ZM315.72 223.489C311.048 224.008 306.326 223.13 302.153 220.966C297.98 218.802 294.542 215.449 292.274 211.33C290.006 207.212 289.011 202.514 289.413 197.83C289.815 193.146 291.598 188.687 294.534 185.016C297.471 181.345 301.431 178.627 305.912 177.206C310.394 175.785 315.196 175.725 319.711 177.034C324.227 178.342 328.253 180.96 331.28 184.557C334.308 188.153 336.201 192.567 336.72 197.239C337.065 200.342 336.795 203.482 335.927 206.48C335.058 209.478 333.607 212.276 331.657 214.714C329.707 217.151 327.296 219.181 324.561 220.687C321.827 222.192 318.823 223.145 315.72 223.489Z" fill="white" stroke="#2E353A" stroke-linecap="round" stroke-linejoin="round"/>
<path d="M317.336 229.86L315.935 230.015C314.354 230.19 313.214 231.614 313.389 233.195L315.664 253.729C315.839 255.31 317.262 256.45 318.843 256.274L320.245 256.119C321.825 255.944 322.965 254.521 322.79 252.94L320.516 232.405C320.341 230.824 318.917 229.685 317.336 229.86Z" fill="#263238" stroke="#2E353A" stroke-linecap="round" stroke-linejoin="round"/>
<path d="M316.88 247L319.88 246.68C321.17 246.542 322.463 246.918 323.477 247.727C324.492 248.536 325.147 249.712 325.3 251L329.79 291.61C329.973 293.27 329.488 294.935 328.444 296.238C327.399 297.542 325.88 298.377 324.22 298.56H324.02C323.198 298.652 322.366 298.581 321.571 298.35C320.776 298.12 320.035 297.735 319.39 297.217C318.744 296.7 318.207 296.06 317.809 295.335C317.411 294.61 317.16 293.813 317.07 292.99L312.58 252.39C312.508 251.747 312.563 251.097 312.743 250.475C312.922 249.853 313.223 249.273 313.627 248.768C314.031 248.263 314.531 247.842 315.097 247.53C315.664 247.218 316.287 247.021 316.93 246.95L316.88 247Z" fill="#2E353A" stroke="#2E353A" stroke-linecap="round" stroke-linejoin="round"/>
<path d="M321.24 280.84C321.24 280.84 314.13 281.1 313.13 282.33C312.13 283.56 312.31 287.84 314.24 288.33C319.16 289.62 329.62 288.87 330.03 287.99C330.44 287.11 331.28 281.99 329.12 281.44C326.512 281.04 323.878 280.84 321.24 280.84Z" fill="white" stroke="#2E353A" stroke-linecap="round" stroke-linejoin="round"/>
<path d="M319.19 270.919C319.19 270.919 310.92 270.609 309.63 272.099C308.34 273.589 308.09 279.159 310.27 279.999C315.83 282.129 328.34 281.299 328.91 280.199C329.48 279.099 330.72 273.389 328.27 272.469C325.82 271.549 319.19 270.919 319.19 270.919Z" fill="white" stroke="#2E353A" stroke-linecap="round" stroke-linejoin="round"/>
<path d="M318 259.72C318 259.72 309.16 259.38 307.78 260.98C306.4 262.58 306.13 268.52 308.46 269.42C314.46 271.7 327.46 271.7 328.07 270.52C328.68 269.34 330.32 262.36 327.7 261.37C325.08 260.38 318 259.72 318 259.72Z" fill="white" stroke="#2E353A" stroke-linecap="round" stroke-linejoin="round"/>
<path d="M312.9 249.239C312.9 249.239 304.06 248.909 302.68 250.499C301.3 252.089 300.97 258.219 303.36 258.939C305.75 259.659 322.36 261.219 322.97 260.049C323.58 258.879 325.22 251.879 322.6 250.889C319.98 249.899 312.9 249.239 312.9 249.239Z" fill="white" stroke="#2E353A" stroke-linecap="round" stroke-linejoin="round"/>
<path d="M341.85 278.649C340.263 278.213 338.76 277.517 337.4 276.589C330.29 271.679 330.53 260.399 330.53 260.399L328.82 259.909C327.408 259.372 326.083 258.627 324.89 257.699C325.463 260.03 325.798 262.412 325.89 264.809C325.865 266.127 325.35 267.388 324.446 268.347C323.542 269.307 322.314 269.895 321 269.999C318.79 270.249 317.81 270.489 317.07 267.549C316.33 264.609 312.66 252.829 312.41 251.109C312.19 249.549 314.81 246.769 318.98 246.109C325.39 246.629 331.71 248.419 338.17 248.419C340.418 248.63 342.572 249.423 344.42 250.719" fill="white"/>
<path d="M341.85 278.649C340.263 278.213 338.76 277.517 337.4 276.589C330.29 271.679 330.53 260.399 330.53 260.399L328.82 259.909C327.408 259.372 326.083 258.627 324.89 257.699C325.463 260.03 325.798 262.412 325.89 264.809C325.865 266.127 325.35 267.388 324.446 268.347C323.542 269.307 322.314 269.895 321 269.999C318.79 270.249 317.81 270.489 317.07 267.549C316.33 264.609 312.66 252.829 312.41 251.109C312.19 249.549 314.81 246.769 318.98 246.109C325.39 246.629 331.71 248.419 338.17 248.419C340.418 248.63 342.572 249.423 344.42 250.719" stroke="#2E353A" stroke-linecap="round" stroke-linejoin="round"/>
<path d="M348.61 279.27C347.831 279.31 347.05 279.31 346.27 279.27Z" fill="white"/>
<path d="M348.61 279.27C347.831 279.31 347.05 279.31 346.27 279.27" stroke="#2E353A" stroke-linecap="round" stroke-linejoin="round"/>
<path d="M353.84 278.301C352.142 278.838 350.387 279.174 348.61 279.301Z" fill="white"/>
<path d="M353.84 278.301C352.142 278.838 350.387 279.174 348.61 279.301" stroke="#2E353A" stroke-linecap="round" stroke-linejoin="round"/>
<path d="M362.67 275.121H371.5" stroke="#2E353A" stroke-linecap="round" stroke-linejoin="round"/>
<path d="M363.41 277.57H367.09" stroke="#2E353A" stroke-linecap="round" stroke-linejoin="round"/>
<path d="M330.53 260.4C330.53 260.4 335.41 260.4 338.61 257.49" stroke="#2E353A" stroke-linecap="round" stroke-linejoin="round"/>
<path d="M324.78 257.381C324.64 256.049 324.361 254.735 323.95 253.461" stroke="#2E353A" stroke-linecap="round" stroke-linejoin="round"/>
<path d="M317 266.26C317 266.26 316.07 263.68 317.2 262.75C318.33 261.82 321.33 260.48 321.85 261.51C322.37 262.54 323.5 267.29 323.19 268.22L322.88 269.15" stroke="#2E353A" stroke-width="0.5" stroke-linecap="round" stroke-linejoin="round"/>
<path d="M452.55 297.55H368V255.99H452.55" fill="#263238"/>
<path d="M452.55 297.55H368V255.99H452.55" stroke="#2E353A" stroke-linecap="round" stroke-linejoin="round"/>
<path d="M374.2 294.771C375.25 294.771 376.1 293.92 376.1 292.871C376.1 291.821 375.25 290.971 374.2 290.971C373.151 290.971 372.3 291.821 372.3 292.871C372.3 293.92 373.151 294.771 374.2 294.771Z" fill="white" stroke="#2E353A" stroke-linecap="round" stroke-linejoin="round"/>
<path d="M239.83 216.41C240.555 216.118 241.213 215.683 241.766 215.132C242.319 214.58 242.756 213.924 243.05 213.2C243.51 212.07 243.4 210.57 244.39 208.82C246.59 204.9 244.63 195.09 245.39 187.97C246.15 180.85 238.27 171.29 238.27 171.29L239.8 143.08H211.8C211.8 143.08 213.02 172.52 210.57 178.89C208.12 185.26 202.97 192.39 203.21 195.58C203.45 198.77 206.42 225 206.42 225L239.78 216.41H239.83Z" fill="white" stroke="#2E353A" stroke-linecap="round" stroke-linejoin="round"/>
<path d="M127 223.69C127.641 229.516 129.994 235.02 133.763 239.508C137.532 243.996 142.547 247.265 148.174 248.902C153.801 250.54 159.788 250.472 165.376 248.707C170.964 246.942 175.904 243.559 179.57 238.987C183.236 234.415 185.464 228.858 185.971 223.02C186.479 217.181 185.244 211.323 182.423 206.187C179.601 201.05 175.32 196.866 170.12 194.163C164.92 191.459 159.035 190.359 153.21 191H153.14C145.342 191.877 138.211 195.812 133.311 201.94C128.41 208.069 126.141 215.891 127 223.69ZM180 217.8C180.521 222.474 179.644 227.198 177.48 231.374C175.317 235.55 171.963 238.99 167.844 241.26C163.725 243.53 159.026 244.528 154.34 244.127C149.654 243.726 145.192 241.945 141.518 239.008C137.844 236.072 135.124 232.112 133.701 227.629C132.278 223.146 132.216 218.342 133.523 213.824C134.831 209.307 137.448 205.278 141.045 202.248C144.641 199.217 149.056 197.322 153.73 196.8C159.998 196.104 166.286 197.924 171.212 201.862C176.138 205.8 179.299 211.533 180 217.8Z" fill="white" stroke="#2E353A" stroke-linecap="round" stroke-linejoin="round"/>
<path d="M207.807 210.936L187.273 213.21C185.692 213.385 184.552 214.809 184.727 216.39L184.882 217.791C185.057 219.372 186.481 220.512 188.062 220.337L208.596 218.062C210.177 217.887 211.317 216.464 211.142 214.883L210.987 213.481C210.812 211.901 209.388 210.761 207.807 210.936Z" fill="#263238" stroke="#2E353A" stroke-linecap="round" stroke-linejoin="round"/>
<path d="M201.86 216.839L201.53 213.839C201.387 212.54 201.766 211.237 202.584 210.217C203.401 209.196 204.591 208.543 205.89 208.399L246.49 203.909C247.316 203.813 248.152 203.882 248.952 204.11C249.751 204.338 250.497 204.722 251.148 205.24C251.798 205.757 252.34 206.398 252.742 207.126C253.144 207.853 253.398 208.653 253.49 209.479V209.679C253.586 210.505 253.518 211.342 253.29 212.141C253.061 212.94 252.678 213.687 252.16 214.337C251.642 214.987 251.001 215.529 250.274 215.931C249.546 216.333 248.746 216.587 247.92 216.679L207.32 221.169C206.023 221.316 204.72 220.943 203.697 220.131C202.673 219.32 202.013 218.136 201.86 216.839Z" fill="#2E353A" stroke="#2E353A" stroke-linecap="round" stroke-linejoin="round"/>
<path d="M235.69 212.48C235.69 212.48 235.96 219.58 237.18 220.58C238.4 221.58 242.7 221.4 243.18 219.47C244.48 214.56 243.72 204.09 242.84 203.69C241.96 203.29 236.84 202.43 236.3 204.6C235.897 207.208 235.694 209.842 235.69 212.48Z" fill="white" stroke="#2E353A" stroke-linecap="round" stroke-linejoin="round"/>
<path d="M225.78 214.52C225.78 214.52 225.46 222.79 226.95 224.08C228.44 225.37 234.01 225.63 234.85 223.44C236.99 217.88 236.15 205.37 235.05 204.81C233.95 204.25 228.24 203 227.32 205.45C226.4 207.9 225.78 214.52 225.78 214.52Z" fill="white" stroke="#2E353A" stroke-linecap="round" stroke-linejoin="round"/>
<path d="M214.58 215.73C214.58 215.73 214.24 224.57 215.83 225.95C217.42 227.33 223.38 227.6 224.28 225.26C226.56 219.32 226.56 206.26 225.38 205.66C224.2 205.06 217.21 203.41 216.23 206.03C215.25 208.65 214.58 215.73 214.58 215.73Z" fill="white" stroke="#2E353A" stroke-linecap="round" stroke-linejoin="round"/>
<path d="M204.1 220.82C204.1 220.82 203.76 229.66 205.36 231.04C206.96 232.42 213.08 232.75 213.8 230.35C214.52 227.95 216.08 211.35 214.9 210.74C213.72 210.13 206.74 208.5 205.75 211.12C204.76 213.74 204.1 220.82 204.1 220.82Z" fill="white" stroke="#2E353A" stroke-linecap="round" stroke-linejoin="round"/>
<path d="M234.12 185.08C234.528 189.019 233.583 192.98 231.44 196.31C226.54 203.43 215.25 203.18 215.25 203.18L214.76 204.9C214.227 206.311 213.481 207.633 212.55 208.82C214.884 208.247 217.269 207.912 219.67 207.82C220.983 207.858 222.236 208.381 223.187 209.287C224.138 210.194 224.719 211.42 224.82 212.73C225.07 214.94 225.31 215.92 222.37 216.65C219.43 217.38 207.65 221.07 205.93 221.32C204.37 221.54 201.59 218.92 200.93 214.75C201.46 208.34 203.25 202.01 203.25 195.56C203.459 193.309 204.252 191.151 205.55 189.3" fill="white"/>
<path d="M234.12 185.08C234.528 189.019 233.583 192.98 231.44 196.31C226.54 203.43 215.25 203.18 215.25 203.18L214.76 204.9C214.227 206.311 213.481 207.633 212.55 208.82C214.884 208.247 217.269 207.912 219.67 207.82C220.983 207.858 222.236 208.381 223.187 209.287C224.138 210.194 224.719 211.42 224.82 212.73C225.07 214.94 225.31 215.92 222.37 216.65C219.43 217.38 207.65 221.07 205.93 221.32C204.37 221.54 201.59 218.92 200.93 214.75C201.46 208.34 203.25 202.01 203.25 195.56C203.459 193.309 204.252 191.151 205.55 189.3" stroke="#2E353A" stroke-linecap="round" stroke-linejoin="round"/>
<path d="M233.16 179.881C233.456 180.816 233.683 181.772 233.84 182.741Z" fill="white"/>
<path d="M233.16 179.881C233.456 180.816 233.683 181.772 233.84 182.741" stroke="#2E353A" stroke-linecap="round" stroke-linejoin="round"/>
<path d="M229.97 171.041V162.211" stroke="#2E353A" stroke-linecap="round" stroke-linejoin="round"/>
<path d="M232.42 170.311V166.631" stroke="#2E353A" stroke-linecap="round" stroke-linejoin="round"/>
<path d="M215.25 203.18C215.25 203.18 215.25 198.3 212.34 195.1" stroke="#2E353A" stroke-linecap="round" stroke-linejoin="round"/>
<path d="M212.24 208.939C210.909 209.077 209.595 209.351 208.32 209.759" stroke="#2E353A" stroke-linecap="round" stroke-linejoin="round"/>
<path d="M221.12 216.68C221.12 216.68 218.54 217.61 217.61 216.47C216.68 215.33 215.34 212.34 216.37 211.83C217.4 211.32 222.15 210.18 223.08 210.49L224.01 210.79" stroke="#2E353A" stroke-width="0.5" stroke-linecap="round" stroke-linejoin="round"/>
<path d="M252.41 81.1602V165.71H210.84V81.1602" fill="#263238"/>
<path d="M252.41 81.1602V165.71H210.84V81.1602" stroke="#2E353A" stroke-linecap="round" stroke-linejoin="round"/>
<path d="M247.72 161.409C248.77 161.409 249.62 160.559 249.62 159.509C249.62 158.46 248.77 157.609 247.72 157.609C246.671 157.609 245.82 158.46 245.82 159.509C245.82 160.559 246.671 161.409 247.72 161.409Z" fill="white" stroke="#2E353A" stroke-linecap="round" stroke-linejoin="round"/>
<path d="M198 367.001C197.71 367.726 197.275 368.385 196.724 368.939C196.172 369.492 195.514 369.928 194.79 370.221C193.66 370.691 192.16 370.581 190.41 371.561C186.49 373.771 176.68 371.811 169.56 372.561C162.44 373.311 152.88 365.451 152.88 365.451L124.64 367.001V339.001C124.64 339.001 154.08 340.231 160.46 337.781C166.84 335.331 173.95 330.171 177.14 330.421C180.33 330.671 206.58 333.611 206.58 333.611L198 367.001Z" fill="white" stroke="#2E353A" stroke-linecap="round" stroke-linejoin="round"/>
<path d="M205.25 254.16C211.075 254.805 216.578 257.163 221.063 260.935C225.547 264.707 228.813 269.724 230.446 275.352C232.08 280.98 232.007 286.966 230.239 292.553C228.47 298.14 225.084 303.077 220.51 306.74C215.935 310.403 210.377 312.627 204.538 313.131C198.7 313.635 192.843 312.396 187.708 309.571C182.574 306.746 178.392 302.463 175.692 297.261C172.992 292.06 171.895 286.175 172.54 280.35C173.405 272.542 177.336 265.398 183.468 260.488C189.601 255.578 197.432 253.306 205.24 254.17L205.25 254.16ZM199.37 307.24C204.044 307.761 208.768 306.884 212.944 304.72C217.12 302.557 220.56 299.203 222.83 295.084C225.1 290.965 226.098 286.266 225.697 281.58C225.296 276.894 223.515 272.432 220.578 268.758C217.642 265.085 213.682 262.364 209.199 260.941C204.716 259.518 199.912 259.456 195.394 260.763C190.877 262.071 186.848 264.688 183.818 268.285C180.787 271.882 178.892 276.296 178.37 280.97C177.674 287.238 179.495 293.526 183.432 298.452C187.37 303.378 193.103 306.539 199.37 307.24Z" fill="white" stroke="#2E353A" stroke-linecap="round" stroke-linejoin="round"/>
<path d="M194.748 314.466L192.474 335.001C192.299 336.582 193.438 338.005 195.019 338.18L196.421 338.336C198.002 338.511 199.425 337.371 199.6 335.79L201.874 315.256C202.05 313.675 200.91 312.251 199.329 312.076L197.928 311.921C196.347 311.746 194.923 312.885 194.748 314.466Z" fill="#263238" stroke="#2E353A" stroke-linecap="round" stroke-linejoin="round"/>
<path d="M191.27 380.661H191.07C190.244 380.57 189.443 380.317 188.715 379.915C187.987 379.513 187.345 378.972 186.827 378.321C186.309 377.67 185.926 376.923 185.698 376.123C185.47 375.324 185.403 374.487 185.5 373.661L189.99 333.061C190.06 332.417 190.256 331.793 190.568 331.225C190.879 330.657 191.299 330.156 191.805 329.751C192.31 329.346 192.891 329.044 193.513 328.864C194.135 328.684 194.787 328.628 195.43 328.701L198.43 329.031C199.73 329.174 200.919 329.828 201.737 330.848C202.555 331.868 202.933 333.171 202.79 334.471L198.3 375.121C198.207 375.946 197.952 376.745 197.55 377.472C197.147 378.199 196.606 378.84 195.955 379.357C195.305 379.874 194.559 380.259 193.761 380.487C192.962 380.716 192.126 380.785 191.3 380.691L191.27 380.661Z" fill="#2E353A" stroke="#2E353A" stroke-linecap="round" stroke-linejoin="round"/>
<path d="M194 362.891C194 362.891 201.1 363.161 202.1 364.381C203.1 365.601 202.92 369.891 200.99 370.381C196.08 371.681 185.61 370.921 185.21 370.041C184.81 369.161 183.95 364.041 186.12 363.491C188.728 363.091 191.362 362.89 194 362.891Z" fill="white" stroke="#2E353A" stroke-linecap="round" stroke-linejoin="round"/>
<path d="M196.08 353C196.08 353 204.35 352.68 205.64 354.17C206.93 355.66 207.19 361.23 205 362.07C199.44 364.2 186.93 363.37 186.37 362.27C185.81 361.17 184.56 355.46 187.01 354.54C189.46 353.62 196.08 353 196.08 353Z" fill="white" stroke="#2E353A" stroke-linecap="round" stroke-linejoin="round"/>
<path d="M197.29 341.771C197.29 341.771 206.13 341.441 207.51 343.031C208.89 344.621 209.16 350.581 206.83 351.471C200.83 353.761 187.83 353.751 187.22 352.581C186.61 351.411 184.97 344.411 187.59 343.421C190.21 342.431 197.29 341.771 197.29 341.771Z" fill="white" stroke="#2E353A" stroke-linecap="round" stroke-linejoin="round"/>
<path d="M202.38 331.3C202.38 331.3 211.22 330.96 212.6 332.55C213.98 334.14 214.31 340.28 211.91 341C209.51 341.72 192.91 343.27 192.3 342.1C191.69 340.93 190.06 333.93 192.68 332.95C195.3 331.97 202.38 331.3 202.38 331.3Z" fill="white" stroke="#2E353A" stroke-linecap="round" stroke-linejoin="round"/>
<path d="M168 361.371C171.487 361.508 174.931 360.554 177.85 358.641C184.97 353.731 184.72 342.451 184.72 342.451L186.44 341.961C187.851 341.427 189.173 340.682 190.36 339.751C189.787 342.081 189.452 344.463 189.36 346.861C189.398 348.175 189.92 349.429 190.827 350.381C191.733 351.334 192.959 351.918 194.27 352.021C196.48 352.261 197.46 352.511 198.2 349.561C198.94 346.611 202.61 334.841 202.86 333.131C203.11 331.421 200.46 328.781 196.29 328.131C189.88 328.661 183.55 330.451 177.1 330.451C174.851 330.661 172.694 331.45 170.84 332.741" fill="white"/>
<path d="M168 361.371C171.487 361.508 174.931 360.554 177.85 358.641C184.97 353.731 184.72 342.451 184.72 342.451L186.44 341.961C187.851 341.427 189.173 340.682 190.36 339.751C189.787 342.081 189.452 344.463 189.36 346.861C189.398 348.175 189.92 349.429 190.827 350.381C191.733 351.334 192.959 351.918 194.27 352.021C196.48 352.261 197.46 352.511 198.2 349.561C198.94 346.611 202.61 334.841 202.86 333.131C203.11 331.421 200.46 328.781 196.29 328.131C189.88 328.661 183.55 330.451 177.1 330.451C174.851 330.661 172.694 331.45 170.84 332.741" stroke="#2E353A" stroke-linecap="round" stroke-linejoin="round"/>
<path d="M161.44 360.359C162.839 360.789 164.275 361.08 165.73 361.229Z" fill="white"/>
<path d="M161.44 360.359C162.839 360.789 164.275 361.08 165.73 361.229" stroke="#2E353A" stroke-linecap="round" stroke-linejoin="round"/>
<path d="M152.6 357.17H143.77" stroke="#2E353A" stroke-linecap="round" stroke-linejoin="round"/>
<path d="M151.87 359.621H148.19" stroke="#2E353A" stroke-linecap="round" stroke-linejoin="round"/>
<path d="M184.74 342.451C184.74 342.451 179.86 342.451 176.66 339.541" stroke="#2E353A" stroke-linecap="round" stroke-linejoin="round"/>
<path d="M190.5 339.43C190.637 338.098 190.912 336.785 191.32 335.51" stroke="#2E353A" stroke-linecap="round" stroke-linejoin="round"/>
<path d="M198.24 348.309C198.24 348.309 199.17 345.729 198.03 344.799C196.89 343.869 193.9 342.529 193.39 343.559C192.88 344.589 191.74 349.349 192.05 350.269L192.36 351.199" stroke="#2E353A" stroke-width="0.5" stroke-linecap="round" stroke-linejoin="round"/>
<path d="M62.7202 379.611H147.27V338.041H62.7202" fill="#263238"/>
<path d="M62.7202 379.611H147.27V338.041H62.7202" stroke="#2E353A" stroke-linecap="round" stroke-linejoin="round"/>
<path d="M139.17 374.92C139.17 375.295 139.282 375.663 139.491 375.975C139.699 376.288 139.996 376.531 140.343 376.675C140.69 376.819 141.073 376.856 141.441 376.783C141.81 376.71 142.148 376.529 142.414 376.263C142.68 375.997 142.861 375.659 142.934 375.29C143.007 374.922 142.97 374.54 142.826 374.192C142.682 373.845 142.438 373.549 142.126 373.34C141.814 373.131 141.446 373.02 141.07 373.02C140.567 373.02 140.083 373.22 139.727 373.576C139.371 373.932 139.17 374.416 139.17 374.92Z" fill="white" stroke="#2E353A" stroke-linecap="round" stroke-linejoin="round"/>
<path d="M158.459 264.343C155.418 264.343 152.807 263.914 150.627 263.057C148.504 262.2 146.869 260.686 145.721 258.514C144.574 256.343 144 253.286 144 249.343V246.343C145.779 246.343 147.529 246.343 149.25 246.343C150.971 246.343 152.693 246.343 154.414 246.343V250.2C154.414 252.314 154.586 253.943 154.93 255.086C155.275 256.171 155.762 256.943 156.393 257.4C157.025 257.8 157.77 258 158.631 258C159.951 258 160.984 257.543 161.73 256.629C162.533 255.657 162.934 253.8 162.934 251.057C162.934 248.943 162.59 247.371 161.902 246.343C161.27 245.257 160.238 244.4 158.803 243.771C157.369 243.086 155.533 242.257 153.295 241.286C151.287 240.429 149.623 239.4 148.303 238.2C146.984 237 146.008 235.486 145.377 233.657C144.746 231.829 144.43 229.6 144.43 226.971C144.43 223.657 144.861 220.971 145.721 218.914C146.639 216.857 148.131 215.371 150.197 214.457C152.32 213.486 155.16 213 158.717 213C163.307 213 166.807 214 169.217 216C171.684 217.943 172.918 220.886 172.918 224.829V230.914C171.254 230.914 169.59 230.914 167.926 230.914C166.32 230.914 164.656 230.914 162.934 230.914V227.829C162.934 225.257 162.619 223.457 161.988 222.429C161.414 221.4 160.352 220.886 158.803 220.886C157.311 220.886 156.25 221.343 155.619 222.257C154.988 223.171 154.672 224.657 154.672 226.714C154.672 228.6 155.045 230.086 155.791 231.171C156.594 232.2 157.598 233 158.803 233.571C160.008 234.086 161.299 234.6 162.676 235.114C165.201 236.086 167.266 237.086 168.873 238.114C170.48 239.086 171.656 240.457 172.402 242.229C173.148 243.943 173.52 246.429 173.52 249.686C173.52 253.343 172.889 256.257 171.627 258.429C170.422 260.543 168.672 262.057 166.377 262.971C164.139 263.886 161.5 264.343 158.459 264.343ZM184.935 264.514C183.558 264.514 182.353 264.057 181.32 263.143C180.345 262.171 179.857 261 179.857 259.629C179.857 258.257 180.345 257.114 181.32 256.2C182.353 255.229 183.558 254.743 184.935 254.743C186.369 254.743 187.603 255.229 188.636 256.2C189.669 257.114 190.185 258.257 190.185 259.629C190.185 261 189.669 262.171 188.636 263.143C187.603 264.057 186.369 264.514 184.935 264.514Z" fill="url(#paint0_linear_2324_369)"/>
<path d="M205.43 252.47C211.252 253.117 216.752 255.475 221.234 259.247C225.715 263.019 228.978 268.035 230.609 273.662C232.24 279.288 232.166 285.271 230.397 290.855C228.628 296.44 225.243 301.374 220.669 305.034C216.096 308.695 210.54 310.917 204.704 311.42C198.867 311.923 193.013 310.684 187.881 307.86C182.749 305.036 178.569 300.753 175.871 295.554C173.172 290.355 172.076 284.472 172.72 278.65C173.148 274.783 174.334 271.038 176.21 267.63C178.086 264.221 180.614 261.215 183.652 258.784C186.689 256.353 190.176 254.544 193.913 253.46C197.65 252.377 201.563 252.041 205.43 252.47ZM199.55 305.55C204.225 306.071 208.948 305.194 213.124 303.03C217.3 300.867 220.74 297.513 223.01 293.394C225.28 289.275 226.278 284.576 225.877 279.89C225.476 275.204 223.695 270.742 220.758 267.068C217.822 263.394 213.862 260.674 209.379 259.251C204.896 257.828 200.092 257.766 195.575 259.073C191.057 260.38 187.028 262.998 183.998 266.595C180.967 270.191 179.072 274.606 178.55 279.28C177.857 285.545 179.679 291.83 183.617 296.752C187.555 301.674 193.286 304.831 199.55 305.53V305.55Z" fill="white" stroke="#2E353A" stroke-linecap="round" stroke-linejoin="round"/>
<path d="M125.27 223.869C125.917 229.691 128.275 235.19 132.046 239.672C135.818 244.154 140.833 247.417 146.459 249.048C152.084 250.68 158.067 250.607 163.652 248.838C169.236 247.07 174.17 243.686 177.831 239.113C181.492 234.541 183.715 228.986 184.219 223.15C184.724 217.314 183.486 211.46 180.664 206.328C177.841 201.195 173.56 197.015 168.362 194.315C163.164 191.615 157.282 190.517 151.46 191.159C147.592 191.586 143.846 192.771 140.437 194.646C137.027 196.521 134.02 199.05 131.588 202.088C129.155 205.125 127.346 208.612 126.262 212.35C125.178 216.087 124.841 220.002 125.27 223.869ZM178.35 217.999C178.869 222.672 177.991 227.393 175.827 231.567C173.663 235.74 170.309 239.178 166.191 241.446C162.073 243.713 157.375 244.709 152.691 244.307C148.007 243.904 143.548 242.122 139.877 239.185C136.206 236.248 133.488 232.289 132.067 227.807C130.646 223.326 130.586 218.524 131.895 214.008C133.203 209.493 135.821 205.467 139.418 202.439C143.014 199.412 147.428 197.518 152.1 196.999C155.203 196.654 158.343 196.924 161.341 197.793C164.339 198.662 167.137 200.113 169.575 202.063C172.012 204.013 174.042 206.424 175.547 209.158C177.053 211.892 178.006 214.897 178.35 217.999Z" fill="white" stroke="#2E353A" stroke-linecap="round" stroke-linejoin="round"/>
<defs>
<linearGradient id="paint0_linear_2324_369" x1="141.934" y1="253.947" x2="194.153" y2="240.549" gradientUnits="userSpaceOnUse">
<stop stop-color="#485563"/>
<stop offset="1" stop-color="#29323C"/>
</linearGradient>
</defs>
</svg>
