<svg width="122" height="91" viewBox="0 0 122 91" fill="none" xmlns="http://www.w3.org/2000/svg">
<path d="M25.7996 90.0492C20.4996 90.0492 15.9496 89.2992 12.1496 87.7992C8.44961 86.2992 5.59961 83.6492 3.59961 79.8492C1.59961 76.0492 0.599609 70.6992 0.599609 63.7992V58.5492C3.69961 58.5492 6.74961 58.5492 9.74961 58.5492C12.7496 58.5492 15.7496 58.5492 18.7496 58.5492V65.2992C18.7496 68.9992 19.0496 71.8492 19.6496 73.8492C20.2496 75.7492 21.0996 77.0992 22.1996 77.8992C23.2996 78.5992 24.5996 78.9492 26.0996 78.9492C28.3996 78.9492 30.1996 78.1492 31.4996 76.5492C32.8996 74.8492 33.5996 71.5992 33.5996 66.7992C33.5996 63.0992 32.9996 60.3492 31.7996 58.5492C30.6996 56.6492 28.8996 55.1492 26.3996 54.0492C23.8996 52.8492 20.6996 51.3992 16.7996 49.6992C13.2996 48.1992 10.3996 46.3992 8.09961 44.2992C5.79961 42.1992 4.09961 39.5492 2.99961 36.3492C1.89961 33.1492 1.34961 29.2492 1.34961 24.6492C1.34961 18.8492 2.09961 14.1492 3.59961 10.5492C5.19961 6.94922 7.79961 4.34922 11.3996 2.74921C15.0996 1.04922 20.0496 0.199219 26.2496 0.199219C34.2496 0.199219 40.3496 1.94922 44.5496 5.44921C48.8496 8.84922 50.9996 13.9992 50.9996 20.8992V31.5492C48.0996 31.5492 45.1996 31.5492 42.2996 31.5492C39.4996 31.5492 36.5996 31.5492 33.5996 31.5492V26.1492C33.5996 21.6492 33.0496 18.4992 31.9496 16.6992C30.9496 14.8992 29.0996 13.9992 26.3996 13.9992C23.7996 13.9992 21.9496 14.7992 20.8496 16.3992C19.7496 17.9992 19.1996 20.5992 19.1996 24.1992C19.1996 27.4992 19.8496 30.0992 21.1496 31.9992C22.5496 33.7992 24.2996 35.1992 26.3996 36.1992C28.4996 37.0992 30.7496 37.9992 33.1496 38.8992C37.5496 40.5992 41.1496 42.3492 43.9496 44.1492C46.7496 45.8492 48.7996 48.2492 50.0996 51.3492C51.3996 54.3492 52.0496 58.6992 52.0496 64.3992C52.0496 70.7992 50.9496 75.8992 48.7496 79.6992C46.6496 83.3992 43.5996 86.0492 39.5996 87.6492C35.6996 89.2492 31.0996 90.0492 25.7996 90.0492ZM71.9434 90.3492C69.5434 90.3492 67.4434 89.5492 65.6434 87.9492C63.9434 86.2492 63.0934 84.1992 63.0934 81.7992C63.0934 79.3992 63.9434 77.3992 65.6434 75.7992C67.4434 74.0992 69.5434 73.2492 71.9434 73.2492C74.4434 73.2492 76.5934 74.0992 78.3934 75.7992C80.1934 77.3992 81.0934 79.3992 81.0934 81.7992C81.0934 84.1992 80.1934 86.2492 78.3934 87.9492C76.5934 89.5492 74.4434 90.3492 71.9434 90.3492Z" fill="url(#paint0_linear_2314_59)"/>
<defs>
<linearGradient id="paint0_linear_2314_59" x1="-3.00039" y1="71.857" x2="88.0542" y2="48.59" gradientUnits="userSpaceOnUse">
<stop stop-color="#485563"/>
<stop offset="1" stop-color="#29323C"/>
</linearGradient>
</defs>
</svg>
