<svg width="546" height="597" viewBox="0 0 546 597" fill="none" xmlns="http://www.w3.org/2000/svg">
<path d="M340.901 596.9C334.815 596.871 328.85 595.201 323.634 592.066L212.501 525.4C199.999 517.856 189.65 507.219 182.452 494.515C175.253 481.811 171.447 467.468 171.401 452.866V302.033C171.431 291.386 168.12 280.998 161.934 272.333L6.76732 54.2662C3.14409 49.2321 0.981961 43.2949 0.519505 37.1097C0.057049 30.9245 1.31224 24.7318 4.14658 19.2148C6.98093 13.6978 11.2842 9.07108 16.5817 5.84505C21.8792 2.61902 27.9649 0.919118 34.1673 0.932909H511.834C518.041 0.907044 524.135 2.59953 529.44 5.82299C534.744 9.04644 539.054 13.6751 541.89 19.1965C544.727 24.7179 545.98 30.9166 545.511 37.1062C545.043 43.2959 542.87 49.2351 539.234 54.2662L384.067 272.333C377.871 280.995 374.549 291.383 374.567 302.033V563.166C374.559 572.099 371.011 580.664 364.701 586.986C358.391 593.308 349.833 596.873 340.901 596.9ZM34.1673 34.4329L189.067 253C199.302 267.297 204.783 284.45 204.734 302.033V452.833C204.756 461.679 207.059 470.37 211.421 478.066C215.783 485.762 222.056 492.203 229.634 496.766L340.767 563.433L341.234 302C341.197 284.413 346.689 267.26 356.934 252.966L512.067 34.8996L34.1673 34.4329Z" fill="white"/>
</svg>
