<svg width="101" height="24" viewBox="0 0 101 24" fill="none" xmlns="http://www.w3.org/2000/svg">
<path d="M5.64 20.21C4.66 20.21 3.81 20.06 3.09 19.76C2.37 19.46 1.82 18.93 1.44 18.17C1.08 17.41 0.9 16.34 0.9 14.96V13.94C1.38 13.94 1.87 13.94 2.37 13.94C2.87 13.94 3.36 13.94 3.84 13.94V15.2C3.84 16.04 3.92 16.69 4.08 17.15C4.24 17.61 4.46 17.93 4.74 18.11C5.02 18.27 5.34 18.35 5.7 18.35C6.28 18.35 6.74 18.16 7.08 17.78C7.44 17.38 7.62 16.64 7.62 15.56C7.62 14.76 7.5 14.16 7.26 13.76C7.02 13.36 6.64 13.04 6.12 12.8C5.62 12.54 4.97 12.25 4.17 11.93C3.51 11.63 2.94 11.28 2.46 10.88C1.98 10.48 1.62 9.97 1.38 9.35C1.14 8.73 1.02 7.96 1.02 7.04C1.02 5.92 1.16 5.01 1.44 4.31C1.74 3.59 2.24 3.07 2.94 2.75C3.64 2.41 4.58 2.24 5.76 2.24C7.28 2.24 8.44 2.59 9.24 3.29C10.04 3.97 10.44 4.97 10.44 6.29V8.36C9.98 8.36 9.51 8.36 9.03 8.36C8.57 8.36 8.1 8.36 7.62 8.36V7.13C7.62 6.21 7.47 5.55 7.17 5.15C6.89 4.73 6.43 4.52 5.79 4.52C5.13 4.52 4.65 4.72 4.35 5.12C4.07 5.5 3.93 6.11 3.93 6.95C3.93 7.67 4.07 8.23 4.35 8.63C4.63 9.01 4.99 9.31 5.43 9.53C5.89 9.75 6.36 9.95 6.84 10.13C7.74 10.47 8.47 10.82 9.03 11.18C9.59 11.54 10 12.02 10.26 12.62C10.52 13.22 10.65 14.07 10.65 15.17C10.65 16.43 10.44 17.43 10.02 18.17C9.62 18.89 9.04 19.41 8.28 19.73C7.54 20.05 6.66 20.21 5.64 20.21ZM16.9737 20.24C16.4737 20.24 15.9937 20.17 15.5337 20.03C15.0937 19.89 14.7137 19.6 14.3937 19.16C14.0937 18.7 13.9437 18 13.9437 17.06V15.29C13.9437 14.31 14.2237 13.53 14.7837 12.95C15.3637 12.35 16.2237 11.82 17.3637 11.36C18.0237 11.08 18.5437 10.83 18.9237 10.61C19.3237 10.39 19.6137 10.13 19.7937 9.83C19.9737 9.53 20.0637 9.12 20.0637 8.6V7.85C20.0637 7.47 19.9837 7.18 19.8237 6.98C19.6837 6.78 19.4937 6.64 19.2537 6.56C19.0337 6.46 18.7737 6.41 18.4737 6.41C17.8137 6.41 17.3737 6.61 17.1537 7.01C16.9537 7.41 16.8537 8.05 16.8537 8.93V10.19H14.3037V8.66C14.3037 7.92 14.4037 7.27 14.6037 6.71C14.8037 6.13 15.2037 5.68 15.8037 5.36C16.4037 5.02 17.2937 4.85 18.4737 4.85C19.6937 4.85 20.6137 4.97 21.2337 5.21C21.8737 5.45 22.3137 5.82 22.5537 6.32C22.7937 6.8 22.9137 7.42 22.9137 8.18V20H20.0937V18.29C19.8937 18.91 19.4937 19.39 18.8937 19.73C18.3137 20.07 17.6737 20.24 16.9737 20.24ZM18.1437 18.35C18.8237 18.35 19.3037 18.11 19.5837 17.63C19.8837 17.13 20.0337 16.44 20.0337 15.56V11.39C19.8937 11.63 19.6437 11.85 19.2837 12.05C18.9237 12.25 18.5737 12.46 18.2337 12.68C17.7337 12.98 17.3537 13.3 17.0937 13.64C16.8337 13.96 16.7037 14.41 16.7037 14.99V16.4C16.7037 16.94 16.7637 17.36 16.8837 17.66C17.0237 17.94 17.2037 18.13 17.4237 18.23C17.6637 18.31 17.9037 18.35 18.1437 18.35ZM26.79 23.48V5.15H29.52L29.58 6.38C29.76 6 30.04 5.66 30.42 5.36C30.8 5.06 31.42 4.91 32.28 4.91C33.06 4.91 33.7 5.05 34.2 5.33C34.72 5.59 35.1 5.99 35.34 6.53C35.58 7.05 35.7 7.72 35.7 8.54V15.8C35.7 16.8 35.59 17.63 35.37 18.29C35.15 18.93 34.79 19.41 34.29 19.73C33.79 20.03 33.12 20.18 32.28 20.18C31.54 20.18 30.96 20.06 30.54 19.82C30.12 19.58 29.81 19.29 29.61 18.95V23.48H26.79ZM31.26 18.56C31.66 18.56 31.97 18.51 32.19 18.41C32.41 18.29 32.57 18.13 32.67 17.93C32.77 17.73 32.83 17.5 32.85 17.24C32.87 16.98 32.88 16.7 32.88 16.4V8.87C32.88 8.57 32.87 8.29 32.85 8.03C32.83 7.77 32.77 7.54 32.67 7.34C32.57 7.12 32.41 6.96 32.19 6.86C31.97 6.74 31.66 6.68 31.26 6.68C30.86 6.68 30.55 6.75 30.33 6.89C30.11 7.03 29.95 7.21 29.85 7.43C29.75 7.63 29.68 7.86 29.64 8.12C29.62 8.38 29.61 8.62 29.61 8.84V16.52C29.61 16.92 29.65 17.28 29.73 17.6C29.81 17.9 29.96 18.14 30.18 18.32C30.42 18.48 30.78 18.56 31.26 18.56ZM42.8107 20.21C41.8107 20.21 41.0607 20.04 40.5607 19.7C40.0807 19.36 39.7607 18.9 39.6007 18.32C39.4607 17.72 39.3907 17.04 39.3907 16.28V5.15H42.2107V16.07C42.2107 16.43 42.2307 16.77 42.2707 17.09C42.3307 17.41 42.4707 17.68 42.6907 17.9C42.9307 18.1 43.3107 18.2 43.8307 18.2C44.2107 18.2 44.5107 18.14 44.7307 18.02C44.9507 17.9 45.1207 17.76 45.2407 17.6C45.3607 17.42 45.4407 17.25 45.4807 17.09V5.15H48.3007V20H45.9007L45.6907 18.29C45.5107 18.81 45.1707 19.26 44.6707 19.64C44.1907 20.02 43.5707 20.21 42.8107 20.21ZM52.6172 20V2.27H55.1072L59.5172 14.21V2.27H62.0672V20H59.5472L55.1672 8.69V20H52.6172ZM66.3584 20V5.15H69.1784V20H66.3584ZM67.7684 3.41C67.3684 3.41 67.0284 3.28 66.7484 3.02C66.4884 2.76 66.3584 2.44 66.3584 2.06C66.3584 1.68 66.4884 1.36 66.7484 1.1C67.0284 0.839999 67.3684 0.71 67.7684 0.71C68.1484 0.71 68.4784 0.839999 68.7584 1.1C69.0584 1.36 69.2084 1.68 69.2084 2.06C69.2084 2.44 69.0584 2.76 68.7584 3.02C68.4784 3.28 68.1484 3.41 67.7684 3.41ZM79.459 20L76.399 11.39L79.729 5.15H82.519L79.099 11.42L82.519 20H79.459ZM73.249 20V1.01H76.069V20H73.249ZM89.3201 20.24C88.3401 20.24 87.5101 20.12 86.8301 19.88C86.1701 19.62 85.6701 19.15 85.3301 18.47C85.0101 17.79 84.8501 16.81 84.8501 15.53V8.99C84.8501 7.49 85.2101 6.43 85.9301 5.81C86.6501 5.19 87.7801 4.88 89.3201 4.88C90.8401 4.88 91.9601 5.19 92.6801 5.81C93.4001 6.41 93.7601 7.47 93.7601 8.99V15.53C93.7601 16.81 93.5901 17.79 93.2501 18.47C92.9301 19.15 92.4401 19.62 91.7801 19.88C91.1201 20.12 90.3001 20.24 89.3201 20.24ZM89.3201 18.53C89.9001 18.53 90.3101 18.38 90.5501 18.08C90.8101 17.76 90.9401 17.2 90.9401 16.4V8.75C90.9401 7.97 90.8201 7.42 90.5801 7.1C90.3401 6.78 89.9201 6.62 89.3201 6.62C88.7401 6.62 88.3201 6.78 88.0601 7.1C87.8001 7.4 87.6701 7.95 87.6701 8.75V16.4C87.6701 17.2 87.8001 17.76 88.0601 18.08C88.3201 18.38 88.7401 18.53 89.3201 18.53ZM99.2878 20.24C98.8678 20.24 98.5078 20.1 98.2078 19.82C97.9078 19.52 97.7578 19.17 97.7578 18.77C97.7578 18.35 97.9078 18 98.2078 17.72C98.5078 17.44 98.8678 17.3 99.2878 17.3C99.7078 17.3 100.068 17.44 100.368 17.72C100.688 18 100.848 18.35 100.848 18.77C100.848 19.17 100.688 19.52 100.368 19.82C100.068 20.1 99.7078 20.24 99.2878 20.24Z" fill="white"/>
</svg>
