<svg xmlns="http://www.w3.org/2000/svg" xmlns:xlink="http://www.w3.org/1999/xlink" width="120" zoomAndPan="magnify" viewBox="0 0 90 58.499998" height="78" preserveAspectRatio="xMidYMid meet" version="1.0"><defs><filter x="0%" y="0%" width="100%" height="100%" id="bbb394c36d"><feColorMatrix values="0 0 0 0 1 0 0 0 0 1 0 0 0 0 1 0 0 0 1 0" color-interpolation-filters="sRGB"/></filter><clipPath id="efc2511e9f"><path d="M 0.382812 0 L 89.617188 0 L 89.617188 58.003906 L 0.382812 58.003906 Z M 0.382812 0 " clip-rule="nonzero"/></clipPath><mask id="b61a1aa3db"><g filter="url(#bbb394c36d)"><rect x="-9" width="108" fill="#000000" y="-5.85" height="70.199998" fill-opacity="0.84"/></g></mask><clipPath id="9455aae969"><path d="M 33 53 L 40 53 L 40 58.003906 L 33 58.003906 Z M 33 53 " clip-rule="nonzero"/></clipPath><clipPath id="1e531351f5"><path d="M 36 53 L 43 53 L 43 58.003906 L 36 58.003906 Z M 36 53 " clip-rule="nonzero"/></clipPath><clipPath id="37df7728ff"><path d="M 42 53 L 48 53 L 48 58.003906 L 42 58.003906 Z M 42 53 " clip-rule="nonzero"/></clipPath><clipPath id="2aae9e81fc"><path d="M 50 53 L 57 53 L 57 58.003906 L 50 58.003906 Z M 50 53 " clip-rule="nonzero"/></clipPath><clipPath id="1271dbcb67"><path d="M 53 53 L 59 53 L 59 58.003906 L 53 58.003906 Z M 53 53 " clip-rule="nonzero"/></clipPath><clipPath id="448734e912"><path d="M 56 53 L 62 53 L 62 58.003906 L 56 58.003906 Z M 56 53 " clip-rule="nonzero"/></clipPath><clipPath id="9a21f290d1"><path d="M 64 53 L 71 53 L 71 58.003906 L 64 58.003906 Z M 64 53 " clip-rule="nonzero"/></clipPath><clipPath id="14da011d38"><path d="M 67 53 L 73 53 L 73 58.003906 L 67 58.003906 Z M 67 53 " clip-rule="nonzero"/></clipPath><clipPath id="6326d60e87"><path d="M 70 53 L 76 53 L 76 58.003906 L 70 58.003906 Z M 70 53 " clip-rule="nonzero"/></clipPath><clipPath id="a53b938b0f"><path d="M 72 53 L 79 53 L 79 58.003906 L 72 58.003906 Z M 72 53 " clip-rule="nonzero"/></clipPath><clipPath id="87a37a5380"><path d="M 75 53 L 82 53 L 82 58.003906 L 75 58.003906 Z M 75 53 " clip-rule="nonzero"/></clipPath><clipPath id="887d067e9c"><path d="M 78 53 L 84 53 L 84 58.003906 L 78 58.003906 Z M 78 53 " clip-rule="nonzero"/></clipPath><clipPath id="f4308de648"><path d="M 81 53 L 87 53 L 87 58.003906 L 81 58.003906 Z M 81 53 " clip-rule="nonzero"/></clipPath><clipPath id="ac52df2d1f"><path d="M 83 43 L 89.617188 43 L 89.617188 49 L 83 49 Z M 83 43 " clip-rule="nonzero"/></clipPath><clipPath id="a946dc557a"><path d="M 83 38 L 89.617188 38 L 89.617188 44 L 83 44 Z M 83 38 " clip-rule="nonzero"/></clipPath><clipPath id="c3752fb74f"><path d="M 0.382812 29 L 7 29 L 7 34 L 0.382812 34 Z M 0.382812 29 " clip-rule="nonzero"/></clipPath><clipPath id="6c0ab21687"><rect x="0" width="90" y="0" height="59"/></clipPath></defs><g clip-path="url(#efc2511e9f)"><g mask="url(#b61a1aa3db)"><g transform="matrix(1, 0, 0, 1, 0.000000000000000056, 0)"><g clip-path="url(#6c0ab21687)"><g clip-path="url(#9455aae969)"><path fill="#eeeeee" d="M 33.863281 53.167969 L 36.640625 58.003906 L 39.429688 53.167969 Z M 33.863281 53.167969 " fill-opacity="0.06" fill-rule="nonzero"/></g><g clip-path="url(#1e531351f5)"><path fill="#b5b5b5" d="M 42.210938 58.003906 L 39.429688 53.167969 L 36.640625 58.003906 Z M 42.210938 58.003906 " fill-opacity="0.29" fill-rule="nonzero"/></g><g clip-path="url(#37df7728ff)"><path fill="#c5c5c5" d="M 47.789062 58.003906 L 45 53.167969 L 42.210938 58.003906 Z M 47.789062 58.003906 " fill-opacity="0.23" fill-rule="nonzero"/></g><g clip-path="url(#2aae9e81fc)"><path fill="#7a7a7a" d="M 50.570312 53.167969 L 53.359375 58.003906 L 56.136719 53.167969 Z M 50.570312 53.167969 " fill-opacity="0.52" fill-rule="nonzero"/></g><g clip-path="url(#1271dbcb67)"><path fill="#6d6d6d" d="M 58.929688 58.003906 L 56.136719 53.167969 L 53.359375 58.003906 Z M 58.929688 58.003906 " fill-opacity="0.57" fill-rule="nonzero"/></g><g clip-path="url(#448734e912)"><path fill="#858585" d="M 56.136719 53.167969 L 58.929688 58.003906 L 61.707031 53.167969 Z M 56.136719 53.167969 " fill-opacity="0.48" fill-rule="nonzero"/></g><g clip-path="url(#9a21f290d1)"><path fill="#aeaeae" d="M 70.066406 58.003906 L 67.273438 53.167969 L 64.496094 58.003906 Z M 70.066406 58.003906 " fill-opacity="0.32" fill-rule="nonzero"/></g><g clip-path="url(#14da011d38)"><path fill="#adadad" d="M 67.273438 53.167969 L 70.066406 58.003906 L 72.855469 53.167969 Z M 67.273438 53.167969 " fill-opacity="0.32" fill-rule="nonzero"/></g><g clip-path="url(#6326d60e87)"><path fill="#aaaaaa" d="M 75.632812 58.003906 L 72.855469 53.167969 L 70.066406 58.003906 Z M 75.632812 58.003906 " fill-opacity="0.33" fill-rule="nonzero"/></g><g clip-path="url(#a53b938b0f)"><path fill="#b7b7b7" d="M 72.855469 53.167969 L 75.632812 58.003906 L 78.425781 53.167969 Z M 72.855469 53.167969 " fill-opacity="0.28" fill-rule="nonzero"/></g><g clip-path="url(#87a37a5380)"><path fill="#acacac" d="M 81.203125 58.003906 L 78.425781 53.167969 L 75.632812 58.003906 Z M 81.203125 58.003906 " fill-opacity="0.32" fill-rule="nonzero"/></g><g clip-path="url(#887d067e9c)"><path fill="#c1c1c1" d="M 78.425781 53.167969 L 81.203125 58.003906 L 83.992188 53.167969 Z M 78.425781 53.167969 " fill-opacity="0.24" fill-rule="nonzero"/></g><g clip-path="url(#f4308de648)"><path fill="#f8f8f8" d="M 86.773438 58.003906 L 83.992188 53.167969 L 81.203125 58.003906 Z M 86.773438 58.003906 " fill-opacity="0.03" fill-rule="nonzero"/></g><path fill="#e6e6e6" d="M 19.933594 48.339844 L 22.714844 53.167969 L 25.503906 48.339844 Z M 19.933594 48.339844 " fill-opacity="0.1" fill-rule="nonzero"/><path fill="#898989" d="M 28.292969 53.167969 L 25.503906 48.339844 L 22.714844 53.167969 Z M 28.292969 53.167969 " fill-opacity="0.46" fill-rule="nonzero"/><path fill="#d4d4d4" d="M 25.503906 48.339844 L 28.292969 53.167969 L 31.070312 48.339844 Z M 25.503906 48.339844 " fill-opacity="0.17" fill-rule="nonzero"/><path fill="#9f9f9f" d="M 33.863281 53.167969 L 31.070312 48.339844 L 28.292969 53.167969 Z M 33.863281 53.167969 " fill-opacity="0.38" fill-rule="nonzero"/><path fill="#ebebeb" d="M 31.070312 48.339844 L 33.863281 53.167969 L 36.640625 48.339844 Z M 31.070312 48.339844 " fill-opacity="0.08" fill-rule="nonzero"/><path fill="#d1d1d1" d="M 39.429688 53.167969 L 36.640625 48.339844 L 33.863281 53.167969 Z M 39.429688 53.167969 " fill-opacity="0.18" fill-rule="nonzero"/><path fill="#9a9a9a" d="M 36.640625 48.339844 L 39.429688 53.167969 L 42.210938 48.339844 Z M 36.640625 48.339844 " fill-opacity="0.4" fill-rule="nonzero"/><path fill="#a5a5a5" d="M 45 53.167969 L 42.210938 48.339844 L 39.429688 53.167969 Z M 45 53.167969 " fill-opacity="0.35" fill-rule="nonzero"/><path fill="#b0b0b0" d="M 42.210938 48.339844 L 45 53.167969 L 47.789062 48.339844 Z M 42.210938 48.339844 " fill-opacity="0.31" fill-rule="nonzero"/><path fill="#9f9f9f" d="M 50.570312 53.167969 L 47.789062 48.339844 L 45 53.167969 Z M 50.570312 53.167969 " fill-opacity="0.38" fill-rule="nonzero"/><path fill="#979797" d="M 47.789062 48.339844 L 50.570312 53.167969 L 53.359375 48.339844 Z M 47.789062 48.339844 " fill-opacity="0.41" fill-rule="nonzero"/><path fill="#808080" d="M 56.136719 53.167969 L 53.359375 48.339844 L 50.570312 53.167969 Z M 56.136719 53.167969 " fill-opacity="0.5" fill-rule="nonzero"/><path fill="#757575" d="M 53.359375 48.339844 L 56.136719 53.167969 L 58.929688 48.339844 Z M 53.359375 48.339844 " fill-opacity="0.54" fill-rule="nonzero"/><path fill="#969696" d="M 61.707031 53.167969 L 58.929688 48.339844 L 56.136719 53.167969 Z M 61.707031 53.167969 " fill-opacity="0.41" fill-rule="nonzero"/><path fill="#a2a2a2" d="M 58.929688 48.339844 L 61.707031 53.167969 L 64.496094 48.339844 Z M 58.929688 48.339844 " fill-opacity="0.37" fill-rule="nonzero"/><path fill="#a6a6a6" d="M 67.273438 53.167969 L 64.496094 48.339844 L 61.707031 53.167969 Z M 67.273438 53.167969 " fill-opacity="0.35" fill-rule="nonzero"/><path fill="#a5a5a5" d="M 64.496094 48.339844 L 67.273438 53.167969 L 70.066406 48.339844 Z M 64.496094 48.339844 " fill-opacity="0.35" fill-rule="nonzero"/><path fill="#ababab" d="M 72.855469 53.167969 L 70.066406 48.339844 L 67.273438 53.167969 Z M 72.855469 53.167969 " fill-opacity="0.33" fill-rule="nonzero"/><path fill="#b4b4b4" d="M 70.066406 48.339844 L 72.855469 53.167969 L 75.632812 48.339844 Z M 70.066406 48.339844 " fill-opacity="0.29" fill-rule="nonzero"/><path fill="#c1c1c1" d="M 78.425781 53.167969 L 75.632812 48.339844 L 72.855469 53.167969 Z M 78.425781 53.167969 " fill-opacity="0.24" fill-rule="nonzero"/><path fill="#b9b9b9" d="M 75.632812 48.339844 L 78.425781 53.167969 L 81.203125 48.339844 Z M 75.632812 48.339844 " fill-opacity="0.28" fill-rule="nonzero"/><path fill="#ededed" d="M 81.203125 48.339844 L 83.992188 53.167969 L 86.773438 48.339844 Z M 81.203125 48.339844 " fill-opacity="0.07" fill-rule="nonzero"/><path fill="#fdfdfd" d="M 11.574219 43.503906 L 14.367188 48.339844 L 17.144531 43.503906 Z M 11.574219 43.503906 " fill-opacity="0.01" fill-rule="nonzero"/><path fill="#f4f4f4" d="M 19.933594 48.339844 L 17.144531 43.503906 L 14.367188 48.339844 Z M 19.933594 48.339844 " fill-opacity="0.04" fill-rule="nonzero"/><path fill="#c0c0c0" d="M 17.144531 43.503906 L 19.933594 48.339844 L 22.714844 43.503906 Z M 17.144531 43.503906 " fill-opacity="0.25" fill-rule="nonzero"/><path fill="#b2b2b2" d="M 25.503906 48.339844 L 22.714844 43.503906 L 19.933594 48.339844 Z M 25.503906 48.339844 " fill-opacity="0.3" fill-rule="nonzero"/><path fill="#acacac" d="M 22.714844 43.503906 L 25.503906 48.339844 L 28.292969 43.503906 Z M 22.714844 43.503906 " fill-opacity="0.33" fill-rule="nonzero"/><path fill="#aeaeae" d="M 31.070312 48.339844 L 28.292969 43.503906 L 25.503906 48.339844 Z M 31.070312 48.339844 " fill-opacity="0.32" fill-rule="nonzero"/><path fill="#777777" d="M 36.640625 48.339844 L 33.863281 43.503906 L 31.070312 48.339844 Z M 36.640625 48.339844 " fill-opacity="0.53" fill-rule="nonzero"/><path fill="#767676" d="M 33.863281 43.503906 L 36.640625 48.339844 L 39.429688 43.503906 Z M 33.863281 43.503906 " fill-opacity="0.54" fill-rule="nonzero"/><path fill="#8f8f8f" d="M 39.429688 43.503906 L 42.210938 48.339844 L 45 43.503906 Z M 39.429688 43.503906 " fill-opacity="0.44" fill-rule="nonzero"/><path fill="#a9a9a9" d="M 45 43.503906 L 47.789062 48.339844 L 50.570312 43.503906 Z M 45 43.503906 " fill-opacity="0.34" fill-rule="nonzero"/><path fill="#868686" d="M 53.359375 48.339844 L 50.570312 43.503906 L 47.789062 48.339844 Z M 53.359375 48.339844 " fill-opacity="0.47" fill-rule="nonzero"/><path fill="#7b7b7b" d="M 50.570312 43.503906 L 53.359375 48.339844 L 56.136719 43.503906 Z M 50.570312 43.503906 " fill-opacity="0.52" fill-rule="nonzero"/><path fill="#949494" d="M 64.496094 48.339844 L 61.707031 43.503906 L 58.929688 48.339844 Z M 64.496094 48.339844 " fill-opacity="0.42" fill-rule="nonzero"/><path fill="#959595" d="M 61.707031 43.503906 L 64.496094 48.339844 L 67.273438 43.503906 Z M 61.707031 43.503906 " fill-opacity="0.42" fill-rule="nonzero"/><path fill="#c8c8c8" d="M 75.632812 48.339844 L 72.855469 43.503906 L 70.066406 48.339844 Z M 75.632812 48.339844 " fill-opacity="0.21" fill-rule="nonzero"/><path fill="#c6c6c6" d="M 72.855469 43.503906 L 75.632812 48.339844 L 78.425781 43.503906 Z M 72.855469 43.503906 " fill-opacity="0.22" fill-rule="nonzero"/><path fill="#ababab" d="M 78.425781 43.503906 L 81.203125 48.339844 L 83.992188 43.503906 Z M 78.425781 43.503906 " fill-opacity="0.33" fill-rule="nonzero"/><path fill="#e6e6e6" d="M 86.773438 48.339844 L 83.992188 43.503906 L 81.203125 48.339844 Z M 86.773438 48.339844 " fill-opacity="0.1" fill-rule="nonzero"/><g clip-path="url(#ac52df2d1f)"><path fill="#f5f5f5" d="M 83.992188 43.503906 L 86.773438 48.339844 L 89.5625 43.503906 Z M 83.992188 43.503906 " fill-opacity="0.04" fill-rule="nonzero"/></g><path fill="#f9f9f9" d="M 11.574219 43.503906 L 8.796875 38.664062 L 6.007812 43.503906 Z M 11.574219 43.503906 " fill-opacity="0.03" fill-rule="nonzero"/><path fill="#fcfcfc" d="M 8.796875 38.664062 L 11.574219 43.503906 L 14.367188 38.664062 Z M 8.796875 38.664062 " fill-opacity="0.01" fill-rule="nonzero"/><path fill="#b3b3b3" d="M 17.144531 43.503906 L 14.367188 38.664062 L 11.574219 43.503906 Z M 17.144531 43.503906 " fill-opacity="0.3" fill-rule="nonzero"/><path fill="#6c6c6c" d="M 22.714844 43.503906 L 19.933594 38.664062 L 17.144531 43.503906 Z M 22.714844 43.503906 " fill-opacity="0.58" fill-rule="nonzero"/><path fill="#616161" d="M 28.292969 43.503906 L 25.503906 38.664062 L 22.714844 43.503906 Z M 28.292969 43.503906 " fill-opacity="0.62" fill-rule="nonzero"/><path fill="#676767" d="M 25.503906 38.664062 L 28.292969 43.503906 L 31.070312 38.664062 Z M 25.503906 38.664062 " fill-opacity="0.6" fill-rule="nonzero"/><path fill="#5f5f5f" d="M 33.863281 43.503906 L 31.070312 38.664062 L 28.292969 43.503906 Z M 33.863281 43.503906 " fill-opacity="0.63" fill-rule="nonzero"/><path fill="#696969" d="M 31.070312 38.664062 L 33.863281 43.503906 L 36.640625 38.664062 Z M 31.070312 38.664062 " fill-opacity="0.59" fill-rule="nonzero"/><path fill="#535353" d="M 39.429688 43.503906 L 36.640625 38.664062 L 33.863281 43.503906 Z M 39.429688 43.503906 " fill-opacity="0.68" fill-rule="nonzero"/><path fill="#5c5c5c" d="M 36.640625 38.664062 L 39.429688 43.503906 L 42.210938 38.664062 Z M 36.640625 38.664062 " fill-opacity="0.64" fill-rule="nonzero"/><path fill="#535353" d="M 45 43.503906 L 42.210938 38.664062 L 39.429688 43.503906 Z M 45 43.503906 " fill-opacity="0.68" fill-rule="nonzero"/><path fill="#5f5f5f" d="M 50.570312 43.503906 L 47.789062 38.664062 L 45 43.503906 Z M 50.570312 43.503906 " fill-opacity="0.63" fill-rule="nonzero"/><path fill="#646464" d="M 47.789062 38.664062 L 50.570312 43.503906 L 53.359375 38.664062 Z M 47.789062 38.664062 " fill-opacity="0.61" fill-rule="nonzero"/><path fill="#5e5e5e" d="M 56.136719 43.503906 L 53.359375 38.664062 L 50.570312 43.503906 Z M 56.136719 43.503906 " fill-opacity="0.63" fill-rule="nonzero"/><path fill="#7b7b7b" d="M 53.359375 38.664062 L 56.136719 43.503906 L 58.929688 38.664062 Z M 53.359375 38.664062 " fill-opacity="0.52" fill-rule="nonzero"/><path fill="#848484" d="M 61.707031 43.503906 L 58.929688 38.664062 L 56.136719 43.503906 Z M 61.707031 43.503906 " fill-opacity="0.48" fill-rule="nonzero"/><path fill="#969696" d="M 67.273438 43.503906 L 64.496094 38.664062 L 61.707031 43.503906 Z M 67.273438 43.503906 " fill-opacity="0.41" fill-rule="nonzero"/><path fill="#a8a8a8" d="M 64.496094 38.664062 L 67.273438 43.503906 L 70.066406 38.664062 Z M 64.496094 38.664062 " fill-opacity="0.34" fill-rule="nonzero"/><path fill="#c6c6c6" d="M 72.855469 43.503906 L 70.066406 38.664062 L 67.273438 43.503906 Z M 72.855469 43.503906 " fill-opacity="0.22" fill-rule="nonzero"/><path fill="#d2d2d2" d="M 70.066406 38.664062 L 72.855469 43.503906 L 75.632812 38.664062 Z M 70.066406 38.664062 " fill-opacity="0.18" fill-rule="nonzero"/><path fill="#cdcdcd" d="M 78.425781 43.503906 L 75.632812 38.664062 L 72.855469 43.503906 Z M 78.425781 43.503906 " fill-opacity="0.2" fill-rule="nonzero"/><path fill="#e7e7e7" d="M 81.203125 38.664062 L 83.992188 43.503906 L 86.773438 38.664062 Z M 81.203125 38.664062 " fill-opacity="0.09" fill-rule="nonzero"/><g clip-path="url(#a946dc557a)"><path fill="#fdfdfd" d="M 89.5625 43.503906 L 86.773438 38.664062 L 83.992188 43.503906 Z M 89.5625 43.503906 " fill-opacity="0.01" fill-rule="nonzero"/></g><path fill="#bfbfbf" d="M 6.007812 33.839844 L 8.796875 38.664062 L 11.574219 33.839844 Z M 6.007812 33.839844 " fill-opacity="0.25" fill-rule="nonzero"/><path fill="#585858" d="M 11.574219 33.839844 L 14.367188 38.664062 L 17.144531 33.839844 Z M 11.574219 33.839844 " fill-opacity="0.66" fill-rule="nonzero"/><path fill="#4f4f4f" d="M 19.933594 38.664062 L 17.144531 33.839844 L 14.367188 38.664062 Z M 19.933594 38.664062 " fill-opacity="0.69" fill-rule="nonzero"/><path fill="#565656" d="M 17.144531 33.839844 L 19.933594 38.664062 L 22.714844 33.839844 Z M 17.144531 33.839844 " fill-opacity="0.66" fill-rule="nonzero"/><path fill="#4f4f4f" d="M 25.503906 38.664062 L 22.714844 33.839844 L 19.933594 38.664062 Z M 25.503906 38.664062 " fill-opacity="0.69" fill-rule="nonzero"/><path fill="#515151" d="M 31.070312 38.664062 L 28.292969 33.839844 L 25.503906 38.664062 Z M 31.070312 38.664062 " fill-opacity="0.68" fill-rule="nonzero"/><path fill="#555555" d="M 28.292969 33.839844 L 31.070312 38.664062 L 33.863281 33.839844 Z M 28.292969 33.839844 " fill-opacity="0.67" fill-rule="nonzero"/><path fill="#3c3c3c" d="M 33.863281 33.839844 L 36.640625 38.664062 L 39.429688 33.839844 Z M 33.863281 33.839844 " fill-opacity="0.77" fill-rule="nonzero"/><path fill="#4b4b4b" d="M 42.210938 38.664062 L 39.429688 33.839844 L 36.640625 38.664062 Z M 42.210938 38.664062 " fill-opacity="0.71" fill-rule="nonzero"/><path fill="#4a4a4a" d="M 47.789062 38.664062 L 45 33.839844 L 42.210938 38.664062 Z M 47.789062 38.664062 " fill-opacity="0.71" fill-rule="nonzero"/><path fill="#4d4d4d" d="M 50.570312 33.839844 L 53.359375 38.664062 L 56.136719 33.839844 Z M 50.570312 33.839844 " fill-opacity="0.7" fill-rule="nonzero"/><path fill="#565656" d="M 58.929688 38.664062 L 56.136719 33.839844 L 53.359375 38.664062 Z M 58.929688 38.664062 " fill-opacity="0.66" fill-rule="nonzero"/><path fill="#717171" d="M 56.136719 33.839844 L 58.929688 38.664062 L 61.707031 33.839844 Z M 56.136719 33.839844 " fill-opacity="0.56" fill-rule="nonzero"/><path fill="#8b8b8b" d="M 64.496094 38.664062 L 61.707031 33.839844 L 58.929688 38.664062 Z M 64.496094 38.664062 " fill-opacity="0.45" fill-rule="nonzero"/><path fill="#d7d7d7" d="M 70.066406 38.664062 L 67.273438 33.839844 L 64.496094 38.664062 Z M 70.066406 38.664062 " fill-opacity="0.16" fill-rule="nonzero"/><path fill="#d5d5d5" d="M 67.273438 33.839844 L 70.066406 38.664062 L 72.855469 33.839844 Z M 67.273438 33.839844 " fill-opacity="0.16" fill-rule="nonzero"/><path fill="#dcdcdc" d="M 75.632812 38.664062 L 72.855469 33.839844 L 70.066406 38.664062 Z M 75.632812 38.664062 " fill-opacity="0.14" fill-rule="nonzero"/><path fill="#d2d2d2" d="M 72.855469 33.839844 L 75.632812 38.664062 L 78.425781 33.839844 Z M 72.855469 33.839844 " fill-opacity="0.18" fill-rule="nonzero"/><path fill="#bfbfbf" d="M 81.203125 38.664062 L 78.425781 33.839844 L 75.632812 38.664062 Z M 81.203125 38.664062 " fill-opacity="0.25" fill-rule="nonzero"/><path fill="#a5a5a5" d="M 78.425781 33.839844 L 81.203125 38.664062 L 83.992188 33.839844 Z M 78.425781 33.839844 " fill-opacity="0.35" fill-rule="nonzero"/><path fill="#f0f0f0" d="M 86.773438 38.664062 L 83.992188 33.839844 L 81.203125 38.664062 Z M 86.773438 38.664062 " fill-opacity="0.06" fill-rule="nonzero"/><g clip-path="url(#c3752fb74f)"><path fill="#fcfcfc" d="M 6.007812 33.839844 L 3.214844 29.003906 L 0.4375 33.839844 Z M 6.007812 33.839844 " fill-opacity="0.01" fill-rule="nonzero"/></g><path fill="#fcfcfc" d="M 3.214844 29.003906 L 6.007812 33.839844 L 8.796875 29.003906 Z M 3.214844 29.003906 " fill-opacity="0.01" fill-rule="nonzero"/><path fill="#969696" d="M 11.574219 33.839844 L 8.796875 29.003906 L 6.007812 33.839844 Z M 11.574219 33.839844 " fill-opacity="0.41" fill-rule="nonzero"/><path fill="#898989" d="M 17.144531 33.839844 L 14.367188 29.003906 L 11.574219 33.839844 Z M 17.144531 33.839844 " fill-opacity="0.46" fill-rule="nonzero"/><path fill="#5b5b5b" d="M 14.367188 29.003906 L 17.144531 33.839844 L 19.933594 29.003906 Z M 14.367188 29.003906 " fill-opacity="0.64" fill-rule="nonzero"/><path fill="#717171" d="M 22.714844 33.839844 L 19.933594 29.003906 L 17.144531 33.839844 Z M 22.714844 33.839844 " fill-opacity="0.56" fill-rule="nonzero"/><path fill="#454545" d="M 19.933594 29.003906 L 22.714844 33.839844 L 25.503906 29.003906 Z M 19.933594 29.003906 " fill-opacity="0.73" fill-rule="nonzero"/><path fill="#4c4c4c" d="M 28.292969 33.839844 L 25.503906 29.003906 L 22.714844 33.839844 Z M 28.292969 33.839844 " fill-opacity="0.7" fill-rule="nonzero"/><path fill="#444444" d="M 25.503906 29.003906 L 28.292969 33.839844 L 31.070312 29.003906 Z M 25.503906 29.003906 " fill-opacity="0.73" fill-rule="nonzero"/><path fill="#575757" d="M 33.863281 33.839844 L 31.070312 29.003906 L 28.292969 33.839844 Z M 33.863281 33.839844 " fill-opacity="0.66" fill-rule="nonzero"/><path fill="#4a4a4a" d="M 31.070312 29.003906 L 33.863281 33.839844 L 36.640625 29.003906 Z M 31.070312 29.003906 " fill-opacity="0.71" fill-rule="nonzero"/><path fill="#515151" d="M 36.640625 29.003906 L 39.429688 33.839844 L 42.210938 29.003906 Z M 36.640625 29.003906 " fill-opacity="0.68" fill-rule="nonzero"/><path fill="#515151" d="M 42.210938 29.003906 L 45 33.839844 L 47.789062 29.003906 Z M 42.210938 29.003906 " fill-opacity="0.68" fill-rule="nonzero"/><path fill="#646464" d="M 50.570312 33.839844 L 47.789062 29.003906 L 45 33.839844 Z M 50.570312 33.839844 " fill-opacity="0.61" fill-rule="nonzero"/><path fill="#5b5b5b" d="M 47.789062 29.003906 L 50.570312 33.839844 L 53.359375 29.003906 Z M 47.789062 29.003906 " fill-opacity="0.64" fill-rule="nonzero"/><path fill="#686868" d="M 56.136719 33.839844 L 53.359375 29.003906 L 50.570312 33.839844 Z M 56.136719 33.839844 " fill-opacity="0.59" fill-rule="nonzero"/><path fill="#606060" d="M 53.359375 29.003906 L 56.136719 33.839844 L 58.929688 29.003906 Z M 53.359375 29.003906 " fill-opacity="0.62" fill-rule="nonzero"/><path fill="#7a7a7a" d="M 61.707031 33.839844 L 58.929688 29.003906 L 56.136719 33.839844 Z M 61.707031 33.839844 " fill-opacity="0.52" fill-rule="nonzero"/><path fill="#aeaeae" d="M 58.929688 29.003906 L 61.707031 33.839844 L 64.496094 29.003906 Z M 58.929688 29.003906 " fill-opacity="0.32" fill-rule="nonzero"/><path fill="#dfdfdf" d="M 64.496094 29.003906 L 67.273438 33.839844 L 70.066406 29.003906 Z M 64.496094 29.003906 " fill-opacity="0.13" fill-rule="nonzero"/><path fill="#dfdfdf" d="M 70.066406 29.003906 L 72.855469 33.839844 L 75.632812 29.003906 Z M 70.066406 29.003906 " fill-opacity="0.13" fill-rule="nonzero"/><path fill="#e6e6e6" d="M 78.425781 33.839844 L 75.632812 29.003906 L 72.855469 33.839844 Z M 78.425781 33.839844 " fill-opacity="0.1" fill-rule="nonzero"/><path fill="#fbfbfb" d="M 8.796875 29.003906 L 6.007812 24.164062 L 3.214844 29.003906 Z M 8.796875 29.003906 " fill-opacity="0.01" fill-rule="nonzero"/><path fill="#c2c2c2" d="M 14.367188 29.003906 L 11.574219 24.164062 L 8.796875 29.003906 Z M 14.367188 29.003906 " fill-opacity="0.24" fill-rule="nonzero"/><path fill="#8d8d8d" d="M 11.574219 24.164062 L 14.367188 29.003906 L 17.144531 24.164062 Z M 11.574219 24.164062 " fill-opacity="0.45" fill-rule="nonzero"/><path fill="#7b7b7b" d="M 17.144531 24.164062 L 19.933594 29.003906 L 22.714844 24.164062 Z M 17.144531 24.164062 " fill-opacity="0.52" fill-rule="nonzero"/><path fill="#525252" d="M 22.714844 24.164062 L 25.503906 29.003906 L 28.292969 24.164062 Z M 22.714844 24.164062 " fill-opacity="0.68" fill-rule="nonzero"/><path fill="#7b7b7b" d="M 31.070312 29.003906 L 28.292969 24.164062 L 25.503906 29.003906 Z M 31.070312 29.003906 " fill-opacity="0.52" fill-rule="nonzero"/><path fill="#797979" d="M 36.640625 29.003906 L 33.863281 24.164062 L 31.070312 29.003906 Z M 36.640625 29.003906 " fill-opacity="0.53" fill-rule="nonzero"/><path fill="#747474" d="M 33.863281 24.164062 L 36.640625 29.003906 L 39.429688 24.164062 Z M 33.863281 24.164062 " fill-opacity="0.55" fill-rule="nonzero"/><path fill="#888888" d="M 42.210938 29.003906 L 39.429688 24.164062 L 36.640625 29.003906 Z M 42.210938 29.003906 " fill-opacity="0.47" fill-rule="nonzero"/><path fill="#828282" d="M 39.429688 24.164062 L 42.210938 29.003906 L 45 24.164062 Z M 39.429688 24.164062 " fill-opacity="0.49" fill-rule="nonzero"/><path fill="#999999" d="M 47.789062 29.003906 L 45 24.164062 L 42.210938 29.003906 Z M 47.789062 29.003906 " fill-opacity="0.4" fill-rule="nonzero"/><path fill="#848484" d="M 45 24.164062 L 47.789062 29.003906 L 50.570312 24.164062 Z M 45 24.164062 " fill-opacity="0.48" fill-rule="nonzero"/><path fill="#939393" d="M 53.359375 29.003906 L 50.570312 24.164062 L 47.789062 29.003906 Z M 53.359375 29.003906 " fill-opacity="0.42" fill-rule="nonzero"/><path fill="#747474" d="M 50.570312 24.164062 L 53.359375 29.003906 L 56.136719 24.164062 Z M 50.570312 24.164062 " fill-opacity="0.54" fill-rule="nonzero"/><path fill="#777777" d="M 58.929688 29.003906 L 56.136719 24.164062 L 53.359375 29.003906 Z M 58.929688 29.003906 " fill-opacity="0.53" fill-rule="nonzero"/><path fill="#c4c4c4" d="M 56.136719 24.164062 L 58.929688 29.003906 L 61.707031 24.164062 Z M 56.136719 24.164062 " fill-opacity="0.23" fill-rule="nonzero"/><path fill="#eaeaea" d="M 64.496094 29.003906 L 61.707031 24.164062 L 58.929688 29.003906 Z M 64.496094 29.003906 " fill-opacity="0.08" fill-rule="nonzero"/><path fill="#e8e8e8" d="M 61.707031 24.164062 L 64.496094 29.003906 L 67.273438 24.164062 Z M 61.707031 24.164062 " fill-opacity="0.09" fill-rule="nonzero"/><path fill="#ededed" d="M 70.066406 29.003906 L 67.273438 24.164062 L 64.496094 29.003906 Z M 70.066406 29.003906 " fill-opacity="0.07" fill-rule="nonzero"/><path fill="#e2e2e2" d="M 67.273438 24.164062 L 70.066406 29.003906 L 72.855469 24.164062 Z M 67.273438 24.164062 " fill-opacity="0.11" fill-rule="nonzero"/><path fill="#f7f7f7" d="M 75.632812 29.003906 L 72.855469 24.164062 L 70.066406 29.003906 Z M 75.632812 29.003906 " fill-opacity="0.03" fill-rule="nonzero"/><path fill="#fdfdfd" d="M 86.773438 29.003906 L 83.992188 24.164062 L 81.203125 29.003906 Z M 86.773438 29.003906 " fill-opacity="0.01" fill-rule="nonzero"/><path fill="#fbfbfb" d="M 3.214844 19.339844 L 6.007812 24.164062 L 8.796875 19.339844 Z M 3.214844 19.339844 " fill-opacity="0.01" fill-rule="nonzero"/><path fill="#e2e2e2" d="M 11.574219 24.164062 L 8.796875 19.339844 L 6.007812 24.164062 Z M 11.574219 24.164062 " fill-opacity="0.11" fill-rule="nonzero"/><path fill="#d6d6d6" d="M 8.796875 19.339844 L 11.574219 24.164062 L 14.367188 19.339844 Z M 8.796875 19.339844 " fill-opacity="0.16" fill-rule="nonzero"/><path fill="#b3b3b3" d="M 14.367188 19.339844 L 17.144531 24.164062 L 19.933594 19.339844 Z M 14.367188 19.339844 " fill-opacity="0.3" fill-rule="nonzero"/><path fill="#bbbbbb" d="M 22.714844 24.164062 L 19.933594 19.339844 L 17.144531 24.164062 Z M 22.714844 24.164062 " fill-opacity="0.27" fill-rule="nonzero"/><path fill="#7a7a7a" d="M 19.933594 19.339844 L 22.714844 24.164062 L 25.503906 19.339844 Z M 19.933594 19.339844 " fill-opacity="0.52" fill-rule="nonzero"/><path fill="#b8b8b8" d="M 28.292969 24.164062 L 25.503906 19.339844 L 22.714844 24.164062 Z M 28.292969 24.164062 " fill-opacity="0.28" fill-rule="nonzero"/><path fill="#b2b2b2" d="M 25.503906 19.339844 L 28.292969 24.164062 L 31.070312 19.339844 Z M 25.503906 19.339844 " fill-opacity="0.3" fill-rule="nonzero"/><path fill="#ababab" d="M 31.070312 19.339844 L 33.863281 24.164062 L 36.640625 19.339844 Z M 31.070312 19.339844 " fill-opacity="0.33" fill-rule="nonzero"/><path fill="#b9b9b9" d="M 39.429688 24.164062 L 36.640625 19.339844 L 33.863281 24.164062 Z M 39.429688 24.164062 " fill-opacity="0.28" fill-rule="nonzero"/><path fill="#b4b4b4" d="M 36.640625 19.339844 L 39.429688 24.164062 L 42.210938 19.339844 Z M 36.640625 19.339844 " fill-opacity="0.29" fill-rule="nonzero"/><path fill="#bcbcbc" d="M 45 24.164062 L 42.210938 19.339844 L 39.429688 24.164062 Z M 45 24.164062 " fill-opacity="0.26" fill-rule="nonzero"/><path fill="#b5b5b5" d="M 47.789062 19.339844 L 50.570312 24.164062 L 53.359375 19.339844 Z M 47.789062 19.339844 " fill-opacity="0.29" fill-rule="nonzero"/><path fill="#cdcdcd" d="M 53.359375 19.339844 L 56.136719 24.164062 L 58.929688 19.339844 Z M 53.359375 19.339844 " fill-opacity="0.2" fill-rule="nonzero"/><path fill="#f9f9f9" d="M 58.929688 19.339844 L 61.707031 24.164062 L 64.496094 19.339844 Z M 58.929688 19.339844 " fill-opacity="0.02" fill-rule="nonzero"/><path fill="#fdfdfd" d="M 70.066406 19.339844 L 72.855469 24.164062 L 75.632812 19.339844 Z M 70.066406 19.339844 " fill-opacity="0.01" fill-rule="nonzero"/><path fill="#fdfdfd" d="M 78.425781 24.164062 L 75.632812 19.339844 L 72.855469 24.164062 Z M 78.425781 24.164062 " fill-opacity="0.01" fill-rule="nonzero"/><path fill="#f0f0f0" d="M 8.796875 19.339844 L 6.007812 14.5 L 3.214844 19.339844 Z M 8.796875 19.339844 " fill-opacity="0.06" fill-rule="nonzero"/><path fill="#e7e7e7" d="M 6.007812 14.5 L 8.796875 19.339844 L 11.574219 14.5 Z M 6.007812 14.5 " fill-opacity="0.09" fill-rule="nonzero"/><path fill="#c3c3c3" d="M 14.367188 19.339844 L 11.574219 14.5 L 8.796875 19.339844 Z M 14.367188 19.339844 " fill-opacity="0.23" fill-rule="nonzero"/><path fill="#c3c3c3" d="M 11.574219 14.5 L 14.367188 19.339844 L 17.144531 14.5 Z M 11.574219 14.5 " fill-opacity="0.23" fill-rule="nonzero"/><path fill="#bababa" d="M 19.933594 19.339844 L 17.144531 14.5 L 14.367188 19.339844 Z M 19.933594 19.339844 " fill-opacity="0.27" fill-rule="nonzero"/><path fill="#c8c8c8" d="M 17.144531 14.5 L 19.933594 19.339844 L 22.714844 14.5 Z M 17.144531 14.5 " fill-opacity="0.22" fill-rule="nonzero"/><path fill="#c9c9c9" d="M 25.503906 19.339844 L 22.714844 14.5 L 19.933594 19.339844 Z M 25.503906 19.339844 " fill-opacity="0.21" fill-rule="nonzero"/><path fill="#e6e6e6" d="M 22.714844 14.5 L 25.503906 19.339844 L 28.292969 14.5 Z M 22.714844 14.5 " fill-opacity="0.1" fill-rule="nonzero"/><path fill="#ececec" d="M 31.070312 19.339844 L 28.292969 14.5 L 25.503906 19.339844 Z M 31.070312 19.339844 " fill-opacity="0.07" fill-rule="nonzero"/><path fill="#bdbdbd" d="M 28.292969 14.5 L 31.070312 19.339844 L 33.863281 14.5 Z M 28.292969 14.5 " fill-opacity="0.26" fill-rule="nonzero"/><path fill="#cdcdcd" d="M 36.640625 19.339844 L 33.863281 14.5 L 31.070312 19.339844 Z M 36.640625 19.339844 " fill-opacity="0.2" fill-rule="nonzero"/><path fill="#cfcfcf" d="M 42.210938 19.339844 L 39.429688 14.5 L 36.640625 19.339844 Z M 42.210938 19.339844 " fill-opacity="0.19" fill-rule="nonzero"/><path fill="#cccccc" d="M 47.789062 19.339844 L 45 14.5 L 42.210938 19.339844 Z M 47.789062 19.339844 " fill-opacity="0.2" fill-rule="nonzero"/><path fill="#a5a5a5" d="M 45 14.5 L 47.789062 19.339844 L 50.570312 14.5 Z M 45 14.5 " fill-opacity="0.35" fill-rule="nonzero"/><path fill="#e2e2e2" d="M 53.359375 19.339844 L 50.570312 14.5 L 47.789062 19.339844 Z M 53.359375 19.339844 " fill-opacity="0.11" fill-rule="nonzero"/><path fill="#fdfdfd" d="M 58.929688 19.339844 L 56.136719 14.5 L 53.359375 19.339844 Z M 58.929688 19.339844 " fill-opacity="0.01" fill-rule="nonzero"/><path fill="#fdfdfd" d="M 86.773438 19.339844 L 83.992188 14.5 L 81.203125 19.339844 Z M 86.773438 19.339844 " fill-opacity="0.01" fill-rule="nonzero"/><path fill="#d8d8d8" d="M 3.214844 9.664062 L 6.007812 14.5 L 8.796875 9.664062 Z M 3.214844 9.664062 " fill-opacity="0.15" fill-rule="nonzero"/><path fill="#f6f6f6" d="M 11.574219 14.5 L 8.796875 9.664062 L 6.007812 14.5 Z M 11.574219 14.5 " fill-opacity="0.03" fill-rule="nonzero"/><path fill="#ececec" d="M 8.796875 9.664062 L 11.574219 14.5 L 14.367188 9.664062 Z M 8.796875 9.664062 " fill-opacity="0.07" fill-rule="nonzero"/><path fill="#cccccc" d="M 17.144531 14.5 L 14.367188 9.664062 L 11.574219 14.5 Z M 17.144531 14.5 " fill-opacity="0.2" fill-rule="nonzero"/><path fill="#cecece" d="M 22.714844 14.5 L 19.933594 9.664062 L 17.144531 14.5 Z M 22.714844 14.5 " fill-opacity="0.19" fill-rule="nonzero"/><path fill="#9d9d9d" d="M 19.933594 9.664062 L 22.714844 14.5 L 25.503906 9.664062 Z M 19.933594 9.664062 " fill-opacity="0.38" fill-rule="nonzero"/><path fill="#c9c9c9" d="M 28.292969 14.5 L 25.503906 9.664062 L 22.714844 14.5 Z M 28.292969 14.5 " fill-opacity="0.21" fill-rule="nonzero"/><path fill="#fbfbfb" d="M 33.863281 14.5 L 31.070312 9.664062 L 28.292969 14.5 Z M 33.863281 14.5 " fill-opacity="0.01" fill-rule="nonzero"/><path fill="#f0f0f0" d="M 31.070312 9.664062 L 33.863281 14.5 L 36.640625 9.664062 Z M 31.070312 9.664062 " fill-opacity="0.06" fill-rule="nonzero"/><path fill="#fafafa" d="M 36.640625 9.664062 L 39.429688 14.5 L 42.210938 9.664062 Z M 36.640625 9.664062 " fill-opacity="0.02" fill-rule="nonzero"/><path fill="#fdfdfd" d="M 42.210938 9.664062 L 45 14.5 L 47.789062 9.664062 Z M 42.210938 9.664062 " fill-opacity="0.01" fill-rule="nonzero"/><path fill="#f7f7f7" d="M 47.789062 9.664062 L 50.570312 14.5 L 53.359375 9.664062 Z M 47.789062 9.664062 " fill-opacity="0.03" fill-rule="nonzero"/><path fill="#f5f5f5" d="M 8.796875 9.664062 L 6.007812 4.835938 L 3.214844 9.664062 Z M 8.796875 9.664062 " fill-opacity="0.04" fill-rule="nonzero"/><path fill="#f9f9f9" d="M 6.007812 4.835938 L 8.796875 9.664062 L 11.574219 4.835938 Z M 6.007812 4.835938 " fill-opacity="0.02" fill-rule="nonzero"/><path fill="#f5f5f5" d="M 14.367188 9.664062 L 11.574219 4.835938 L 8.796875 9.664062 Z M 14.367188 9.664062 " fill-opacity="0.04" fill-rule="nonzero"/><path fill="#eeeeee" d="M 11.574219 4.835938 L 14.367188 9.664062 L 17.144531 4.835938 Z M 11.574219 4.835938 " fill-opacity="0.06" fill-rule="nonzero"/><path fill="#f3f3f3" d="M 19.933594 9.664062 L 17.144531 4.835938 L 14.367188 9.664062 Z M 19.933594 9.664062 " fill-opacity="0.05" fill-rule="nonzero"/><path fill="#eeeeee" d="M 25.503906 9.664062 L 22.714844 4.835938 L 19.933594 9.664062 Z M 25.503906 9.664062 " fill-opacity="0.06" fill-rule="nonzero"/><path fill="#e9e9e9" d="M 22.714844 4.835938 L 25.503906 9.664062 L 28.292969 4.835938 Z M 22.714844 4.835938 " fill-opacity="0.09" fill-rule="nonzero"/><path fill="#f9f9f9" d="M 31.070312 9.664062 L 28.292969 4.835938 L 25.503906 9.664062 Z M 31.070312 9.664062 " fill-opacity="0.02" fill-rule="nonzero"/><path fill="#f2f2f2" d="M 28.292969 4.835938 L 31.070312 9.664062 L 33.863281 4.835938 Z M 28.292969 4.835938 " fill-opacity="0.05" fill-rule="nonzero"/><path fill="#ededed" d="M 39.429688 4.835938 L 42.210938 9.664062 L 45 4.835938 Z M 39.429688 4.835938 " fill-opacity="0.07" fill-rule="nonzero"/><path fill="#fdfdfd" d="M 47.789062 9.664062 L 45 4.835938 L 42.210938 9.664062 Z M 47.789062 9.664062 " fill-opacity="0.01" fill-rule="nonzero"/><path fill="#fdfdfd" d="M 50.570312 4.835938 L 53.359375 9.664062 L 56.136719 4.835938 Z M 50.570312 4.835938 " fill-opacity="0.01" fill-rule="nonzero"/><path fill="#f6f6f6" d="M 3.214844 0 L 6.007812 4.835938 L 8.796875 0 Z M 3.214844 0 " fill-opacity="0.03" fill-rule="nonzero"/><path fill="#f4f4f4" d="M 11.574219 4.835938 L 8.796875 0 L 6.007812 4.835938 Z M 11.574219 4.835938 " fill-opacity="0.04" fill-rule="nonzero"/><path fill="#eaeaea" d="M 14.367188 0 L 17.144531 4.835938 L 19.933594 0 Z M 14.367188 0 " fill-opacity="0.08" fill-rule="nonzero"/><path fill="#e3e3e3" d="M 22.714844 4.835938 L 19.933594 0 L 17.144531 4.835938 Z M 22.714844 4.835938 " fill-opacity="0.11" fill-rule="nonzero"/><path fill="#ebebeb" d="M 19.933594 0 L 22.714844 4.835938 L 25.503906 0 Z M 19.933594 0 " fill-opacity="0.08" fill-rule="nonzero"/><path fill="#fbfbfb" d="M 28.292969 4.835938 L 25.503906 0 L 22.714844 4.835938 Z M 28.292969 4.835938 " fill-opacity="0.01" fill-rule="nonzero"/><path fill="#f3f3f3" d="M 25.503906 0 L 28.292969 4.835938 L 31.070312 0 Z M 25.503906 0 " fill-opacity="0.05" fill-rule="nonzero"/><path fill="#e6e6e6" d="M 33.863281 4.835938 L 31.070312 0 L 28.292969 4.835938 Z M 33.863281 4.835938 " fill-opacity="0.1" fill-rule="nonzero"/></g></g></g></g></svg>