<svg xmlns="http://www.w3.org/2000/svg" xmlns:xlink="http://www.w3.org/1999/xlink" width="40" zoomAndPan="magnify" viewBox="0 0 30 30.000001" height="40" preserveAspectRatio="xMidYMid meet" version="1.0"><defs><clipPath id="2d37a3b8a5"><path d="M 1 0 L 29.515625 0 L 29.515625 29.03125 L 1 29.03125 Z M 1 0 " clip-rule="nonzero"/></clipPath></defs><g clip-path="url(#2d37a3b8a5)"><path fill="#ffffff" d="M 3.308594 22.722656 C 4.003906 22.199219 4.796875 21.828125 5.613281 21.5625 L 5.703125 21.527344 L 5.765625 21.496094 L 5.824219 21.460938 L 5.875 21.425781 L 5.921875 21.390625 L 5.976562 21.347656 C 5.992188 21.328125 6.011719 21.3125 6.027344 21.292969 C 6.042969 21.277344 6.054688 21.257812 6.066406 21.242188 L 6.101562 21.183594 L 6.132812 21.125 C 6.144531 21.101562 6.15625 21.078125 6.160156 21.0625 L 6.183594 21.003906 C 6.21875 20.886719 6.261719 20.769531 6.300781 20.652344 C 6.527344 20.019531 6.78125 19.304688 7.324219 18.816406 C 8.371094 17.863281 10.0625 18.179688 11.121094 18.957031 C 11.257812 19.0625 11.394531 19.171875 11.519531 19.289062 C 11.589844 19.339844 11.660156 19.398438 11.730469 19.449219 C 11.792969 19.496094 11.863281 19.542969 11.925781 19.597656 C 12.003906 19.644531 12.074219 19.6875 12.148438 19.742188 C 12.222656 19.78125 12.300781 19.828125 12.375 19.871094 C 12.449219 19.910156 12.539062 19.949219 12.621094 19.992188 C 12.695312 20.019531 12.769531 20.054688 12.847656 20.085938 C 12.933594 20.113281 13.019531 20.144531 13.113281 20.171875 C 13.199219 20.195312 13.289062 20.21875 13.375 20.242188 C 13.460938 20.265625 13.5625 20.269531 13.660156 20.289062 L 13.949219 20.316406 L 14.253906 20.324219 L 14.5625 20.304688 C 16.597656 20.03125 18.605469 19.613281 20.484375 18.804688 C 21.105469 18.539062 21.707031 18.21875 22.269531 17.851562 C 22.257812 17.730469 22.246094 17.609375 22.234375 17.484375 C 22.117188 16.433594 21.886719 15.375 21.660156 14.359375 C 21.496094 13.636719 21.332031 12.894531 21.210938 12.148438 C 21.070312 11.3125 20.957031 10.324219 21.160156 9.363281 C 21.355469 8.433594 21.839844 7.660156 22.5 7.207031 C 22.613281 7.097656 22.730469 7 22.855469 6.910156 C 22.96875 6.796875 23.09375 6.695312 23.222656 6.605469 C 23.316406 6.503906 23.421875 6.417969 23.523438 6.335938 C 23.542969 6.324219 23.558594 6.3125 23.578125 6.300781 C 23.648438 6.226562 23.730469 6.148438 23.808594 6.082031 C 23.855469 6.046875 23.898438 6.011719 23.945312 5.976562 C 23.988281 5.921875 24.042969 5.871094 24.09375 5.824219 C 24.164062 5.761719 24.234375 5.703125 24.304688 5.652344 C 24.328125 5.621094 24.351562 5.597656 24.378906 5.570312 C 24.464844 5.476562 24.566406 5.390625 24.664062 5.3125 C 24.773438 5.183594 24.898438 5.0625 25.03125 4.957031 C 25.140625 4.824219 25.261719 4.695312 25.390625 4.582031 C 25.5 4.433594 25.617188 4.300781 25.746094 4.179688 C 25.851562 4.023438 25.964844 3.878906 26.089844 3.738281 C 26.1875 3.574219 26.292969 3.417969 26.410156 3.265625 C 26.496094 3.09375 26.59375 2.917969 26.699219 2.753906 C 26.792969 2.523438 26.902344 2.300781 27.019531 2.082031 C 27.464844 1.242188 28.089844 0.539062 28.84375 0 L 28.863281 0.015625 C 27.9375 0.679688 27.214844 1.582031 26.769531 2.628906 C 26.902344 2.425781 27.046875 2.230469 27.199219 2.046875 C 27.605469 1.546875 28.148438 1.015625 28.890625 0.390625 L 28.90625 0.40625 C 28.164062 1.035156 27.625 1.5625 27.214844 2.0625 C 27.035156 2.285156 26.867188 2.515625 26.710938 2.761719 C 26.679688 2.832031 26.660156 2.902344 26.628906 2.96875 C 26.773438 2.796875 26.941406 2.621094 27.128906 2.4375 C 27.402344 2.167969 27.714844 1.890625 28.019531 1.621094 C 28.320312 1.355469 28.652344 1.0625 28.941406 0.777344 L 28.960938 0.796875 C 28.667969 1.082031 28.351562 1.367188 28.042969 1.640625 C 27.734375 1.914062 27.425781 2.1875 27.152344 2.453125 C 26.949219 2.652344 26.769531 2.847656 26.613281 3.035156 C 26.582031 3.117188 26.558594 3.191406 26.535156 3.273438 C 26.699219 3.121094 26.878906 2.976562 27.070312 2.820312 C 27.191406 2.71875 27.320312 2.621094 27.460938 2.515625 C 27.972656 2.117188 28.558594 1.664062 28.996094 1.167969 L 29.011719 1.1875 C 28.570312 1.6875 27.984375 2.140625 27.472656 2.539062 C 27.339844 2.652344 27.210938 2.75 27.082031 2.847656 C 26.878906 3.011719 26.691406 3.167969 26.519531 3.324219 C 26.496094 3.414062 26.472656 3.5 26.449219 3.585938 C 26.628906 3.457031 26.816406 3.335938 27 3.214844 L 27.046875 3.1875 C 27.703125 2.761719 28.523438 2.230469 29.035156 1.558594 L 29.058594 1.574219 C 28.542969 2.25 27.722656 2.777344 27.058594 3.207031 L 27.011719 3.238281 C 26.820312 3.359375 26.628906 3.488281 26.4375 3.621094 C 26.414062 3.714844 26.398438 3.808594 26.378906 3.902344 C 26.523438 3.824219 26.671875 3.742188 26.816406 3.667969 L 26.929688 3.609375 C 27.726562 3.195312 28.601562 2.675781 29.082031 1.953125 L 29.105469 1.964844 C 28.617188 2.691406 27.738281 3.214844 26.941406 3.628906 L 26.828125 3.6875 C 26.671875 3.765625 26.519531 3.847656 26.367188 3.929688 C 26.351562 4.023438 26.332031 4.121094 26.320312 4.214844 C 26.414062 4.175781 26.511719 4.132812 26.605469 4.097656 C 26.691406 4.0625 26.773438 4.027344 26.863281 3.992188 C 28.011719 3.511719 28.75 2.96875 29.128906 2.335938 L 29.15625 2.355469 C 28.78125 2.992188 28.035156 3.535156 26.878906 4.015625 L 26.625 4.121094 C 26.523438 4.164062 26.421875 4.203125 26.320312 4.242188 C 26.308594 4.34375 26.296875 4.441406 26.285156 4.539062 L 26.433594 4.492188 C 26.554688 4.453125 26.675781 4.417969 26.796875 4.378906 C 27.636719 4.117188 28.726562 3.605469 29.1875 2.738281 L 29.210938 2.75 C 28.75 3.628906 27.652344 4.140625 26.816406 4.417969 C 26.691406 4.457031 26.566406 4.5 26.449219 4.535156 L 26.292969 4.582031 C 26.285156 4.621094 26.285156 4.664062 26.28125 4.703125 C 26.273438 4.765625 26.273438 4.824219 26.273438 4.890625 L 26.28125 4.890625 C 26.433594 4.855469 26.589844 4.820312 26.746094 4.777344 C 27.464844 4.59375 28.769531 4.132812 29.234375 3.121094 L 29.257812 3.132812 C 28.785156 4.15625 27.476562 4.617188 26.746094 4.800781 C 26.589844 4.84375 26.433594 4.878906 26.28125 4.914062 L 26.269531 4.914062 C 26.269531 5.015625 26.269531 5.128906 26.269531 5.230469 C 26.402344 5.207031 26.535156 5.183594 26.671875 5.164062 C 27.296875 5.046875 28.808594 4.652344 29.28125 3.503906 L 29.304688 3.515625 C 28.832031 4.671875 27.308594 5.074219 26.675781 5.191406 C 26.542969 5.214844 26.402344 5.238281 26.269531 5.261719 C 26.269531 5.371094 26.273438 5.480469 26.285156 5.59375 C 26.390625 5.582031 26.5 5.570312 26.605469 5.558594 C 27.125 5.488281 28.867188 5.171875 29.328125 3.894531 L 29.351562 3.90625 C 28.886719 5.195312 27.128906 5.511719 26.601562 5.582031 C 26.496094 5.59375 26.386719 5.605469 26.28125 5.617188 C 26.285156 5.730469 26.296875 5.84375 26.308594 5.957031 C 26.386719 5.953125 26.453125 5.953125 26.53125 5.945312 C 27.675781 5.867188 29.023438 5.382812 29.375 4.289062 L 29.402344 4.296875 C 29.046875 5.402344 27.6875 5.882812 26.535156 5.96875 C 26.460938 5.976562 26.390625 5.980469 26.316406 5.980469 C 26.328125 6.097656 26.34375 6.214844 26.363281 6.335938 C 26.398438 6.335938 26.433594 6.335938 26.472656 6.335938 C 27.628906 6.300781 29.101562 5.855469 29.429688 4.679688 L 29.453125 4.683594 C 29.117188 5.871094 27.640625 6.324219 26.472656 6.359375 L 26.367188 6.359375 C 26.386719 6.480469 26.402344 6.605469 26.425781 6.71875 C 27.113281 6.726562 27.78125 6.597656 28.304688 6.355469 C 28.9375 6.0625 29.34375 5.617188 29.476562 5.0625 L 29.507812 5.074219 C 29.367188 5.640625 28.953125 6.085938 28.316406 6.382812 C 27.785156 6.628906 27.117188 6.753906 26.425781 6.75 C 26.484375 7.085938 26.542969 7.417969 26.605469 7.75 C 26.773438 8.632812 26.953125 9.546875 26.949219 10.453125 C 26.941406 11.789062 26.546875 13.121094 25.796875 14.363281 C 25.6875 14.585938 25.570312 14.800781 25.445312 15.015625 C 25.339844 15.230469 25.222656 15.445312 25.09375 15.65625 C 24.984375 15.882812 24.863281 16.101562 24.726562 16.324219 C 24.625 16.542969 24.5 16.765625 24.375 16.980469 C 24.269531 17.195312 24.160156 17.40625 24.035156 17.613281 C 23.933594 17.835938 23.820312 18.042969 23.695312 18.253906 C 23.589844 18.472656 23.480469 18.683594 23.355469 18.894531 C 23.257812 19.097656 23.152344 19.300781 23.042969 19.492188 C 22.945312 19.710938 22.828125 19.925781 22.707031 20.136719 C 22.605469 20.351562 22.496094 20.5625 22.375 20.765625 C 22.273438 20.980469 22.164062 21.195312 22.042969 21.398438 C 21.949219 21.601562 21.84375 21.804688 21.730469 21.996094 C 21.617188 22.253906 21.484375 22.496094 21.339844 22.734375 C 20.84375 23.515625 20.140625 24.136719 19.304688 24.527344 C 18.425781 24.9375 17.519531 25.027344 16.6875 24.78125 C 15.3125 24.378906 14.347656 23.152344 13.660156 22.136719 C 13.53125 21.949219 13.402344 21.753906 13.28125 21.566406 C 13.0625 21.222656 12.835938 20.882812 12.589844 20.550781 C 12.125 20.597656 11.660156 20.644531 11.195312 20.6875 C 10.65625 20.742188 10.097656 20.792969 9.550781 20.851562 C 8.433594 20.96875 7.238281 21.125 6.089844 21.445312 C 5.941406 22.039062 5.839844 22.636719 5.742188 23.222656 C 5.601562 24.078125 5.457031 24.957031 5.15625 25.800781 C 4.871094 26.59375 4.464844 27.332031 4.003906 27.890625 C 3.429688 28.589844 2.796875 28.992188 2.113281 29.078125 L 2.113281 29.054688 C 3.546875 28.867188 4.613281 27.246094 5.132812 25.792969 C 5.429688 24.957031 5.574219 24.078125 5.71875 23.222656 C 5.8125 22.640625 5.910156 22.042969 6.0625 21.457031 L 6.050781 21.457031 C 5.851562 22.050781 5.71875 22.660156 5.574219 23.292969 C 5.535156 23.480469 5.488281 23.671875 5.441406 23.863281 C 5.304688 24.472656 5.132812 25.078125 4.917969 25.664062 C 4.703125 26.230469 4.335938 27.046875 3.796875 27.765625 C 3.253906 28.480469 2.683594 28.898438 2.085938 29.03125 L 2.082031 29.007812 C 3.644531 28.664062 4.632812 26.355469 4.894531 25.660156 C 5.109375 25.074219 5.285156 24.46875 5.417969 23.855469 C 5.464844 23.664062 5.503906 23.472656 5.542969 23.289062 C 5.683594 22.683594 5.824219 22.066406 6.015625 21.460938 L 6.003906 21.460938 C 5.75 22.089844 5.5625 22.734375 5.363281 23.402344 C 5.328125 23.527344 5.292969 23.640625 5.261719 23.765625 C 5.089844 24.328125 4.910156 24.925781 4.671875 25.53125 C 4.3125 26.425781 3.335938 28.554688 2.046875 28.984375 L 2.039062 28.960938 C 3.320312 28.542969 4.289062 26.421875 4.648438 25.527344 C 4.886719 24.921875 5.066406 24.324219 5.238281 23.757812 C 5.273438 23.636719 5.304688 23.519531 5.339844 23.398438 C 5.539062 22.734375 5.726562 22.097656 5.976562 21.472656 L 5.96875 21.472656 C 5.632812 22.148438 5.375 22.859375 5.109375 23.597656 L 5.035156 23.8125 C 4.847656 24.328125 4.65625 24.867188 4.429688 25.402344 C 3.851562 26.765625 2.96875 28.480469 2.003906 28.945312 L 1.992188 28.921875 C 2.945312 28.457031 3.828125 26.746094 4.40625 25.390625 C 4.632812 24.855469 4.824219 24.316406 5.011719 23.800781 L 5.085938 23.585938 C 5.347656 22.851562 5.601562 22.148438 5.933594 21.480469 L 5.929688 21.480469 C 5.527344 22.140625 5.214844 22.851562 4.90625 23.578125 C 4.816406 23.777344 4.738281 23.980469 4.648438 24.1875 C 4.503906 24.542969 4.351562 24.910156 4.191406 25.277344 C 3.574219 26.671875 2.761719 28.34375 1.976562 28.902344 L 1.964844 28.878906 C 2.753906 28.316406 3.601562 26.550781 4.171875 25.265625 C 4.335938 24.898438 4.488281 24.53125 4.632812 24.175781 C 4.71875 23.96875 4.800781 23.769531 4.886719 23.566406 C 5.195312 22.851562 5.503906 22.148438 5.898438 21.492188 C 5.429688 22.140625 5.0625 22.828125 4.738281 23.484375 C 4.554688 23.851562 4.375 24.234375 4.191406 24.636719 C 4.113281 24.804688 4.035156 24.972656 3.957031 25.148438 L 3.828125 25.421875 C 3.214844 26.753906 2.511719 28.257812 1.945312 28.855469 L 1.929688 28.839844 C 2.492188 28.242188 3.191406 26.734375 3.808594 25.410156 L 3.933594 25.136719 L 4.167969 24.625 C 4.351562 24.222656 4.527344 23.839844 4.714844 23.472656 C 5.039062 22.828125 5.398438 22.152344 5.851562 21.515625 C 5.410156 22.03125 5 22.628906 4.5625 23.390625 C 4.265625 23.910156 3.988281 24.480469 3.71875 25.019531 C 3.445312 25.582031 3.167969 26.1875 2.898438 26.777344 C 2.523438 27.601562 2.167969 28.386719 1.910156 28.816406 L 1.886719 28.804688 C 2.136719 28.367188 2.5 27.589844 2.875 26.765625 C 3.144531 26.175781 3.421875 25.570312 3.695312 25.007812 C 3.957031 24.46875 4.242188 23.898438 4.539062 23.378906 C 4.90625 22.734375 5.324219 22.125 5.792969 21.550781 C 5.265625 22.085938 4.796875 22.671875 4.386719 23.300781 C 4.058594 23.8125 3.753906 24.34375 3.488281 24.890625 C 2.75 26.339844 2.113281 28.042969 1.886719 28.773438 L 1.863281 28.769531 C 2.089844 28.035156 2.726562 26.328125 3.464844 24.878906 C 3.738281 24.335938 4.039062 23.800781 4.371094 23.289062 C 4.765625 22.675781 5.21875 22.109375 5.730469 21.589844 C 5.167969 22.074219 4.660156 22.621094 4.21875 23.210938 C 3.859375 23.707031 3.535156 24.222656 3.25 24.769531 C 2.535156 26.113281 1.933594 27.816406 1.851562 28.742188 L 1.832031 28.742188 C 1.910156 27.816406 2.511719 26.105469 3.226562 24.765625 C 3.511719 24.21875 3.835938 23.699219 4.195312 23.207031 C 4.625 22.625 5.121094 22.097656 5.667969 21.625 C 5.066406 22.0625 4.523438 22.566406 4.039062 23.128906 C 3.648438 23.601562 3.300781 24.113281 3.011719 24.648438 C 2.214844 26.066406 1.726562 27.734375 1.820312 28.707031 L 1.796875 28.707031 C 1.703125 27.734375 2.191406 26.0625 2.988281 24.636719 C 3.285156 24.09375 3.625 23.585938 4.023438 23.113281 C 4.488281 22.566406 5.011719 22.078125 5.585938 21.648438 C 4.957031 22.03125 4.375 22.503906 3.863281 23.03125 C 3.445312 23.480469 3.074219 23.980469 2.773438 24.515625 C 1.929688 25.96875 1.527344 27.628906 1.785156 28.652344 L 1.761719 28.660156 C 1.503906 27.625 1.898438 25.957031 2.75 24.496094 C 3.058594 23.960938 3.421875 23.460938 3.847656 23.007812 C 4.339844 22.492188 4.898438 22.042969 5.503906 21.664062 C 4.847656 22.003906 4.238281 22.433594 3.691406 22.9375 C 3.242188 23.363281 2.851562 23.851562 2.535156 24.386719 C 1.644531 25.855469 1.335938 27.515625 1.753906 28.613281 L 1.730469 28.625 C 1.726562 28.605469 1.71875 28.589844 1.714844 28.578125 L 1.695312 28.582031 C 1.691406 28.566406 1.683594 28.554688 1.671875 28.535156 L 1.660156 28.542969 C 0.492188 26.570312 1.609375 23.992188 3.308594 22.722656 Z M 25.863281 5.65625 C 25.746094 5.667969 25.628906 5.679688 25.511719 5.691406 C 25.507812 5.789062 25.5 5.890625 25.5 5.992188 L 25.855469 5.976562 L 25.875 5.976562 C 25.867188 5.910156 25.867188 5.84375 25.867188 5.777344 C 25.863281 5.738281 25.863281 5.695312 25.863281 5.65625 Z M 25.898438 4.957031 C 25.910156 4.867188 25.921875 4.777344 25.9375 4.683594 C 25.84375 4.714844 25.757812 4.75 25.664062 4.785156 C 25.640625 4.871094 25.617188 4.957031 25.601562 5.046875 C 25.699219 5.015625 25.796875 4.992188 25.898438 4.96875 C 25.898438 4.964844 25.898438 4.964844 25.898438 4.957031 Z M 26.09375 4.035156 C 26.117188 3.964844 26.140625 3.894531 26.164062 3.824219 C 26.101562 3.871094 26.042969 3.925781 25.976562 3.976562 C 25.941406 4.046875 25.910156 4.121094 25.875 4.195312 C 25.941406 4.152344 26.011719 4.109375 26.082031 4.0625 C 26.089844 4.058594 26.089844 4.046875 26.09375 4.035156 Z M 26.183594 3.785156 C 26.210938 3.714844 26.234375 3.644531 26.261719 3.574219 C 26.210938 3.628906 26.164062 3.679688 26.117188 3.730469 C 26.078125 3.796875 26.042969 3.859375 26.011719 3.925781 C 26.066406 3.878906 26.125 3.832031 26.183594 3.785156 Z M 25.660156 4.347656 C 25.714844 4.308594 25.773438 4.265625 25.832031 4.226562 C 25.863281 4.164062 25.890625 4.09375 25.925781 4.027344 C 25.875 4.074219 25.820312 4.128906 25.769531 4.175781 C 25.734375 4.230469 25.695312 4.289062 25.660156 4.347656 Z M 24.972656 5.0625 L 24.9375 5.109375 C 24.996094 5.074219 25.054688 5.039062 25.113281 5.011719 C 25.140625 4.953125 25.175781 4.894531 25.210938 4.835938 C 25.160156 4.878906 25.105469 4.917969 25.054688 4.957031 C 25.023438 4.992188 25 5.027344 24.972656 5.0625 Z M 24.6875 5.320312 C 24.648438 5.367188 24.613281 5.410156 24.578125 5.457031 C 24.636719 5.421875 24.695312 5.394531 24.75 5.367188 C 24.78125 5.308594 24.816406 5.253906 24.851562 5.203125 C 24.796875 5.238281 24.746094 5.277344 24.6875 5.320312 Z M 24.328125 5.65625 C 24.285156 5.703125 24.25 5.75 24.210938 5.796875 C 24.269531 5.761719 24.328125 5.738281 24.386719 5.707031 C 24.421875 5.65625 24.449219 5.597656 24.484375 5.546875 C 24.433594 5.582031 24.378906 5.617188 24.328125 5.65625 Z M 23.96875 5.976562 C 23.925781 6.023438 23.886719 6.0625 23.851562 6.109375 C 23.910156 6.082031 23.960938 6.050781 24.019531 6.027344 C 24.054688 5.976562 24.082031 5.921875 24.117188 5.878906 C 24.066406 5.910156 24.019531 5.941406 23.96875 5.976562 Z M 23.601562 6.300781 C 23.558594 6.34375 23.523438 6.382812 23.488281 6.429688 C 23.542969 6.398438 23.601562 6.371094 23.652344 6.347656 C 23.6875 6.296875 23.71875 6.25 23.75 6.203125 C 23.699219 6.230469 23.652344 6.265625 23.601562 6.300781 Z M 23.257812 6.59375 L 23.238281 6.605469 C 23.199219 6.644531 23.164062 6.683594 23.125 6.730469 C 23.175781 6.703125 23.230469 6.679688 23.28125 6.65625 C 23.316406 6.609375 23.34375 6.5625 23.378906 6.515625 C 23.34375 6.535156 23.304688 6.5625 23.257812 6.59375 Z M 22.875 6.910156 C 22.832031 6.953125 22.796875 6.992188 22.761719 7.035156 C 22.816406 7.003906 22.867188 6.980469 22.925781 6.957031 C 22.960938 6.910156 22.992188 6.867188 23.023438 6.820312 C 23.007812 6.832031 22.992188 6.835938 22.980469 6.847656 C 22.9375 6.867188 22.910156 6.886719 22.875 6.910156 Z M 22.519531 7.207031 C 22.316406 7.410156 22.140625 7.636719 22.003906 7.886719 C 21.796875 8.25 21.660156 8.644531 21.578125 9.050781 C 21.398438 9.980469 21.507812 10.933594 21.640625 11.742188 C 21.757812 12.441406 21.914062 13.148438 22.058594 13.828125 C 22.28125 14.839844 22.507812 15.882812 22.617188 16.921875 C 22.640625 17.136719 22.652344 17.351562 22.664062 17.566406 C 22.78125 17.484375 22.890625 17.40625 23 17.324219 C 22.996094 16.992188 22.980469 16.679688 22.949219 16.386719 C 22.851562 15.351562 22.625 14.324219 22.410156 13.324219 C 22.269531 12.683594 22.125 12.023438 22.011719 11.363281 C 21.878906 10.578125 21.769531 9.65625 21.933594 8.742188 C 22.003906 8.347656 22.136719 7.964844 22.320312 7.605469 C 22.414062 7.429688 22.523438 7.261719 22.648438 7.109375 C 22.613281 7.144531 22.566406 7.171875 22.519531 7.207031 Z M 23.363281 18.5625 C 23.292969 18.644531 23.230469 18.722656 23.152344 18.800781 C 23.128906 18.894531 23.105469 18.984375 23.082031 19.078125 C 23.148438 18.996094 23.210938 18.917969 23.273438 18.835938 C 23.304688 18.742188 23.332031 18.648438 23.363281 18.5625 Z M 23.601562 18.210938 C 23.636719 18.125 23.664062 18.03125 23.695312 17.941406 C 23.628906 18.015625 23.566406 18.089844 23.496094 18.167969 C 23.472656 18.257812 23.449219 18.351562 23.425781 18.445312 C 23.480469 18.382812 23.53125 18.3125 23.582031 18.246094 Z M 25.542969 5.226562 C 25.546875 5.179688 25.558594 5.132812 25.570312 5.085938 C 25.476562 5.109375 25.390625 5.140625 25.296875 5.167969 C 25.273438 5.25 25.25 5.332031 25.226562 5.417969 C 25.328125 5.394531 25.425781 5.371094 25.523438 5.355469 C 25.523438 5.3125 25.53125 5.265625 25.542969 5.226562 Z M 25.386719 4.902344 C 25.355469 4.976562 25.328125 5.058594 25.304688 5.132812 C 25.390625 5.105469 25.484375 5.074219 25.570312 5.050781 C 25.589844 4.964844 25.613281 4.878906 25.636719 4.796875 C 25.546875 4.832031 25.464844 4.867188 25.386719 4.902344 Z M 25.640625 4.765625 C 25.664062 4.683594 25.6875 4.605469 25.714844 4.523438 C 25.640625 4.5625 25.570312 4.605469 25.496094 4.644531 C 25.460938 4.714844 25.433594 4.789062 25.398438 4.867188 C 25.476562 4.835938 25.558594 4.800781 25.640625 4.765625 Z M 12.839844 20.289062 L 12.765625 20.230469 C 12.730469 20.230469 12.695312 20.222656 12.65625 20.222656 L 12.722656 20.292969 Z M 24.292969 6.96875 C 24.296875 6.878906 24.308594 6.785156 24.320312 6.691406 C 24.21875 6.695312 24.117188 6.703125 24.011719 6.714844 C 23.972656 6.898438 23.9375 7.085938 23.921875 7.273438 C 23.84375 8.035156 23.949219 8.808594 24.066406 9.464844 C 24.148438 9.917969 24.238281 10.375 24.332031 10.820312 C 24.523438 11.753906 24.726562 12.726562 24.78125 13.695312 C 24.820312 14.429688 24.769531 15.160156 24.613281 15.875 C 24.695312 15.789062 24.769531 15.703125 24.84375 15.609375 C 25.058594 14.8125 25.148438 13.980469 25.113281 13.15625 C 25.066406 12.203125 24.867188 11.25 24.683594 10.324219 C 24.601562 9.917969 24.511719 9.5 24.445312 9.085938 C 24.339844 8.453125 24.234375 7.707031 24.292969 6.96875 Z M 24.6875 6.65625 C 24.695312 6.5625 24.707031 6.464844 24.710938 6.371094 C 24.605469 6.378906 24.5 6.382812 24.402344 6.394531 C 24.386719 6.480469 24.367188 6.570312 24.355469 6.65625 C 24.464844 6.65625 24.578125 6.65625 24.6875 6.65625 Z M 24.84375 5.796875 C 24.820312 5.878906 24.804688 5.964844 24.785156 6.050781 C 24.890625 6.039062 24.996094 6.027344 25.101562 6.015625 C 25.113281 5.921875 25.117188 5.832031 25.136719 5.738281 C 25.035156 5.753906 24.9375 5.773438 24.84375 5.796875 Z M 25.140625 5.714844 C 25.152344 5.640625 25.164062 5.5625 25.183594 5.488281 C 25.183594 5.476562 25.1875 5.464844 25.195312 5.445312 C 25.101562 5.46875 25.011719 5.492188 24.925781 5.515625 C 24.902344 5.59375 24.875 5.671875 24.855469 5.753906 C 24.855469 5.753906 24.855469 5.753906 24.855469 5.761719 C 24.949219 5.75 25.046875 5.730469 25.140625 5.714844 Z M 24.816406 5.800781 C 24.726562 5.820312 24.636719 5.84375 24.546875 5.867188 C 24.53125 5.917969 24.507812 5.976562 24.488281 6.027344 C 24.484375 6.050781 24.476562 6.074219 24.472656 6.097656 C 24.566406 6.082031 24.660156 6.070312 24.757812 6.058594 C 24.78125 5.96875 24.796875 5.882812 24.816406 5.800781 Z M 24.78125 6.074219 C 24.761719 6.160156 24.75 6.253906 24.738281 6.347656 C 24.851562 6.34375 24.964844 6.335938 25.078125 6.335938 C 25.082031 6.238281 25.089844 6.140625 25.09375 6.046875 C 24.996094 6.050781 24.890625 6.0625 24.78125 6.074219 Z M 24.757812 6.082031 C 24.660156 6.09375 24.566406 6.109375 24.464844 6.128906 C 24.445312 6.207031 24.421875 6.289062 24.402344 6.378906 C 24.507812 6.367188 24.605469 6.359375 24.710938 6.355469 C 24.726562 6.253906 24.738281 6.167969 24.757812 6.082031 Z M 24.445312 6.128906 C 24.355469 6.144531 24.269531 6.160156 24.183594 6.183594 C 24.171875 6.21875 24.152344 6.253906 24.140625 6.289062 C 24.128906 6.324219 24.113281 6.371094 24.101562 6.410156 C 24.195312 6.394531 24.285156 6.382812 24.378906 6.371094 C 24.398438 6.289062 24.421875 6.207031 24.445312 6.128906 Z M 24.375 6.398438 C 24.28125 6.410156 24.183594 6.421875 24.089844 6.441406 C 24.066406 6.523438 24.042969 6.605469 24.023438 6.683594 C 24.125 6.671875 24.226562 6.667969 24.328125 6.667969 C 24.34375 6.574219 24.355469 6.488281 24.375 6.398438 Z M 23.78125 6.558594 C 23.757812 6.609375 23.738281 6.660156 23.722656 6.71875 C 23.816406 6.703125 23.902344 6.695312 23.996094 6.683594 C 24.011719 6.605469 24.035156 6.523438 24.058594 6.445312 C 23.972656 6.464844 23.886719 6.480469 23.804688 6.5 C 23.796875 6.523438 23.792969 6.539062 23.78125 6.558594 Z M 24.761719 13.691406 C 24.710938 12.726562 24.507812 11.753906 24.316406 10.820312 C 24.222656 10.375 24.128906 9.917969 24.046875 9.464844 C 23.933594 8.808594 23.828125 8.035156 23.902344 7.265625 C 23.921875 7.082031 23.949219 6.894531 23.996094 6.714844 C 23.902344 6.726562 23.808594 6.738281 23.71875 6.75 C 23.628906 7.015625 23.570312 7.285156 23.535156 7.5625 C 23.445312 8.355469 23.546875 9.15625 23.664062 9.835938 C 23.75 10.328125 23.855469 10.828125 23.957031 11.3125 C 24.152344 12.261719 24.363281 13.242188 24.425781 14.226562 C 24.464844 14.875 24.4375 15.527344 24.332031 16.167969 C 24.421875 16.078125 24.5 15.992188 24.589844 15.898438 C 24.746094 15.179688 24.804688 14.433594 24.761719 13.691406 Z M 23.425781 6.824219 C 23.285156 7.15625 23.195312 7.503906 23.148438 7.859375 C 23.035156 8.679688 23.140625 9.511719 23.261719 10.21875 C 23.355469 10.753906 23.46875 11.296875 23.578125 11.8125 C 23.78125 12.777344 23.988281 13.769531 24.066406 14.765625 C 24.105469 15.328125 24.09375 15.898438 24.03125 16.464844 C 24.125 16.375 24.210938 16.289062 24.304688 16.203125 C 24.414062 15.550781 24.445312 14.886719 24.402344 14.230469 C 24.339844 13.25 24.136719 12.273438 23.933594 11.316406 C 23.832031 10.835938 23.722656 10.335938 23.640625 9.839844 C 23.523438 9.160156 23.414062 8.355469 23.511719 7.558594 C 23.542969 7.285156 23.601562 7.011719 23.6875 6.75 C 23.601562 6.761719 23.519531 6.785156 23.4375 6.800781 C 23.433594 6.8125 23.425781 6.820312 23.425781 6.824219 Z M 24.320312 16.230469 C 24.304688 16.328125 24.285156 16.429688 24.261719 16.527344 C 24.34375 16.441406 24.421875 16.351562 24.496094 16.265625 C 24.519531 16.167969 24.546875 16.074219 24.566406 15.976562 C 24.488281 16.054688 24.410156 16.144531 24.320312 16.230469 Z M 24.292969 16.257812 C 24.207031 16.347656 24.113281 16.433594 24.023438 16.515625 C 24.011719 16.613281 23.996094 16.71875 23.984375 16.816406 C 24.070312 16.730469 24.152344 16.644531 24.238281 16.554688 C 24.257812 16.457031 24.273438 16.359375 24.292969 16.257812 Z M 23.996094 16.542969 C 23.902344 16.632812 23.808594 16.714844 23.710938 16.800781 C 23.707031 16.898438 23.695312 17.003906 23.683594 17.109375 C 23.773438 17.027344 23.863281 16.941406 23.949219 16.851562 C 23.96875 16.746094 23.984375 16.648438 23.996094 16.542969 Z M 23.972656 16.863281 C 23.957031 16.964844 23.9375 17.0625 23.921875 17.160156 C 24 17.078125 24.078125 16.992188 24.152344 16.90625 C 24.175781 16.804688 24.199219 16.707031 24.222656 16.609375 C 24.140625 16.695312 24.058594 16.777344 23.972656 16.863281 Z M 23.945312 16.894531 C 23.855469 16.980469 23.769531 17.0625 23.683594 17.144531 C 23.671875 17.242188 23.660156 17.339844 23.640625 17.445312 C 23.722656 17.363281 23.808594 17.28125 23.886719 17.195312 C 23.910156 17.089844 23.925781 16.992188 23.945312 16.894531 Z M 23.652344 17.167969 C 23.558594 17.253906 23.460938 17.335938 23.363281 17.417969 C 23.355469 17.515625 23.34375 17.621094 23.339844 17.722656 C 23.433594 17.644531 23.523438 17.554688 23.613281 17.46875 C 23.625 17.371094 23.640625 17.265625 23.652344 17.167969 Z M 23.636719 17.484375 C 23.617188 17.585938 23.601562 17.683594 23.582031 17.78125 C 23.660156 17.703125 23.734375 17.621094 23.808594 17.539062 C 23.832031 17.441406 23.855469 17.339844 23.878906 17.242188 C 23.796875 17.324219 23.71875 17.40625 23.636719 17.484375 Z M 23.605469 17.515625 C 23.519531 17.601562 23.425781 17.683594 23.332031 17.765625 C 23.320312 17.863281 23.308594 17.96875 23.292969 18.066406 C 23.378906 17.984375 23.46875 17.898438 23.546875 17.8125 C 23.570312 17.710938 23.589844 17.613281 23.605469 17.515625 Z M 23.304688 17.789062 C 23.210938 17.871094 23.113281 17.949219 23.011719 18.03125 C 23.007812 18.136719 23 18.234375 22.992188 18.339844 C 23.082031 18.257812 23.175781 18.179688 23.261719 18.097656 C 23.28125 17.992188 23.292969 17.886719 23.304688 17.789062 Z M 23.285156 18.109375 C 23.269531 18.207031 23.25 18.3125 23.234375 18.410156 C 23.316406 18.328125 23.390625 18.242188 23.46875 18.15625 C 23.488281 18.054688 23.511719 17.957031 23.535156 17.859375 C 23.460938 17.945312 23.375 18.027344 23.285156 18.109375 Z M 23.257812 18.136719 C 23.171875 18.21875 23.078125 18.300781 22.984375 18.382812 C 22.972656 18.484375 22.960938 18.589844 22.949219 18.695312 C 23.035156 18.613281 23.125 18.53125 23.207031 18.445312 C 23.230469 18.339844 23.246094 18.234375 23.257812 18.136719 Z M 12.421875 20.027344 L 12.328125 20.007812 L 12.394531 20.078125 L 12.492188 20.089844 Z M 12.53125 20.097656 L 12.621094 20.109375 L 12.554688 20.054688 L 12.46875 20.039062 Z M 11.753906 19.695312 C 10.777344 19.398438 9.753906 19.324219 8.871094 19.480469 C 8.519531 19.542969 8.179688 19.65625 7.859375 19.8125 C 7.242188 20.113281 6.777344 20.554688 6.351562 20.972656 C 6.300781 21.027344 6.25 21.078125 6.195312 21.132812 L 6.339844 21.007812 C 6.875 20.5625 7.351562 20.207031 7.933594 19.949219 C 8.265625 19.8125 8.613281 19.707031 8.96875 19.648438 C 9.839844 19.496094 10.875 19.550781 11.875 19.789062 C 11.933594 19.800781 11.984375 19.816406 12.039062 19.828125 L 11.972656 19.757812 C 11.898438 19.742188 11.828125 19.71875 11.753906 19.695312 Z M 11.933594 19.730469 L 11.875 19.667969 C 11.800781 19.636719 11.71875 19.601562 11.644531 19.574219 C 10.695312 19.222656 9.648438 19.121094 8.769531 19.289062 C 8.421875 19.351562 8.078125 19.472656 7.765625 19.648438 C 7.179688 19.972656 6.761719 20.4375 6.339844 20.925781 C 6.300781 20.972656 6.253906 21.027344 6.21875 21.078125 C 6.253906 21.042969 6.292969 21.003906 6.328125 20.96875 C 6.753906 20.542969 7.226562 20.109375 7.839844 19.800781 C 8.167969 19.644531 8.507812 19.53125 8.863281 19.46875 C 9.746094 19.304688 10.777344 19.382812 11.757812 19.683594 C 11.824219 19.6875 11.882812 19.707031 11.933594 19.730469 Z M 6.160156 21.199219 C 6.21875 21.152344 6.28125 21.113281 6.339844 21.066406 C 6.824219 20.722656 7.359375 20.375 8.015625 20.121094 C 8.351562 19.992188 8.703125 19.898438 9.054688 19.847656 C 10.160156 19.671875 11.253906 19.789062 11.972656 19.917969 L 12.125 19.9375 L 12.0625 19.863281 C 11.996094 19.847656 11.925781 19.828125 11.863281 19.8125 C 10.871094 19.574219 9.839844 19.519531 8.96875 19.671875 C 8.613281 19.730469 8.269531 19.828125 7.945312 19.972656 C 7.363281 20.230469 6.886719 20.578125 6.359375 21.027344 C 6.292969 21.085938 6.226562 21.144531 6.160156 21.199219 Z M 12.074219 19.847656 L 12.15625 19.871094 L 12.089844 19.8125 L 12.015625 19.789062 Z M 12.101562 19.882812 L 12.160156 19.949219 L 12.246094 19.96875 C 12.222656 19.945312 12.207031 19.921875 12.183594 19.90625 C 12.160156 19.894531 12.132812 19.886719 12.101562 19.882812 Z M 12.292969 19.972656 L 12.382812 19.992188 L 12.316406 19.9375 L 12.234375 19.917969 Z M 12.28125 19.996094 L 12.1875 19.980469 L 12.253906 20.054688 L 12.351562 20.066406 Z M 12.148438 19.972656 L 11.96875 19.9375 C 11.246094 19.8125 10.167969 19.695312 9.0625 19.871094 C 8.707031 19.921875 8.363281 20.015625 8.027344 20.144531 C 7.371094 20.394531 6.835938 20.746094 6.359375 21.085938 C 6.28125 21.136719 6.207031 21.195312 6.132812 21.246094 C 6.203125 21.199219 6.277344 21.160156 6.347656 21.113281 C 6.792969 20.847656 7.398438 20.507812 8.101562 20.277344 C 8.445312 20.164062 8.792969 20.085938 9.148438 20.03125 C 10.019531 19.90625 11.007812 19.90625 12.074219 20.03125 L 12.207031 20.050781 C 12.195312 20.027344 12.171875 19.996094 12.148438 19.972656 Z M 11.53125 19.449219 C 10.613281 19.050781 9.542969 18.917969 8.671875 19.089844 C 8.324219 19.160156 7.988281 19.289062 7.679688 19.480469 C 7.121094 19.828125 6.738281 20.3125 6.335938 20.871094 C 6.300781 20.914062 6.269531 20.957031 6.242188 21.003906 C 6.269531 20.96875 6.292969 20.9375 6.324219 20.902344 C 6.742188 20.414062 7.167969 19.949219 7.753906 19.625 C 8.066406 19.449219 8.410156 19.328125 8.765625 19.257812 C 9.648438 19.089844 10.695312 19.195312 11.648438 19.542969 C 11.710938 19.566406 11.769531 19.589844 11.828125 19.613281 L 11.777344 19.5625 C 11.707031 19.527344 11.625 19.484375 11.53125 19.449219 Z M 11.734375 19.515625 L 11.695312 19.472656 C 11.609375 19.421875 11.519531 19.375 11.429688 19.328125 C 10.527344 18.871094 9.464844 18.707031 8.578125 18.898438 C 8.226562 18.972656 7.894531 19.113281 7.597656 19.316406 C 7.054688 19.6875 6.707031 20.210938 6.335938 20.816406 C 6.3125 20.851562 6.289062 20.894531 6.265625 20.925781 C 6.28125 20.902344 6.300781 20.882812 6.316406 20.859375 C 6.726562 20.304688 7.101562 19.816406 7.667969 19.460938 C 7.976562 19.277344 8.316406 19.144531 8.671875 19.074219 C 9.550781 18.894531 10.625 19.027344 11.542969 19.433594 C 11.613281 19.457031 11.679688 19.484375 11.734375 19.515625 Z M 11.894531 19.644531 L 11.945312 19.667969 L 11.898438 19.625 L 11.851562 19.601562 Z M 11.933594 19.6875 L 11.984375 19.746094 L 12.054688 19.769531 L 12.003906 19.71875 Z M 12.109375 19.78125 C 12.125 19.789062 12.148438 19.792969 12.167969 19.804688 L 12.121094 19.765625 L 12.066406 19.742188 Z M 12.148438 19.828125 L 12.199219 19.882812 L 12.277344 19.90625 L 12.21875 19.859375 C 12.199219 19.847656 12.175781 19.835938 12.148438 19.828125 Z M 12.335938 19.917969 L 12.394531 19.933594 L 12.339844 19.898438 L 12.289062 19.875 Z M 12.375 19.957031 C 12.394531 19.972656 12.410156 19.992188 12.433594 20.007812 L 12.507812 20.027344 L 12.449219 19.980469 Z M 12.566406 20.03125 L 12.632812 20.042969 L 12.578125 20.015625 L 12.515625 19.996094 Z M 12.613281 20.066406 L 12.671875 20.113281 L 12.753906 20.125 L 12.695312 20.085938 Z M 12.710938 20.148438 L 12.777344 20.199219 L 12.871094 20.207031 L 12.800781 20.160156 Z M 12.8125 20.136719 L 12.875 20.148438 L 12.824219 20.121094 L 12.757812 20.101562 C 12.78125 20.113281 12.800781 20.125 12.8125 20.136719 Z M 12.863281 20.171875 L 12.921875 20.210938 L 13.007812 20.21875 L 12.945312 20.183594 Z M 12.960938 20.242188 L 13.03125 20.289062 L 13.132812 20.289062 L 13.0625 20.246094 Z M 13.066406 20.222656 L 13.136719 20.230469 L 13.085938 20.207031 L 13.015625 20.195312 Z M 13.121094 20.253906 L 13.1875 20.289062 L 13.277344 20.289062 L 13.210938 20.257812 Z M 13.449219 20.375 L 13.339844 20.382812 L 13.414062 20.425781 L 13.53125 20.414062 Z M 13.578125 20.410156 L 13.6875 20.398438 L 13.613281 20.371094 L 13.507812 20.375 Z M 13.402344 20.351562 L 13.328125 20.316406 L 13.222656 20.316406 L 13.292969 20.359375 Z M 13.335938 20.292969 L 13.410156 20.292969 L 13.351562 20.269531 L 13.277344 20.265625 Z M 13.394531 20.324219 L 13.457031 20.351562 L 13.550781 20.347656 L 13.480469 20.324219 Z M 13.613281 20.347656 L 13.6875 20.339844 L 13.632812 20.324219 L 13.554688 20.324219 Z M 13.671875 20.363281 L 13.742188 20.386719 L 13.839844 20.375 L 13.769531 20.359375 Z M 13.792969 20.410156 C 13.960938 20.472656 14.125 20.539062 14.289062 20.601562 C 14.613281 20.722656 14.921875 20.847656 15.234375 20.957031 C 16.292969 21.335938 17.449219 21.660156 18.734375 21.542969 C 19.945312 21.433594 21.21875 20.839844 22.246094 19.945312 C 22.257812 19.839844 22.269531 19.734375 22.28125 19.625 C 21.304688 20.410156 20.160156 20.945312 19.03125 21.109375 C 17.734375 21.300781 16.542969 21.078125 15.457031 20.8125 C 15.066406 20.71875 14.6875 20.609375 14.289062 20.496094 L 13.910156 20.394531 Z M 13.902344 20.371094 L 13.984375 20.359375 L 13.925781 20.347656 L 13.847656 20.351562 Z M 13.96875 20.386719 L 14.289062 20.472656 C 14.6875 20.585938 15.066406 20.6875 15.457031 20.789062 C 16.550781 21.054688 17.734375 21.277344 19.027344 21.085938 C 20.152344 20.914062 21.308594 20.382812 22.28125 19.589844 C 22.285156 19.484375 22.296875 19.375 22.304688 19.269531 C 21.398438 19.949219 20.363281 20.4375 19.320312 20.652344 C 17.996094 20.921875 16.734375 20.800781 15.675781 20.652344 C 15.1875 20.585938 14.707031 20.496094 14.195312 20.40625 L 14.074219 20.382812 Z M 22.613281 19.019531 C 22.519531 19.097656 22.425781 19.171875 22.328125 19.246094 C 22.320312 19.351562 22.316406 19.460938 22.308594 19.566406 C 22.402344 19.492188 22.492188 19.417969 22.578125 19.339844 C 22.589844 19.234375 22.601562 19.132812 22.613281 19.019531 Z M 22.605469 19.3125 C 22.695312 19.230469 22.78125 19.148438 22.867188 19.066406 C 22.886719 18.960938 22.902344 18.863281 22.921875 18.757812 C 22.828125 18.839844 22.742188 18.921875 22.648438 18.996094 C 22.628906 19.101562 22.617188 19.207031 22.605469 19.3125 Z M 14.199219 20.375 C 14.710938 20.46875 15.1875 20.554688 15.683594 20.625 C 16.742188 20.777344 17.996094 20.894531 19.320312 20.625 C 20.363281 20.410156 21.402344 19.921875 22.308594 19.234375 C 22.316406 19.125 22.316406 19.019531 22.316406 18.910156 C 21.503906 19.496094 20.589844 19.933594 19.617188 20.195312 C 18.265625 20.542969 16.980469 20.539062 15.902344 20.484375 C 15.351562 20.457031 14.804688 20.410156 14.242188 20.359375 L 14.160156 20.371094 Z M 22.328125 19.21875 C 22.425781 19.144531 22.519531 19.066406 22.613281 18.992188 C 22.625 18.886719 22.628906 18.777344 22.636719 18.667969 C 22.535156 18.742188 22.4375 18.816406 22.332031 18.894531 C 22.339844 18.996094 22.332031 19.109375 22.328125 19.21875 Z M 22.648438 18.960938 C 22.742188 18.882812 22.832031 18.800781 22.925781 18.71875 C 22.9375 18.613281 22.957031 18.507812 22.96875 18.398438 C 22.867188 18.480469 22.773438 18.5625 22.675781 18.636719 C 22.664062 18.753906 22.652344 18.859375 22.648438 18.960938 Z M 22.945312 18.730469 C 22.933594 18.828125 22.914062 18.933594 22.898438 19.03125 C 22.980469 18.949219 23.054688 18.871094 23.128906 18.78125 C 23.152344 18.683594 23.175781 18.585938 23.195312 18.484375 C 23.113281 18.574219 23.03125 18.65625 22.945312 18.730469 Z M 22.605469 19.351562 C 22.59375 19.457031 22.578125 19.554688 22.558594 19.660156 C 22.640625 19.578125 22.722656 19.496094 22.796875 19.417969 C 22.820312 19.316406 22.84375 19.210938 22.863281 19.113281 C 22.773438 19.1875 22.6875 19.269531 22.605469 19.351562 Z M 22.578125 19.375 C 22.492188 19.449219 22.402344 19.527344 22.308594 19.601562 C 22.304688 19.707031 22.292969 19.8125 22.28125 19.917969 C 22.367188 19.839844 22.449219 19.765625 22.53125 19.6875 C 22.542969 19.585938 22.558594 19.480469 22.578125 19.375 Z M 22.273438 19.957031 C 22.261719 20.0625 22.246094 20.164062 22.230469 20.269531 C 22.304688 20.195312 22.378906 20.121094 22.457031 20.042969 C 22.480469 19.945312 22.496094 19.839844 22.519531 19.734375 C 22.4375 19.8125 22.355469 19.882812 22.273438 19.957031 Z M 22.246094 19.980469 C 21.9375 20.246094 21.613281 20.484375 21.269531 20.695312 C 20.449219 21.1875 19.578125 21.492188 18.734375 21.566406 C 17.445312 21.683594 16.289062 21.351562 15.222656 20.980469 C 14.910156 20.871094 14.589844 20.746094 14.277344 20.625 C 14.097656 20.554688 13.914062 20.484375 13.734375 20.421875 L 13.621094 20.433594 C 13.824219 20.53125 14.027344 20.636719 14.222656 20.734375 C 14.480469 20.863281 14.746094 20.996094 15.007812 21.125 C 16.03125 21.609375 17.152344 22.050781 18.4375 22.003906 C 19.746094 21.957031 21.125 21.316406 22.195312 20.300781 C 22.21875 20.195312 22.230469 20.089844 22.246094 19.980469 Z M 18.445312 22.027344 C 17.152344 22.074219 16.027344 21.632812 15.003906 21.144531 C 14.742188 21.019531 14.472656 20.882812 14.21875 20.753906 C 14.007812 20.648438 13.792969 20.539062 13.578125 20.433594 L 13.457031 20.445312 C 13.683594 20.585938 13.910156 20.722656 14.132812 20.863281 C 14.351562 21.003906 14.574219 21.144531 14.800781 21.28125 C 15.78125 21.875 16.875 22.425781 18.160156 22.457031 L 18.234375 22.457031 C 19.59375 22.457031 21.066406 21.757812 22.140625 20.644531 C 22.164062 20.542969 22.183594 20.4375 22.199219 20.335938 C 21.125 21.347656 19.746094 21.980469 18.445312 22.027344 Z M 20.710938 21.789062 C 19.875 22.257812 18.992188 22.503906 18.152344 22.484375 C 16.863281 22.460938 15.769531 21.902344 14.78125 21.3125 C 14.5625 21.175781 14.335938 21.03125 14.113281 20.894531 C 13.882812 20.746094 13.648438 20.601562 13.414062 20.457031 L 13.289062 20.46875 C 13.527344 20.648438 13.765625 20.828125 13.996094 21.007812 C 14.183594 21.152344 14.382812 21.304688 14.574219 21.449219 C 15.507812 22.152344 16.554688 22.816406 17.855469 22.914062 C 19.328125 23.027344 20.945312 22.265625 22.046875 20.992188 C 22.070312 20.894531 22.101562 20.792969 22.117188 20.695312 C 21.707031 21.125 21.230469 21.492188 20.710938 21.789062 Z M 13.375 20.433594 L 13.292969 20.386719 L 13.175781 20.394531 L 13.253906 20.449219 Z M 13.257812 20.363281 L 13.183594 20.316406 L 13.074219 20.316406 L 13.148438 20.371094 Z M 13.027344 20.3125 L 12.914062 20.3125 L 12.992188 20.375 L 13.109375 20.371094 Z M 12.992188 20.289062 L 12.914062 20.234375 L 12.8125 20.230469 L 12.882812 20.289062 Z M 12.734375 20.195312 L 12.664062 20.136719 L 12.566406 20.125 L 12.632812 20.1875 Z M 12.519531 20.121094 L 12.417969 20.109375 L 12.484375 20.183594 L 12.589844 20.1875 Z M 12.382812 20.101562 L 12.277344 20.089844 C 12.300781 20.121094 12.324219 20.144531 12.339844 20.171875 L 12.449219 20.175781 Z M 12.242188 20.078125 L 12.085938 20.054688 C 11.019531 19.925781 10.039062 19.925781 9.167969 20.054688 C 8.8125 20.109375 8.464844 20.1875 8.121094 20.300781 C 7.417969 20.53125 6.8125 20.863281 6.371094 21.132812 C 6.289062 21.175781 6.207031 21.230469 6.132812 21.277344 L 6.132812 21.28125 C 6.207031 21.242188 6.28125 21.199219 6.363281 21.164062 C 6.953125 20.863281 7.566406 20.625 8.203125 20.445312 C 8.550781 20.351562 8.90625 20.277344 9.257812 20.230469 C 10.113281 20.113281 11.101562 20.085938 12.195312 20.15625 L 12.3125 20.160156 Z M 6.316406 20.800781 C 6.691406 20.195312 7.039062 19.667969 7.585938 19.292969 C 7.886719 19.089844 8.226562 18.945312 8.578125 18.875 C 9.464844 18.683594 10.539062 18.847656 11.4375 19.304688 C 11.503906 19.335938 11.5625 19.371094 11.625 19.40625 L 11.601562 19.386719 C 11.507812 19.324219 11.417969 19.265625 11.316406 19.207031 C 10.445312 18.695312 9.359375 18.503906 8.480469 18.707031 C 8.125 18.78125 7.792969 18.933594 7.507812 19.15625 C 6.945312 19.585938 6.601562 20.234375 6.328125 20.765625 L 6.289062 20.847656 C 6.300781 20.824219 6.3125 20.8125 6.316406 20.800781 Z M 11.777344 19.519531 L 11.800781 19.542969 L 11.828125 19.554688 L 11.800781 19.53125 Z M 11.984375 19.667969 L 12.007812 19.6875 L 12.039062 19.699219 L 12.007812 19.675781 Z M 12.207031 19.800781 L 12.234375 19.824219 L 12.269531 19.835938 L 12.242188 19.8125 Z M 12.433594 19.925781 L 12.460938 19.949219 C 12.472656 19.957031 12.484375 19.957031 12.496094 19.960938 C 12.484375 19.957031 12.480469 19.949219 12.46875 19.945312 Z M 12.671875 20.042969 L 12.699219 20.0625 L 12.742188 20.074219 L 12.710938 20.054688 Z M 12.914062 20.144531 L 12.949219 20.160156 L 12.992188 20.164062 L 12.957031 20.148438 Z M 13.175781 20.222656 L 13.210938 20.242188 L 13.257812 20.246094 L 13.222656 20.234375 Z M 13.449219 20.28125 L 13.484375 20.292969 L 13.539062 20.292969 L 13.503906 20.28125 Z M 13.734375 20.328125 L 13.769531 20.339844 L 13.816406 20.339844 L 13.78125 20.335938 Z M 14.039062 20.347656 L 14.066406 20.351562 L 14.113281 20.347656 Z M 14.351562 20.339844 C 14.875 20.386719 15.386719 20.433594 15.898438 20.457031 C 16.972656 20.507812 18.253906 20.515625 19.605469 20.164062 C 20.578125 19.90625 21.496094 19.460938 22.316406 18.875 C 22.316406 18.769531 22.316406 18.667969 22.316406 18.554688 C 21.578125 19.0625 20.769531 19.457031 19.914062 19.730469 C 18.816406 20.074219 17.652344 20.253906 16.128906 20.316406 C 15.5625 20.339844 14.992188 20.339844 14.410156 20.335938 Z M 22.339844 18.859375 C 22.445312 18.78125 22.542969 18.707031 22.640625 18.632812 C 22.648438 18.527344 22.652344 18.421875 22.652344 18.316406 C 22.546875 18.394531 22.445312 18.46875 22.332031 18.542969 C 22.339844 18.648438 22.339844 18.753906 22.339844 18.859375 Z M 22.671875 18.609375 C 22.769531 18.53125 22.867188 18.449219 22.96875 18.363281 C 22.980469 18.257812 22.984375 18.15625 22.992188 18.050781 C 22.890625 18.132812 22.785156 18.210938 22.683594 18.289062 C 22.675781 18.398438 22.675781 18.503906 22.671875 18.609375 Z M 22.992188 18.019531 C 22.996094 17.917969 23 17.8125 23 17.710938 C 22.898438 17.792969 22.785156 17.875 22.675781 17.949219 C 22.675781 18.054688 22.675781 18.160156 22.675781 18.265625 C 22.785156 18.183594 22.890625 18.101562 22.992188 18.019531 Z M 23.019531 17.996094 C 23.117188 17.917969 23.21875 17.835938 23.308594 17.746094 C 23.320312 17.644531 23.328125 17.542969 23.339844 17.441406 C 23.238281 17.519531 23.136719 17.609375 23.035156 17.683594 C 23.03125 17.789062 23.023438 17.894531 23.019531 17.996094 Z M 23.339844 17.410156 C 23.34375 17.304688 23.351562 17.203125 23.355469 17.097656 C 23.25 17.183594 23.140625 17.265625 23.035156 17.347656 C 23.035156 17.453125 23.035156 17.550781 23.035156 17.660156 C 23.136719 17.574219 23.238281 17.492188 23.339844 17.410156 Z M 23.367188 17.386719 C 23.46875 17.304688 23.566406 17.21875 23.660156 17.132812 C 23.671875 17.027344 23.683594 16.929688 23.6875 16.824219 C 23.589844 16.910156 23.484375 16.992188 23.386719 17.078125 C 23.378906 17.179688 23.375 17.28125 23.367188 17.386719 Z M 23.6875 16.777344 C 23.722656 16.289062 23.71875 15.800781 23.675781 15.3125 C 23.59375 14.304688 23.378906 13.300781 23.171875 12.324219 C 23.046875 11.761719 22.925781 11.183594 22.828125 10.609375 C 22.707031 9.875 22.59375 9.011719 22.722656 8.15625 C 22.773438 7.785156 22.886719 7.421875 23.042969 7.082031 C 23.070312 7.015625 23.105469 6.953125 23.136719 6.894531 C 23.066406 6.917969 23 6.945312 22.933594 6.976562 C 22.851562 7.097656 22.769531 7.226562 22.707031 7.359375 C 22.535156 7.707031 22.414062 8.074219 22.351562 8.457031 C 22.207031 9.335938 22.316406 10.226562 22.445312 10.988281 C 22.546875 11.601562 22.683594 12.226562 22.808594 12.824219 C 23.023438 13.8125 23.238281 14.828125 23.332031 15.851562 C 23.367188 16.246094 23.378906 16.644531 23.367188 17.039062 C 23.484375 16.953125 23.582031 16.863281 23.6875 16.777344 Z M 23.070312 7.09375 C 22.914062 7.429688 22.808594 7.789062 22.757812 8.160156 C 22.628906 9.011719 22.742188 9.871094 22.863281 10.601562 C 22.960938 11.179688 23.082031 11.761719 23.207031 12.316406 C 23.414062 13.292969 23.628906 14.300781 23.710938 15.3125 C 23.75 15.792969 23.75 16.277344 23.722656 16.753906 C 23.820312 16.667969 23.914062 16.585938 24.007812 16.492188 C 24.078125 15.921875 24.089844 15.339844 24.046875 14.769531 C 23.976562 13.777344 23.761719 12.785156 23.558594 11.824219 C 23.449219 11.300781 23.332031 10.761719 23.246094 10.226562 C 23.125 9.515625 23.019531 8.679688 23.128906 7.859375 C 23.175781 7.5 23.273438 7.148438 23.414062 6.820312 C 23.339844 6.835938 23.261719 6.859375 23.1875 6.886719 C 23.140625 6.945312 23.101562 7.015625 23.070312 7.09375 Z M 23.421875 6.785156 C 23.449219 6.714844 23.480469 6.648438 23.511719 6.59375 C 23.445312 6.617188 23.375 6.644531 23.304688 6.671875 C 23.269531 6.730469 23.230469 6.789062 23.199219 6.847656 C 23.269531 6.824219 23.34375 6.800781 23.421875 6.785156 Z M 23.449219 6.777344 C 23.53125 6.761719 23.613281 6.742188 23.699219 6.726562 C 23.71875 6.667969 23.738281 6.609375 23.761719 6.550781 C 23.769531 6.539062 23.773438 6.523438 23.78125 6.511719 C 23.707031 6.527344 23.625 6.558594 23.546875 6.582031 C 23.511719 6.644531 23.480469 6.707031 23.449219 6.777344 Z M 23.792969 6.480469 C 23.820312 6.410156 23.851562 6.347656 23.886719 6.285156 C 23.816406 6.308594 23.746094 6.335938 23.675781 6.367188 C 23.636719 6.421875 23.601562 6.480469 23.566406 6.546875 C 23.636719 6.523438 23.710938 6.5 23.792969 6.480469 Z M 23.820312 6.46875 C 23.902344 6.453125 23.988281 6.429688 24.070312 6.417969 C 24.082031 6.371094 24.101562 6.332031 24.117188 6.285156 C 24.128906 6.253906 24.140625 6.226562 24.152344 6.191406 C 24.070312 6.214844 23.996094 6.238281 23.914062 6.261719 C 23.878906 6.335938 23.851562 6.398438 23.820312 6.46875 Z M 24.160156 6.167969 C 24.1875 6.097656 24.21875 6.027344 24.246094 5.964844 C 24.175781 5.992188 24.101562 6.023438 24.03125 6.050781 C 23.996094 6.109375 23.960938 6.171875 23.925781 6.238281 C 24.007812 6.207031 24.082031 6.183594 24.160156 6.167969 Z M 24.195312 6.15625 C 24.28125 6.132812 24.367188 6.117188 24.449219 6.097656 C 24.457031 6.070312 24.460938 6.046875 24.472656 6.015625 C 24.488281 5.964844 24.507812 5.917969 24.523438 5.867188 C 24.445312 5.890625 24.363281 5.910156 24.285156 5.941406 C 24.25 6.015625 24.21875 6.085938 24.195312 6.15625 Z M 24.53125 5.84375 C 24.558594 5.765625 24.589844 5.695312 24.617188 5.628906 C 24.546875 5.65625 24.472656 5.683594 24.402344 5.71875 C 24.367188 5.785156 24.332031 5.847656 24.296875 5.910156 C 24.375 5.890625 24.457031 5.867188 24.53125 5.84375 Z M 24.566406 5.835938 C 24.652344 5.8125 24.738281 5.789062 24.828125 5.773438 C 24.828125 5.765625 24.832031 5.761719 24.832031 5.753906 C 24.851562 5.679688 24.875 5.605469 24.902344 5.535156 C 24.820312 5.558594 24.738281 5.585938 24.660156 5.617188 C 24.617188 5.683594 24.589844 5.761719 24.566406 5.835938 Z M 24.902344 5.503906 C 24.925781 5.429688 24.957031 5.355469 24.984375 5.285156 C 24.910156 5.3125 24.839844 5.347656 24.761719 5.382812 C 24.726562 5.445312 24.695312 5.515625 24.660156 5.585938 C 24.746094 5.558594 24.820312 5.527344 24.902344 5.503906 Z M 24.933594 5.5 C 25.019531 5.476562 25.105469 5.453125 25.199219 5.429688 C 25.214844 5.347656 25.238281 5.261719 25.269531 5.179688 C 25.1875 5.207031 25.105469 5.238281 25.023438 5.273438 C 24.988281 5.34375 24.960938 5.417969 24.933594 5.5 Z M 25.273438 5.152344 C 25.296875 5.074219 25.328125 4.992188 25.355469 4.917969 C 25.28125 4.953125 25.203125 4.988281 25.136719 5.027344 C 25.101562 5.097656 25.066406 5.164062 25.035156 5.238281 C 25.113281 5.203125 25.195312 5.171875 25.273438 5.152344 Z M 25.222656 5.445312 L 25.210938 5.5 C 25.195312 5.570312 25.183594 5.640625 25.171875 5.714844 C 25.273438 5.695312 25.386719 5.683594 25.488281 5.671875 C 25.496094 5.574219 25.507812 5.480469 25.519531 5.390625 C 25.414062 5.402344 25.316406 5.421875 25.222656 5.445312 Z M 25.164062 5.738281 C 25.152344 5.832031 25.140625 5.921875 25.128906 6.015625 C 25.246094 6.003906 25.355469 6 25.472656 5.992188 C 25.472656 5.894531 25.476562 5.796875 25.484375 5.691406 C 25.378906 5.707031 25.269531 5.71875 25.164062 5.738281 Z M 25.125 6.039062 C 25.113281 6.140625 25.105469 6.230469 25.105469 6.332031 C 25.226562 6.332031 25.351562 6.332031 25.472656 6.332031 C 25.472656 6.242188 25.464844 6.160156 25.464844 6.074219 C 25.464844 6.058594 25.464844 6.039062 25.464844 6.015625 C 25.355469 6.027344 25.238281 6.035156 25.125 6.039062 Z M 25.105469 6.359375 C 25.105469 6.367188 25.105469 6.371094 25.105469 6.371094 C 25.101562 6.46875 25.101562 6.5625 25.105469 6.660156 C 25.234375 6.667969 25.367188 6.671875 25.5 6.679688 C 25.488281 6.570312 25.484375 6.464844 25.484375 6.355469 C 25.351562 6.359375 25.226562 6.359375 25.105469 6.359375 Z M 25.078125 6.371094 C 25.078125 6.367188 25.078125 6.359375 25.078125 6.359375 C 24.960938 6.359375 24.851562 6.367188 24.738281 6.371094 C 24.726562 6.464844 24.722656 6.558594 24.714844 6.65625 C 24.839844 6.65625 24.960938 6.660156 25.078125 6.667969 C 25.078125 6.570312 25.078125 6.46875 25.078125 6.371094 Z M 24.710938 6.679688 C 24.671875 7.382812 24.773438 8.09375 24.878906 8.691406 C 24.945312 9.0625 25.019531 9.441406 25.09375 9.800781 C 25.28125 10.714844 25.472656 11.660156 25.507812 12.601562 C 25.542969 13.492188 25.425781 14.375 25.160156 15.226562 C 25.226562 15.136719 25.292969 15.050781 25.355469 14.957031 C 25.703125 14.03125 25.867188 13.050781 25.839844 12.0625 C 25.816406 11.132812 25.625 10.203125 25.445312 9.296875 C 25.378906 8.96875 25.308594 8.636719 25.25 8.308594 C 25.148438 7.773438 25.089844 7.226562 25.066406 6.679688 C 24.957031 6.683594 24.832031 6.683594 24.710938 6.679688 Z M 25.484375 12.609375 C 25.449219 11.667969 25.257812 10.726562 25.070312 9.8125 C 24.996094 9.445312 24.921875 9.070312 24.855469 8.695312 C 24.75 8.097656 24.648438 7.382812 24.6875 6.679688 C 24.578125 6.679688 24.464844 6.679688 24.351562 6.683594 C 24.339844 6.777344 24.328125 6.871094 24.320312 6.964844 C 24.261719 7.703125 24.367188 8.441406 24.476562 9.070312 C 24.546875 9.480469 24.636719 9.898438 24.722656 10.308594 C 24.914062 11.230469 25.105469 12.191406 25.152344 13.144531 C 25.195312 13.957031 25.105469 14.765625 24.902344 15.550781 C 24.976562 15.464844 25.046875 15.375 25.117188 15.289062 C 25.390625 14.429688 25.519531 13.523438 25.484375 12.609375 Z M 25 15.480469 C 24.960938 15.53125 24.914062 15.578125 24.875 15.632812 C 24.851562 15.726562 24.820312 15.8125 24.792969 15.90625 C 24.855469 15.824219 24.921875 15.738281 24.984375 15.65625 C 25.019531 15.566406 25.046875 15.476562 25.078125 15.386719 C 25.054688 15.417969 25.03125 15.453125 25 15.480469 Z M 24.839844 15.679688 C 24.761719 15.765625 24.6875 15.851562 24.613281 15.933594 C 24.589844 16.027344 24.566406 16.125 24.542969 16.21875 C 24.601562 16.148438 24.660156 16.085938 24.710938 16.015625 C 24.722656 15.996094 24.738281 15.980469 24.75 15.964844 C 24.78125 15.863281 24.808594 15.769531 24.839844 15.679688 Z M 24.726562 16.027344 C 24.660156 16.109375 24.59375 16.191406 24.523438 16.269531 C 24.5 16.363281 24.472656 16.453125 24.449219 16.542969 C 24.511719 16.464844 24.578125 16.375 24.640625 16.292969 C 24.671875 16.207031 24.699219 16.121094 24.726562 16.027344 Z M 24.484375 16.316406 C 24.410156 16.40625 24.332031 16.484375 24.257812 16.574219 C 24.234375 16.671875 24.21875 16.765625 24.1875 16.859375 C 24.257812 16.769531 24.332031 16.691406 24.402344 16.601562 C 24.433594 16.507812 24.460938 16.410156 24.484375 16.316406 Z M 24.175781 16.910156 C 24.152344 17.003906 24.125 17.089844 24.101562 17.183594 L 24.148438 17.125 C 24.195312 17.0625 24.246094 16.996094 24.292969 16.933594 C 24.328125 16.847656 24.355469 16.753906 24.386719 16.667969 C 24.316406 16.746094 24.246094 16.828125 24.175781 16.910156 Z M 24.136719 16.957031 C 24.058594 17.042969 23.984375 17.125 23.910156 17.207031 C 23.890625 17.304688 23.867188 17.398438 23.84375 17.496094 C 23.914062 17.417969 23.988281 17.328125 24.058594 17.242188 C 24.082031 17.148438 24.117188 17.050781 24.136719 16.957031 Z M 23.828125 17.550781 C 23.804688 17.644531 23.78125 17.734375 23.75 17.828125 C 23.785156 17.78125 23.820312 17.734375 23.855469 17.691406 L 23.9375 17.578125 C 23.972656 17.492188 24 17.398438 24.03125 17.304688 C 23.96875 17.386719 23.902344 17.46875 23.828125 17.550781 Z M 23.792969 17.589844 C 23.722656 17.671875 23.648438 17.746094 23.570312 17.828125 C 23.554688 17.929688 23.53125 18.019531 23.507812 18.121094 C 23.578125 18.039062 23.648438 17.957031 23.710938 17.882812 C 23.738281 17.78125 23.769531 17.683594 23.792969 17.589844 Z M 23.457031 18.210938 C 23.378906 18.292969 23.304688 18.375 23.222656 18.457031 C 23.207031 18.554688 23.183594 18.648438 23.160156 18.746094 C 23.234375 18.667969 23.304688 18.585938 23.375 18.496094 C 23.410156 18.40625 23.4375 18.304688 23.457031 18.210938 Z M 23.117188 18.839844 C 23.042969 18.921875 22.96875 19.003906 22.886719 19.078125 C 22.867188 19.179688 22.851562 19.277344 22.828125 19.375 C 22.902344 19.292969 22.972656 19.210938 23.042969 19.132812 C 23.070312 19.03125 23.101562 18.933594 23.117188 18.839844 Z M 22.816406 19.425781 C 22.792969 19.519531 22.769531 19.621094 22.746094 19.710938 C 22.808594 19.632812 22.875 19.550781 22.9375 19.46875 C 22.96875 19.375 22.996094 19.28125 23.023438 19.1875 C 22.960938 19.269531 22.890625 19.347656 22.816406 19.425781 Z M 22.78125 19.460938 C 22.707031 19.542969 22.625 19.625 22.546875 19.699219 C 22.53125 19.804688 22.511719 19.90625 22.492188 20.003906 C 22.566406 19.921875 22.640625 19.839844 22.710938 19.753906 C 22.734375 19.660156 22.757812 19.5625 22.78125 19.460938 Z M 22.480469 20.054688 C 22.457031 20.15625 22.433594 20.246094 22.410156 20.347656 C 22.480469 20.265625 22.542969 20.183594 22.605469 20.101562 C 22.636719 20.007812 22.664062 19.917969 22.695312 19.824219 C 22.625 19.898438 22.554688 19.980469 22.480469 20.054688 Z M 22.445312 20.089844 C 22.367188 20.164062 22.296875 20.242188 22.222656 20.3125 C 22.207031 20.414062 22.1875 20.515625 22.164062 20.613281 C 22.234375 20.539062 22.304688 20.460938 22.367188 20.386719 C 22.398438 20.289062 22.421875 20.1875 22.445312 20.089844 Z M 22.152344 20.660156 C 22.128906 20.757812 22.105469 20.859375 22.082031 20.949219 C 22.148438 20.875 22.207031 20.800781 22.261719 20.722656 C 22.292969 20.632812 22.320312 20.539062 22.351562 20.4375 C 22.292969 20.515625 22.222656 20.589844 22.152344 20.660156 Z M 22.070312 21.007812 C 22.046875 21.101562 22.019531 21.1875 21.996094 21.277344 C 22.046875 21.207031 22.101562 21.132812 22.152344 21.054688 C 22.1875 20.96875 22.21875 20.882812 22.246094 20.792969 C 22.195312 20.871094 22.136719 20.9375 22.070312 21.007812 Z M 22.035156 21.050781 C 20.933594 22.304688 19.320312 23.050781 17.855469 22.945312 C 16.550781 22.847656 15.496094 22.175781 14.550781 21.472656 C 14.359375 21.328125 14.160156 21.175781 13.972656 21.03125 C 13.734375 20.847656 13.492188 20.660156 13.246094 20.472656 L 13.121094 20.484375 C 13.363281 20.699219 13.609375 20.925781 13.839844 21.148438 C 14.007812 21.304688 14.175781 21.46875 14.351562 21.621094 C 15.207031 22.390625 16.257812 23.207031 17.574219 23.375 C 19.105469 23.574219 20.867188 22.742188 21.957031 21.328125 C 21.984375 21.242188 22.011719 21.144531 22.035156 21.050781 Z M 13.210938 20.449219 C 13.183594 20.433594 13.160156 20.410156 13.132812 20.394531 L 13.007812 20.398438 L 13.085938 20.460938 Z M 12.972656 20.40625 L 12.851562 20.410156 L 12.925781 20.484375 L 13.054688 20.472656 Z M 12.945312 20.382812 L 12.871094 20.316406 L 12.753906 20.316406 L 12.824219 20.386719 Z M 12.71875 20.3125 L 12.601562 20.3125 C 12.625 20.339844 12.648438 20.363281 12.671875 20.394531 L 12.699219 20.394531 L 12.792969 20.386719 Z M 12.6875 20.289062 L 12.613281 20.21875 L 12.503906 20.210938 C 12.527344 20.242188 12.550781 20.265625 12.574219 20.289062 Z M 12.472656 20.207031 L 12.359375 20.199219 C 12.382812 20.230469 12.40625 20.257812 12.421875 20.289062 L 12.539062 20.289062 Z M 12.324219 20.195312 C 12.277344 20.195312 12.230469 20.1875 12.183594 20.183594 C 11.089844 20.113281 10.101562 20.144531 9.253906 20.257812 C 8.898438 20.304688 8.542969 20.382812 8.203125 20.472656 C 7.566406 20.652344 6.953125 20.894531 6.363281 21.195312 C 6.277344 21.234375 6.195312 21.28125 6.113281 21.324219 L 6.113281 21.328125 C 6.195312 21.292969 6.277344 21.257812 6.363281 21.222656 C 6.988281 20.96875 7.625 20.765625 8.28125 20.613281 C 8.613281 20.539062 8.976562 20.472656 9.351562 20.425781 C 10.195312 20.324219 11.136719 20.277344 12.300781 20.28125 L 12.398438 20.28125 C 12.375 20.253906 12.351562 20.222656 12.324219 20.195312 Z M 6.085938 21.339844 Z M 6.3125 20.742188 C 6.585938 20.210938 6.929688 19.554688 7.5 19.125 C 7.789062 18.90625 8.125 18.753906 8.480469 18.679688 C 9.363281 18.472656 10.457031 18.671875 11.335938 19.183594 C 11.382812 19.210938 11.429688 19.242188 11.480469 19.269531 C 11.394531 19.207031 11.304688 19.144531 11.21875 19.085938 C 10.359375 18.519531 9.277344 18.300781 8.398438 18.507812 C 8.042969 18.589844 7.71875 18.753906 7.433594 18.980469 C 6.886719 19.4375 6.597656 20.109375 6.335938 20.699219 Z M 16.125 20.289062 C 17.640625 20.230469 18.8125 20.050781 19.902344 19.707031 C 20.757812 19.433594 21.570312 19.03125 22.308594 18.527344 C 22.304688 18.421875 22.304688 18.316406 22.296875 18.210938 C 21.640625 18.644531 20.9375 18.996094 20.199219 19.277344 C 19.078125 19.695312 17.855469 19.972656 16.351562 20.15625 C 15.769531 20.222656 15.1875 20.277344 14.601562 20.3125 C 15.113281 20.3125 15.617188 20.3125 16.125 20.289062 Z M 22.332031 18.507812 C 22.445312 18.433594 22.546875 18.359375 22.652344 18.28125 C 22.652344 18.179688 22.652344 18.074219 22.652344 17.96875 C 22.542969 18.042969 22.433594 18.121094 22.316406 18.195312 C 22.328125 18.300781 22.332031 18.40625 22.332031 18.507812 Z M 22.660156 17.941406 C 22.660156 17.835938 22.652344 17.730469 22.648438 17.625 C 22.53125 17.707031 22.414062 17.78125 22.296875 17.859375 C 22.304688 17.960938 22.316406 18.066406 22.320312 18.171875 C 22.433594 18.089844 22.542969 18.015625 22.660156 17.941406 Z M 22.683594 17.921875 C 22.792969 17.839844 22.902344 17.757812 23.007812 17.679688 C 23.007812 17.574219 23.011719 17.46875 23.007812 17.363281 C 22.898438 17.445312 22.785156 17.527344 22.671875 17.609375 C 22.675781 17.710938 22.683594 17.816406 22.683594 17.921875 Z M 22.355469 7.621094 C 22.171875 7.976562 22.035156 8.359375 21.96875 8.75 C 21.804688 9.648438 21.914062 10.574219 22.046875 11.359375 C 22.160156 12.015625 22.304688 12.679688 22.445312 13.316406 C 22.660156 14.316406 22.886719 15.351562 22.984375 16.382812 C 23.011719 16.667969 23.03125 16.972656 23.035156 17.300781 C 23.148438 17.21875 23.25 17.132812 23.355469 17.050781 C 23.367188 16.648438 23.355469 16.246094 23.320312 15.847656 C 23.230469 14.828125 23.011719 13.804688 22.796875 12.824219 C 22.671875 12.226562 22.535156 11.601562 22.433594 10.988281 C 22.304688 10.226562 22.195312 9.332031 22.339844 8.453125 C 22.402344 8.070312 22.519531 7.695312 22.695312 7.347656 C 22.757812 7.226562 22.820312 7.109375 22.898438 6.992188 C 22.839844 7.023438 22.78125 7.050781 22.722656 7.082031 C 22.582031 7.25 22.460938 7.429688 22.355469 7.621094 Z M 22.96875 6.933594 C 23.03125 6.90625 23.09375 6.882812 23.160156 6.859375 C 23.195312 6.800781 23.222656 6.742188 23.261719 6.691406 C 23.199219 6.71875 23.140625 6.75 23.082031 6.785156 C 23.042969 6.832031 23 6.882812 22.96875 6.933594 Z M 23.332031 6.632812 C 23.398438 6.605469 23.460938 6.582031 23.53125 6.558594 C 23.566406 6.5 23.59375 6.441406 23.628906 6.382812 C 23.570312 6.410156 23.507812 6.441406 23.449219 6.476562 C 23.410156 6.527344 23.367188 6.582031 23.332031 6.632812 Z M 23.695312 6.324219 C 23.757812 6.296875 23.828125 6.273438 23.890625 6.25 C 23.921875 6.183594 23.957031 6.128906 23.988281 6.070312 C 23.925781 6.097656 23.863281 6.132812 23.804688 6.167969 C 23.769531 6.214844 23.734375 6.265625 23.695312 6.324219 Z M 24.058594 6.011719 C 24.128906 5.980469 24.195312 5.953125 24.261719 5.929688 C 24.292969 5.867188 24.328125 5.800781 24.363281 5.742188 C 24.296875 5.773438 24.234375 5.808594 24.175781 5.847656 C 24.136719 5.894531 24.09375 5.953125 24.058594 6.011719 Z M 24.425781 5.683594 C 24.496094 5.652344 24.566406 5.621094 24.636719 5.597656 C 24.664062 5.527344 24.699219 5.464844 24.734375 5.40625 C 24.671875 5.441406 24.605469 5.476562 24.542969 5.515625 C 24.496094 5.570312 24.460938 5.628906 24.425781 5.683594 Z M 24.792969 5.34375 C 24.863281 5.308594 24.933594 5.277344 25 5.25 C 25.03125 5.179688 25.058594 5.117188 25.09375 5.046875 C 25.03125 5.082031 24.964844 5.121094 24.902344 5.164062 C 24.863281 5.21875 24.828125 5.285156 24.792969 5.34375 Z M 25.257812 4.808594 C 25.222656 4.867188 25.1875 4.921875 25.152344 4.988281 C 25.222656 4.953125 25.292969 4.917969 25.363281 4.882812 C 25.390625 4.8125 25.421875 4.742188 25.453125 4.671875 C 25.390625 4.714844 25.328125 4.753906 25.261719 4.800781 Z M 25.476562 4.632812 C 25.488281 4.605469 25.507812 4.574219 25.523438 4.546875 C 25.542969 4.515625 25.558594 4.480469 25.578125 4.453125 C 25.523438 4.492188 25.472656 4.539062 25.421875 4.585938 C 25.378906 4.640625 25.34375 4.691406 25.304688 4.75 C 25.363281 4.703125 25.421875 4.667969 25.476562 4.632812 Z M 25.542969 4.558594 L 25.511719 4.609375 C 25.582031 4.570312 25.652344 4.527344 25.722656 4.492188 C 25.746094 4.425781 25.773438 4.359375 25.796875 4.289062 L 25.808594 4.265625 C 25.746094 4.308594 25.683594 4.355469 25.625 4.402344 C 25.601562 4.453125 25.570312 4.503906 25.542969 4.558594 Z M 25.855469 4.242188 L 25.832031 4.300781 C 25.808594 4.359375 25.785156 4.417969 25.761719 4.476562 C 25.84375 4.433594 25.925781 4.402344 26.007812 4.359375 C 26.023438 4.273438 26.046875 4.191406 26.078125 4.105469 C 25.996094 4.152344 25.925781 4.195312 25.855469 4.242188 Z M 25.75 4.511719 C 25.722656 4.59375 25.699219 4.671875 25.675781 4.761719 C 25.761719 4.726562 25.855469 4.695312 25.941406 4.664062 C 25.960938 4.570312 25.976562 4.480469 26 4.394531 C 25.914062 4.429688 25.832031 4.46875 25.75 4.511719 Z M 25.59375 5.074219 C 25.582031 5.128906 25.570312 5.179688 25.566406 5.226562 C 25.558594 5.265625 25.554688 5.308594 25.546875 5.347656 C 25.652344 5.332031 25.761719 5.308594 25.867188 5.289062 C 25.875 5.191406 25.878906 5.09375 25.890625 4.992188 C 25.792969 5.023438 25.695312 5.050781 25.59375 5.074219 Z M 25.542969 5.378906 C 25.53125 5.46875 25.519531 5.570312 25.511719 5.667969 C 25.628906 5.65625 25.746094 5.644531 25.863281 5.632812 C 25.863281 5.527344 25.863281 5.421875 25.867188 5.324219 C 25.757812 5.335938 25.652344 5.359375 25.542969 5.378906 Z M 25.855469 6.003906 L 25.496094 6.023438 C 25.496094 6.039062 25.496094 6.0625 25.496094 6.082031 C 25.496094 6.167969 25.496094 6.25 25.5 6.335938 L 25.898438 6.335938 C 25.886719 6.226562 25.878906 6.117188 25.875 6.003906 Z M 25.722656 6.359375 L 25.496094 6.359375 C 25.5 6.46875 25.507812 6.582031 25.511719 6.683594 L 25.59375 6.691406 C 25.703125 6.695312 25.816406 6.703125 25.933594 6.707031 C 25.921875 6.59375 25.902344 6.480469 25.890625 6.359375 Z M 25.601562 6.714844 L 25.523438 6.707031 C 25.558594 7.136719 25.628906 7.558594 25.695312 7.929688 C 25.746094 8.214844 25.804688 8.503906 25.855469 8.789062 C 26.03125 9.683594 26.214844 10.609375 26.234375 11.527344 C 26.25 12.550781 26.058594 13.574219 25.664062 14.519531 C 25.710938 14.453125 25.757812 14.375 25.804688 14.300781 C 26.308594 13.273438 26.578125 12.136719 26.570312 10.988281 C 26.566406 10.074219 26.386719 9.160156 26.210938 8.273438 C 26.164062 8.035156 26.117188 7.789062 26.070312 7.550781 C 26.023438 7.296875 25.976562 7.015625 25.9375 6.726562 Z M 26.203125 11.535156 C 26.1875 10.613281 26.007812 9.691406 25.828125 8.796875 C 25.769531 8.515625 25.714844 8.226562 25.664062 7.933594 C 25.59375 7.5625 25.53125 7.144531 25.496094 6.707031 C 25.363281 6.703125 25.234375 6.695312 25.101562 6.691406 C 25.117188 7.238281 25.183594 7.777344 25.285156 8.3125 C 25.34375 8.644531 25.414062 8.976562 25.476562 9.300781 C 25.660156 10.203125 25.84375 11.136719 25.875 12.066406 C 25.902344 13.027344 25.746094 13.980469 25.421875 14.882812 C 25.476562 14.800781 25.535156 14.71875 25.589844 14.636719 C 26.011719 13.660156 26.222656 12.597656 26.203125 11.535156 Z M 25.375 15 C 25.351562 15.0625 25.320312 15.132812 25.296875 15.195312 C 25.339844 15.132812 25.378906 15.066406 25.421875 15 C 25.460938 14.929688 25.484375 14.863281 25.511719 14.800781 C 25.464844 14.871094 25.421875 14.933594 25.375 15 Z M 25.316406 15.074219 C 25.257812 15.15625 25.195312 15.238281 25.128906 15.316406 C 25.101562 15.398438 25.070312 15.480469 25.042969 15.5625 C 25.101562 15.480469 25.160156 15.394531 25.214844 15.3125 C 25.25 15.238281 25.285156 15.160156 25.316406 15.074219 Z M 25.011719 15.65625 C 24.988281 15.726562 24.960938 15.792969 24.933594 15.863281 C 24.976562 15.792969 25.023438 15.71875 25.066406 15.644531 C 25.09375 15.578125 25.125 15.515625 25.160156 15.453125 C 25.113281 15.519531 25.066406 15.585938 25.011719 15.65625 Z M 24.949219 15.742188 C 24.890625 15.816406 24.832031 15.894531 24.773438 15.976562 C 24.746094 16.054688 24.714844 16.144531 24.6875 16.226562 C 24.738281 16.148438 24.792969 16.074219 24.84375 15.992188 C 24.886719 15.910156 24.921875 15.824219 24.949219 15.742188 Z M 24.660156 16.304688 C 24.636719 16.375 24.605469 16.445312 24.578125 16.515625 C 24.617188 16.453125 24.660156 16.394531 24.695312 16.328125 C 24.726562 16.257812 24.761719 16.183594 24.792969 16.113281 C 24.75 16.179688 24.707031 16.242188 24.660156 16.304688 Z M 24.601562 16.382812 C 24.546875 16.453125 24.496094 16.519531 24.445312 16.585938 L 24.421875 16.613281 C 24.398438 16.703125 24.367188 16.78125 24.339844 16.863281 C 24.398438 16.789062 24.449219 16.707031 24.5 16.632812 C 24.535156 16.550781 24.570312 16.464844 24.601562 16.382812 Z M 24.308594 16.945312 C 24.285156 17.015625 24.257812 17.085938 24.226562 17.15625 C 24.269531 17.085938 24.316406 17.019531 24.355469 16.953125 C 24.386719 16.886719 24.414062 16.816406 24.449219 16.753906 C 24.402344 16.816406 24.355469 16.886719 24.308594 16.945312 Z M 24.257812 17.019531 C 24.226562 17.0625 24.195312 17.101562 24.164062 17.144531 C 24.136719 17.183594 24.105469 17.210938 24.078125 17.253906 C 24.054688 17.339844 24.023438 17.421875 23.996094 17.503906 C 24.046875 17.429688 24.105469 17.347656 24.160156 17.269531 C 24.195312 17.191406 24.226562 17.109375 24.257812 17.019531 Z M 23.96875 17.585938 C 23.945312 17.65625 23.914062 17.722656 23.886719 17.792969 C 23.925781 17.730469 23.96875 17.660156 24.011719 17.589844 C 24.046875 17.519531 24.078125 17.457031 24.105469 17.386719 C 24.058594 17.457031 24.011719 17.527344 23.96875 17.585938 Z M 23.914062 17.660156 C 23.902344 17.671875 23.890625 17.691406 23.878906 17.703125 C 23.832031 17.765625 23.78125 17.824219 23.734375 17.886719 C 23.710938 17.972656 23.683594 18.054688 23.652344 18.144531 C 23.710938 18.066406 23.761719 17.984375 23.816406 17.90625 C 23.851562 17.824219 23.886719 17.742188 23.914062 17.660156 Z M 23.625 18.222656 C 23.601562 18.292969 23.570312 18.371094 23.542969 18.441406 C 23.589844 18.371094 23.628906 18.304688 23.671875 18.234375 C 23.707031 18.167969 23.734375 18.097656 23.761719 18.03125 C 23.71875 18.097656 23.671875 18.160156 23.625 18.222656 Z M 23.570312 18.292969 C 23.519531 18.363281 23.460938 18.441406 23.402344 18.507812 C 23.378906 18.597656 23.351562 18.679688 23.320312 18.765625 C 23.375 18.695312 23.421875 18.621094 23.472656 18.550781 C 23.507812 18.460938 23.542969 18.382812 23.570312 18.292969 Z M 23.316406 18.816406 C 23.308594 18.824219 23.304688 18.835938 23.296875 18.839844 C 23.273438 18.910156 23.246094 18.980469 23.222656 19.050781 C 23.261719 18.992188 23.296875 18.929688 23.332031 18.871094 C 23.367188 18.8125 23.398438 18.730469 23.425781 18.660156 C 23.390625 18.71875 23.355469 18.769531 23.316406 18.816406 Z M 23.246094 18.910156 C 23.1875 18.984375 23.128906 19.0625 23.066406 19.136719 C 23.042969 19.222656 23.011719 19.3125 22.984375 19.398438 L 23.007812 19.363281 C 23.054688 19.300781 23.101562 19.230469 23.148438 19.160156 C 23.1875 19.078125 23.21875 18.996094 23.246094 18.910156 Z M 23.03125 19.375 C 23.007812 19.410156 22.984375 19.4375 22.960938 19.472656 C 22.9375 19.542969 22.914062 19.621094 22.886719 19.6875 C 22.933594 19.621094 22.980469 19.542969 23.019531 19.472656 C 23.046875 19.410156 23.078125 19.339844 23.105469 19.277344 C 23.082031 19.3125 23.058594 19.347656 23.03125 19.375 Z M 22.910156 19.539062 C 22.851562 19.613281 22.792969 19.6875 22.730469 19.765625 C 22.707031 19.851562 22.675781 19.9375 22.652344 20.027344 C 22.675781 19.992188 22.707031 19.957031 22.730469 19.917969 C 22.75 19.875 22.785156 19.828125 22.816406 19.789062 C 22.851562 19.710938 22.878906 19.625 22.910156 19.539062 Z M 22.746094 19.933594 C 22.707031 19.992188 22.664062 20.042969 22.625 20.101562 C 22.601562 20.175781 22.570312 20.253906 22.542969 20.324219 C 22.589844 20.253906 22.628906 20.183594 22.671875 20.113281 C 22.707031 20.042969 22.734375 19.972656 22.761719 19.898438 Z M 22.570312 20.164062 C 22.511719 20.242188 22.449219 20.316406 22.386719 20.394531 C 22.363281 20.484375 22.332031 20.574219 22.304688 20.660156 C 22.351562 20.601562 22.398438 20.539062 22.4375 20.472656 L 22.480469 20.414062 C 22.511719 20.335938 22.546875 20.253906 22.578125 20.164062 Z M 22.285156 20.730469 C 22.261719 20.804688 22.234375 20.882812 22.207031 20.960938 C 22.253906 20.886719 22.296875 20.816406 22.34375 20.742188 C 22.378906 20.671875 22.410156 20.601562 22.4375 20.53125 C 22.390625 20.601562 22.34375 20.671875 22.285156 20.730469 Z M 21.972656 21.339844 C 21.949219 21.421875 21.921875 21.496094 21.890625 21.574219 C 21.933594 21.507812 21.972656 21.445312 22.011719 21.375 C 22.054688 21.304688 22.078125 21.230469 22.105469 21.160156 C 22.066406 21.222656 22.023438 21.28125 21.972656 21.339844 Z M 21.925781 21.398438 C 21.4375 22.007812 20.832031 22.507812 20.140625 22.875 C 19.289062 23.324219 18.398438 23.503906 17.5625 23.398438 C 16.242188 23.222656 15.183594 22.410156 14.324219 21.632812 C 14.152344 21.472656 13.980469 21.316406 13.8125 21.160156 C 13.574219 20.933594 13.328125 20.707031 13.074219 20.484375 L 12.9375 20.496094 C 13.1875 20.753906 13.421875 21.015625 13.660156 21.277344 C 13.8125 21.4375 13.960938 21.613281 14.113281 21.777344 C 14.925781 22.652344 15.9375 23.578125 17.269531 23.828125 C 18.890625 24.125 20.757812 23.234375 21.832031 21.652344 C 21.867188 21.578125 21.902344 21.492188 21.925781 21.398438 Z M 19.863281 23.425781 C 18.996094 23.863281 18.101562 24.015625 17.269531 23.863281 C 15.933594 23.613281 14.921875 22.683594 14.101562 21.804688 C 13.949219 21.640625 13.792969 21.46875 13.644531 21.304688 C 13.402344 21.039062 13.164062 20.769531 12.910156 20.515625 L 12.777344 20.527344 C 13.019531 20.816406 13.253906 21.121094 13.480469 21.421875 C 13.613281 21.597656 13.753906 21.777344 13.894531 21.957031 C 14.621094 22.875 15.625 23.972656 16.980469 24.300781 C 18.605469 24.6875 20.546875 23.789062 21.59375 22.160156 C 21.628906 22.101562 21.664062 22.042969 21.707031 21.984375 C 21.734375 21.914062 21.761719 21.847656 21.792969 21.777344 C 21.292969 22.46875 20.628906 23.039062 19.863281 23.425781 Z M 12.898438 20.484375 L 12.824219 20.410156 L 12.707031 20.414062 L 12.695312 20.414062 C 12.71875 20.445312 12.742188 20.472656 12.765625 20.503906 Z M 12.664062 20.414062 L 12.539062 20.421875 L 12.609375 20.515625 L 12.742188 20.503906 Z M 12.644531 20.394531 L 12.574219 20.3125 L 12.449219 20.3125 C 12.472656 20.339844 12.496094 20.371094 12.519531 20.398438 Z M 12.421875 20.304688 L 12.304688 20.304688 C 11.144531 20.300781 10.207031 20.347656 9.363281 20.449219 C 8.984375 20.496094 8.625 20.5625 8.300781 20.636719 C 7.644531 20.789062 7.003906 20.992188 6.382812 21.246094 C 6.292969 21.28125 6.203125 21.324219 6.113281 21.359375 L 6.113281 21.363281 C 6.203125 21.335938 6.289062 21.300781 6.375 21.269531 C 7.03125 21.054688 7.703125 20.894531 8.382812 20.769531 C 8.714844 20.710938 9.066406 20.660156 9.457031 20.613281 C 10.445312 20.496094 11.460938 20.4375 12.417969 20.394531 L 12.492188 20.386719 Z M 6.085938 21.375 Z M 6.050781 21.390625 Z M 11.109375 18.957031 C 10.0625 18.183594 8.382812 17.871094 7.347656 18.8125 C 6.8125 19.292969 6.554688 20.007812 6.335938 20.644531 C 6.335938 20.648438 6.335938 20.648438 6.335938 20.652344 C 6.589844 20.066406 6.882812 19.410156 7.421875 18.960938 C 7.707031 18.730469 8.039062 18.566406 8.394531 18.484375 C 9.28125 18.269531 10.371094 18.492188 11.234375 19.066406 C 11.257812 19.078125 11.277344 19.097656 11.300781 19.113281 C 11.230469 19.054688 11.167969 19.007812 11.109375 18.957031 Z M 20.496094 18.8125 C 18.730469 19.566406 16.84375 19.984375 14.933594 20.257812 C 15.402344 20.222656 15.875 20.175781 16.347656 20.125 C 17.851562 19.945312 19.070312 19.667969 20.1875 19.246094 C 20.925781 18.96875 21.628906 18.613281 22.292969 18.179688 C 22.285156 18.074219 22.28125 17.96875 22.269531 17.863281 C 21.707031 18.230469 21.113281 18.550781 20.496094 18.8125 Z M 21.1875 9.347656 C 20.992188 10.308594 21.101562 11.289062 21.242188 12.125 C 21.363281 12.863281 21.523438 13.613281 21.6875 14.335938 C 21.914062 15.359375 22.148438 16.410156 22.261719 17.46875 C 22.273438 17.585938 22.285156 17.707031 22.296875 17.824219 C 22.414062 17.746094 22.53125 17.671875 22.648438 17.589844 C 22.636719 17.375 22.625 17.15625 22.601562 16.933594 C 22.492188 15.894531 22.261719 14.847656 22.042969 13.839844 C 21.890625 13.15625 21.742188 12.453125 21.625 11.753906 C 21.492188 10.941406 21.375 9.988281 21.558594 9.050781 C 21.640625 8.644531 21.78125 8.25 21.984375 7.882812 C 22.101562 7.671875 22.246094 7.476562 22.410156 7.296875 C 21.804688 7.75 21.367188 8.476562 21.1875 9.347656 Z M 22.617188 7.109375 L 22.675781 7.074219 L 22.707031 7.0625 C 22.722656 7.039062 22.746094 7.015625 22.769531 6.992188 C 22.71875 7.027344 22.664062 7.070312 22.617188 7.109375 Z M 22.980469 6.8125 C 23.007812 6.796875 23.035156 6.777344 23.066406 6.761719 C 23.089844 6.730469 23.113281 6.703125 23.140625 6.671875 C 23.082031 6.71875 23.03125 6.765625 22.980469 6.8125 Z M 23.332031 6.515625 C 23.367188 6.5 23.398438 6.476562 23.433594 6.457031 C 23.457031 6.429688 23.480469 6.40625 23.5 6.378906 C 23.4375 6.417969 23.386719 6.464844 23.332031 6.515625 Z M 23.832031 6.082031 C 23.785156 6.121094 23.738281 6.160156 23.695312 6.203125 C 23.730469 6.179688 23.757812 6.160156 23.792969 6.144531 C 23.816406 6.117188 23.839844 6.085938 23.863281 6.058594 Z M 24.117188 5.824219 C 24.09375 5.84375 24.078125 5.867188 24.054688 5.890625 C 24.089844 5.867188 24.125 5.847656 24.160156 5.824219 C 24.183594 5.789062 24.210938 5.761719 24.234375 5.726562 C 24.195312 5.761719 24.152344 5.796875 24.117188 5.824219 Z M 24.519531 5.492188 C 24.542969 5.457031 24.566406 5.429688 24.589844 5.394531 C 24.53125 5.445312 24.464844 5.5 24.410156 5.558594 C 24.449219 5.539062 24.484375 5.515625 24.519531 5.492188 Z M 24.773438 5.21875 C 24.808594 5.195312 24.84375 5.171875 24.878906 5.144531 C 24.902344 5.109375 24.925781 5.082031 24.949219 5.046875 L 24.957031 5.039062 C 24.898438 5.097656 24.832031 5.15625 24.773438 5.21875 Z M 25.140625 4.859375 C 25.175781 4.832031 25.210938 4.808594 25.25 4.777344 C 25.273438 4.738281 25.296875 4.703125 25.328125 4.667969 C 25.257812 4.730469 25.199219 4.789062 25.140625 4.859375 Z M 25.496094 4.476562 C 25.53125 4.445312 25.566406 4.417969 25.605469 4.390625 C 25.628906 4.347656 25.652344 4.308594 25.683594 4.265625 C 25.617188 4.335938 25.554688 4.40625 25.496094 4.476562 Z M 25.84375 4.0625 C 25.878906 4.027344 25.921875 3.992188 25.953125 3.964844 C 25.976562 3.917969 26 3.878906 26.023438 3.832031 C 25.964844 3.90625 25.902344 3.988281 25.84375 4.0625 Z M 26.1875 3.617188 C 26.222656 3.582031 26.257812 3.546875 26.292969 3.511719 C 26.308594 3.464844 26.332031 3.417969 26.355469 3.371094 C 26.292969 3.453125 26.238281 3.535156 26.1875 3.617188 Z M 26.652344 2.867188 C 26.59375 2.953125 26.546875 3.046875 26.5 3.140625 C 26.53125 3.097656 26.566406 3.058594 26.601562 3.023438 C 26.613281 2.96875 26.628906 2.917969 26.652344 2.867188 Z M 26.570312 3.085938 C 26.523438 3.144531 26.476562 3.203125 26.4375 3.261719 C 26.402344 3.324219 26.375 3.394531 26.34375 3.457031 C 26.398438 3.40625 26.449219 3.355469 26.507812 3.308594 C 26.523438 3.230469 26.546875 3.164062 26.570312 3.085938 Z M 26.488281 3.355469 C 26.433594 3.414062 26.375 3.46875 26.316406 3.523438 C 26.28125 3.597656 26.25 3.675781 26.222656 3.75 C 26.285156 3.695312 26.351562 3.652344 26.421875 3.597656 C 26.441406 3.523438 26.460938 3.4375 26.488281 3.355469 Z M 26.414062 3.640625 C 26.34375 3.691406 26.273438 3.742188 26.203125 3.796875 C 26.175781 3.878906 26.148438 3.957031 26.117188 4.039062 C 26.117188 4.039062 26.117188 4.046875 26.117188 4.046875 C 26.191406 4 26.273438 3.953125 26.355469 3.914062 C 26.367188 3.824219 26.386719 3.730469 26.414062 3.640625 Z M 26.351562 3.945312 C 26.269531 3.992188 26.1875 4.039062 26.113281 4.085938 C 26.089844 4.175781 26.066406 4.261719 26.042969 4.347656 C 26.128906 4.308594 26.214844 4.273438 26.308594 4.230469 C 26.308594 4.132812 26.328125 4.039062 26.351562 3.945312 Z M 26.296875 4.253906 C 26.203125 4.296875 26.117188 4.332031 26.03125 4.371094 C 26.007812 4.464844 25.988281 4.550781 25.972656 4.644531 C 26.070312 4.609375 26.164062 4.582031 26.269531 4.546875 C 26.269531 4.457031 26.28125 4.359375 26.296875 4.253906 Z M 26.257812 4.695312 C 26.257812 4.65625 26.261719 4.621094 26.261719 4.582031 C 26.164062 4.609375 26.066406 4.644531 25.964844 4.679688 C 25.949219 4.773438 25.9375 4.867188 25.925781 4.964844 C 26.03125 4.941406 26.140625 4.914062 26.25 4.890625 C 26.246094 4.824219 26.25 4.761719 26.257812 4.695312 Z M 26.246094 4.914062 C 26.136719 4.933594 26.03125 4.964844 25.921875 4.988281 C 25.910156 5.085938 25.902344 5.183594 25.898438 5.285156 L 26.128906 5.25 L 26.246094 5.230469 C 26.238281 5.128906 26.238281 5.023438 26.246094 4.914062 Z M 26.246094 5.261719 L 26.128906 5.277344 L 25.890625 5.320312 C 25.886719 5.421875 25.886719 5.523438 25.886719 5.628906 L 25.984375 5.617188 L 26.257812 5.585938 C 26.25 5.480469 26.246094 5.371094 26.246094 5.261719 Z M 26.261719 5.617188 C 26.171875 5.628906 26.078125 5.632812 25.988281 5.644531 L 25.886719 5.65625 C 25.886719 5.695312 25.886719 5.738281 25.886719 5.785156 C 25.886719 5.847656 25.890625 5.917969 25.890625 5.980469 C 26.023438 5.976562 26.152344 5.96875 26.285156 5.964844 C 26.28125 5.84375 26.269531 5.730469 26.261719 5.617188 Z M 26.296875 5.980469 C 26.164062 5.988281 26.03125 5.992188 25.898438 6 C 25.902344 6.109375 25.910156 6.21875 25.921875 6.335938 C 26.058594 6.335938 26.199219 6.335938 26.339844 6.335938 C 26.320312 6.21875 26.308594 6.097656 26.296875 5.980469 Z M 25.925781 6.359375 C 25.9375 6.476562 25.949219 6.59375 25.964844 6.707031 C 26.113281 6.714844 26.257812 6.71875 26.402344 6.71875 C 26.386719 6.597656 26.363281 6.480469 26.351562 6.359375 C 26.199219 6.359375 26.058594 6.359375 25.925781 6.359375 Z M 26.925781 10.453125 C 26.925781 9.546875 26.75 8.632812 26.582031 7.75 C 26.519531 7.417969 26.453125 7.085938 26.398438 6.75 C 26.25 6.75 26.105469 6.742188 25.960938 6.738281 C 26 7.027344 26.046875 7.300781 26.089844 7.558594 C 26.136719 7.796875 26.183594 8.039062 26.226562 8.277344 C 26.402344 9.160156 26.578125 10.082031 26.589844 11 C 26.59375 12.054688 26.375 13.101562 25.9375 14.066406 C 26.554688 12.96875 26.921875 11.753906 26.925781 10.453125 Z M 25.640625 14.613281 C 25.628906 14.636719 25.613281 14.660156 25.59375 14.683594 L 25.566406 14.753906 C 25.589844 14.707031 25.617188 14.660156 25.640625 14.613281 Z M 25.292969 15.253906 L 25.238281 15.328125 C 25.226562 15.359375 25.214844 15.382812 25.203125 15.410156 C 25.234375 15.359375 25.261719 15.304688 25.292969 15.253906 Z M 24.945312 15.898438 C 24.925781 15.929688 24.902344 15.957031 24.886719 15.992188 C 24.867188 16.027344 24.863281 16.050781 24.84375 16.078125 C 24.875 16.015625 24.910156 15.957031 24.945312 15.898438 Z M 24.570312 16.574219 L 24.523438 16.644531 L 24.488281 16.722656 Z M 24.234375 17.203125 C 24.21875 17.230469 24.199219 17.257812 24.183594 17.28125 C 24.164062 17.304688 24.160156 17.335938 24.148438 17.363281 C 24.175781 17.3125 24.207031 17.257812 24.234375 17.203125 Z M 23.890625 17.835938 C 23.875 17.863281 23.855469 17.894531 23.832031 17.921875 L 23.792969 18.015625 C 23.832031 17.957031 23.863281 17.894531 23.890625 17.835938 Z M 23.558594 18.46875 C 23.542969 18.496094 23.519531 18.53125 23.5 18.5625 C 23.484375 18.589844 23.480469 18.625 23.460938 18.660156 C 23.488281 18.597656 23.523438 18.53125 23.558594 18.46875 Z M 23.222656 19.097656 L 23.171875 19.171875 C 23.160156 19.199219 23.148438 19.230469 23.136719 19.257812 C 23.171875 19.207031 23.199219 19.148438 23.222656 19.097656 Z M 22.910156 19.707031 C 22.886719 19.742188 22.863281 19.777344 22.839844 19.8125 C 22.828125 19.847656 22.808594 19.882812 22.796875 19.917969 C 22.839844 19.847656 22.875 19.777344 22.910156 19.707031 Z M 22.578125 20.335938 L 22.507812 20.433594 C 22.492188 20.472656 22.472656 20.515625 22.460938 20.550781 C 22.5 20.480469 22.542969 20.40625 22.578125 20.335938 Z M 22.257812 20.949219 C 22.234375 20.984375 22.210938 21.019531 22.1875 21.054688 L 22.175781 21.066406 C 22.160156 21.113281 22.140625 21.152344 22.125 21.199219 C 22.171875 21.121094 22.210938 21.03125 22.257812 20.949219 Z M 21.925781 21.578125 C 21.921875 21.589844 21.914062 21.601562 21.902344 21.613281 C 21.890625 21.636719 21.875 21.652344 21.863281 21.675781 C 21.851562 21.71875 21.832031 21.753906 21.816406 21.792969 C 21.851562 21.722656 21.890625 21.652344 21.925781 21.578125 Z M 13.300781 21.550781 C 13.421875 21.734375 13.550781 21.933594 13.675781 22.121094 C 14.363281 23.136719 15.328125 24.355469 16.695312 24.753906 C 18.542969 25.292969 20.421875 24.136719 21.316406 22.71875 C 21.425781 22.542969 21.523438 22.363281 21.613281 22.183594 C 21.105469 22.949219 20.410156 23.574219 19.582031 23.980469 C 18.710938 24.402344 17.8125 24.519531 16.980469 24.324219 C 15.617188 23.996094 14.609375 22.890625 13.882812 21.96875 C 13.742188 21.792969 13.601562 21.609375 13.46875 21.433594 C 13.234375 21.132812 13.003906 20.824219 12.753906 20.527344 L 12.621094 20.539062 C 12.859375 20.871094 13.078125 21.210938 13.300781 21.550781 Z M 9.542969 20.816406 C 10.089844 20.757812 10.648438 20.707031 11.1875 20.652344 C 11.648438 20.613281 12.109375 20.566406 12.574219 20.519531 L 12.503906 20.425781 L 12.410156 20.433594 C 11.457031 20.480469 10.441406 20.539062 9.453125 20.652344 C 9.0625 20.699219 8.707031 20.753906 8.375 20.8125 C 7.703125 20.933594 7.03125 21.097656 6.375 21.3125 C 6.28125 21.339844 6.191406 21.375 6.097656 21.402344 C 6.097656 21.410156 6.097656 21.410156 6.097656 21.414062 C 7.242188 21.085938 8.433594 20.933594 9.542969 20.816406 Z M 6.066406 21.414062 C 6.066406 21.414062 6.066406 21.410156 6.066406 21.410156 L 6.0625 21.410156 L 6.0625 21.414062 Z M 6.027344 21.425781 L 6.027344 21.421875 L 6.023438 21.421875 C 6.023438 21.421875 6.023438 21.425781 6.023438 21.425781 Z M 5.992188 21.4375 Z M 2.5 24.363281 C 2.820312 23.828125 3.207031 23.339844 3.660156 22.910156 C 4.183594 22.421875 4.773438 22.007812 5.40625 21.675781 C 4.71875 21.972656 4.078125 22.363281 3.503906 22.839844 C 3.027344 23.246094 2.613281 23.722656 2.285156 24.253906 C 1.363281 25.710938 1.132812 27.339844 1.679688 28.519531 C 1.3125 27.410156 1.625 25.792969 2.5 24.363281 Z M 1.410156 26.433594 C 1.539062 25.648438 1.832031 24.902344 2.253906 24.234375 C 2.585938 23.699219 3 23.222656 3.476562 22.816406 C 4.023438 22.363281 4.632812 21.984375 5.285156 21.695312 C 4.578125 21.945312 3.917969 22.300781 3.3125 22.742188 C 1.65625 23.984375 0.550781 26.492188 1.601562 28.425781 C 1.371094 27.851562 1.300781 27.164062 1.410156 26.433594 Z M 1.410156 26.433594 " fill-opacity="1" fill-rule="nonzero"/></g></svg>